  0
SECTION
  2
HEADER
  9
$ACADVER
  1
AC1006
  9
$DWGCODEPAGE
  3
ansi_1251
  9
$INSBASE
 10
0.0
 20
0.0
 30
0.0
  9
$EXTMIN
 10
-111.7401
 20
-392.7183
  9
$EXTMAX
 10
118.4599
 20
-162.5183
  9
$LIMMIN
 10
0.0
 20
0.0
  9
$LIMMAX
 10
12.0
 20
9.0
  9
$ORTHOMODE
 70
     0
  9
$REGENMODE
 70
     1
  9
$FILLMODE
 70
     1
  9
$QTEXTMODE
 70
     0
  9
$MIRRTEXT
 70
     1
  9
$DRAGMODE
 70
     2
  9
$LTSCALE
 40
1.0
  9
$OSMODE
 70
    37
  9
$ATTMODE
 70
     1
  9
$TEXTSIZE
 40
0.2
  9
$TRACEWID
 40
0.05
  9
$TEXTSTYLE
  7
STANDARD
  9
$CLAYER
  8
0
  9
$CELTYPE
  6
BYLAYER
  9
$CECOLOR
 62
   256
  9
$DIMSCALE
 40
1.0
  9
$DIMASZ
 40
0.18
  9
$DIMEXO
 40
0.0625
  9
$DIMDLI
 40
0.38
  9
$DIMRND
 40
0.0
  9
$DIMDLE
 40
0.0
  9
$DIMEXE
 40
0.18
  9
$DIMTP
 40
0.0
  9
$DIMTM
 40
0.0
  9
$DIMTXT
 40
0.18
  9
$DIMCEN
 40
0.09
  9
$DIMTSZ
 40
0.0
  9
$DIMTOL
 70
     0
  9
$DIMLIM
 70
     0
  9
$DIMTIH
 70
     1
  9
$DIMTOH
 70
     1
  9
$DIMSE1
 70
     0
  9
$DIMSE2
 70
     0
  9
$DIMTAD
 70
     0
  9
$DIMZIN
 70
     0
  9
$DIMBLK
  1

  9
$DIMASO
 70
     1
  9
$DIMSHO
 70
     1
  9
$DIMPOST
  1

  9
$DIMAPOST
  1

  9
$DIMALT
 70
     0
  9
$DIMALTD
 70
     2
  9
$DIMALTF
 40
25.4
  9
$DIMLFAC
 40
1.0
  9
$DIMTOFL
 70
     0
  9
$DIMTVP
 40
0.0
  9
$DIMTIX
 70
     0
  9
$DIMSOXD
 70
     0
  9
$DIMSAH
 70
     0
  9
$DIMBLK1
  1

  9
$DIMBLK2
  1

  9
$LUNITS
 70
     2
  9
$LUPREC
 70
     4
  9
$SKETCHINC
 40
0.1
  9
$FILLETRAD
 40
0.5
  9
$AUNITS
 70
     0
  9
$AUPREC
 70
     0
  9
$MENU
  1
.
  9
$ELEVATION
 40
0.0
  9
$THICKNESS
 40
0.0
  9
$LIMCHECK
 70
     0
  9
$CHAMFERA
 40
0.0
  9
$CHAMFERB
 40
0.0
  9
$SKPOLY
 70
     0
  9
$TDCREATE
 40
2458823.532162581
  9
$TDUPDATE
 40
2458823.532162581
  9
$TDINDWG
 40
0.0000000116
  9
$TDUSRTIMER
 40
0.0000000116
  9
$USRTIMER
 70
     1
  9
$ANGBASE
 50
0.0
  9
$ANGDIR
 70
     0
  9
$PDMODE
 70
     0
  9
$PDSIZE
 40
0.0
  9
$PLINEWID
 40
0.0
  9
$COORDS
 70
     1
  9
$SPLFRAME
 70
     0
  9
$SPLINETYPE
 70
     6
  9
$SPLINESEGS
 70
     8
  9
$ATTDIA
 70
     0
  9
$ATTREQ
 70
     1
  9
$HANDLING
 70
     1
  9
$HANDSEED
  5
4E3
  9
$SURFTAB1
 70
     6
  9
$SURFTAB2
 70
     6
  9
$SURFTYPE
 70
     6
  9
$SURFU
 70
     6
  9
$SURFV
 70
     6
  9
$UCSNAME
  2

  9
$UCSORG
 10
0.0
 20
0.0
 30
0.0
  9
$UCSXDIR
 10
1.0
 20
0.0
 30
0.0
  9
$UCSYDIR
 10
0.0
 20
1.0
 30
0.0
  9
$USERI1
 70
     0
  9
$USERI2
 70
     0
  9
$USERI3
 70
     0
  9
$USERI4
 70
     0
  9
$USERI5
 70
     0
  9
$USERR1
 40
0.0
  9
$USERR2
 40
0.0
  9
$USERR3
 40
0.0
  9
$USERR4
 40
0.0
  9
$USERR5
 40
0.0
  9
$WORLDVIEW
 70
     1
  0
ENDSEC
  0
SECTION
  2
TABLES
  0
TABLE
  2
VPORT
 70
     1
  0
VPORT
  2
*ACTIVE
 70
     0
 10
0.0
 20
0.0
 11
1.0
 21
1.0
 12
10.42990654205607
 22
4.5
 13
0.0
 23
0.0
 14
0.5
 24
0.5
 15
0.5
 25
0.5
 16
0.0
 26
0.0
 36
1.0
 17
0.0
 27
0.0
 37
0.0
 40
9.0
 41
1.972972972850329
 42
50.0
 43
0.0
 44
0.0
 50
0.0
 51
0.0
 71
     0
 72
   100
 73
     1
 74
     3
 75
     0
 76
     0
 77
     0
 78
     0
  0
ENDTAB
  0
TABLE
  2
LTYPE
 70
     7
  0
LTYPE
  2
CONTINUOUS
 70
     0
  3
Solid line
 72
    65
 73
     0
 40
0.0
  0
LTYPE
  2
NEW_LINE1
 70
     0
  3

 72
    65
 73
     2
 40
0.7
 49
0.2
 49
-0.5
  0
LTYPE
  2
NEW_LINE2
 70
     0
  3

 72
    65
 73
     2
 40
0.7
 49
0.2
 49
-0.5
  0
LTYPE
  2
NEW_LINE3
 70
     0
  3

 72
    65
 73
     2
 40
0.7
 49
0.2
 49
-0.5
  0
LTYPE
  2
NEW_LINE4
 70
     0
  3

 72
    65
 73
     2
 40
0.7
 49
0.2
 49
-0.5
  0
LTYPE
  2
NEW_LINE5
 70
     0
  3

 72
    65
 73
     2
 40
0.7
 49
0.2
 49
-0.5
  0
LTYPE
  2
NEW_LINE6
 70
     0
  3

 72
    65
 73
     2
 40
0.7
 49
0.2
 49
-0.5
  0
ENDTAB
  0
TABLE
  2
LAYER
 70
     2
  0
LAYER
  2
0
 70
     0
 62
     7
  6
CONTINUOUS
  0
LAYER
  2
LAYER_1
 70
     0
 62
     7
  6
CONTINUOUS
  0
ENDTAB
  0
TABLE
  2
STYLE
 70
     1
  0
STYLE
  2
STANDARD
 70
     0
 40
0.0
 41
1.0
 50
0.0
 71
     0
 42
0.2
  3
txt
  4

  0
ENDTAB
  0
TABLE
  2
VIEW
 70
     0
  0
ENDTAB
  0
TABLE
  2
UCS
 70
     0
  0
ENDTAB
  0
ENDSEC
  0
SECTION
  2
BLOCKS
  0
ENDSEC
  0
SECTION
  2
ENTITIES
  0
POLYLINE
  5
70
  8
LAYER_1
 62
   250
 66
     1
 10
0.0
 20
0.0
 30
0.0
 70
     1
  0
VERTEX
  5
A3
  8
LAYER_1
 62
   250
 10
3.3599
 20
-162.6183
 30
0.0
  0
VERTEX
  5
A4
  8
LAYER_1
 62
   250
 10
-19.07548703185475
 20
-164.8279927536285
 30
0.0
  0
VERTEX
  5
A5
  8
LAYER_1
 62
   250
 10
-40.64869472198532
 20
-171.372153761202
 30
0.0
  0
VERTEX
  5
A6
  8
LAYER_1
 62
   250
 10
-60.53067679725424
 20
-181.9992945852073
 30
0.0
  0
VERTEX
  5
A7
  8
LAYER_1
 62
   250
 10
-77.95737983645297
 20
-196.301020163547
 30
0.0
  0
VERTEX
  5
A8
  8
LAYER_1
 62
   250
 10
-92.2591054147927
 20
-213.7277232027457
 30
0.0
  0
VERTEX
  5
A9
  8
LAYER_1
 62
   250
 10
-102.886246238798
 20
-233.6097052780146
 30
0.0
  0
VERTEX
  5
AA
  8
LAYER_1
 62
   250
 10
-109.4304072463715
 20
-255.1829129681452
 30
0.0
  0
VERTEX
  5
AB
  8
LAYER_1
 62
   250
 10
-111.6401
 20
-277.6183
 30
0.0
  0
VERTEX
  5
AC
  8
LAYER_1
 62
   250
 10
-109.4304072463715
 20
-300.0536870318547
 30
0.0
  0
VERTEX
  5
AD
  8
LAYER_1
 62
   250
 10
-102.886246238798
 20
-321.6268947219853
 30
0.0
  0
VERTEX
  5
AE
  8
LAYER_1
 62
   250
 10
-92.25910541479271
 20
-341.5088767972542
 30
0.0
  0
VERTEX
  5
AF
  8
LAYER_1
 62
   250
 10
-77.95737983645297
 20
-358.9355798364529
 30
0.0
  0
VERTEX
  5
B0
  8
LAYER_1
 62
   250
 10
-60.53067679725424
 20
-373.2373054147927
 30
0.0
  0
VERTEX
  5
B1
  8
LAYER_1
 62
   250
 10
-40.64869472198529
 20
-383.864446238798
 30
0.0
  0
VERTEX
  5
B2
  8
LAYER_1
 62
   250
 10
-19.07548703185469
 20
-390.4086072463715
 30
0.0
  0
VERTEX
  5
B3
  8
LAYER_1
 62
   250
 10
3.359900000000088
 20
-392.6183
 30
0.0
  0
VERTEX
  5
B4
  8
LAYER_1
 62
   250
 10
25.79528703185486
 20
-390.4086072463714
 30
0.0
  0
VERTEX
  5
B5
  8
LAYER_1
 62
   250
 10
47.36849472198546
 20
-383.8644462387979
 30
0.0
  0
VERTEX
  5
B6
  8
LAYER_1
 62
   250
 10
67.2504767972544
 20
-373.2373054147926
 30
0.0
  0
VERTEX
  5
B7
  8
LAYER_1
 62
   250
 10
84.67717983645309
 20
-358.9355798364528
 30
0.0
  0
VERTEX
  5
B8
  8
LAYER_1
 62
   250
 10
98.97890541479282
 20
-341.5088767972541
 30
0.0
  0
VERTEX
  5
B9
  8
LAYER_1
 62
   250
 10
109.6060462387981
 20
-321.6268947219851
 30
0.0
  0
VERTEX
  5
BA
  8
LAYER_1
 62
   250
 10
116.1502072463716
 20
-300.0536870318545
 30
0.0
  0
VERTEX
  5
BB
  8
LAYER_1
 62
   250
 10
118.3599
 20
-277.6182999999997
 30
0.0
  0
VERTEX
  5
BC
  8
LAYER_1
 62
   250
 10
116.1502072463714
 20
-255.1829129681449
 30
0.0
  0
VERTEX
  5
BD
  8
LAYER_1
 62
   250
 10
109.6060462387978
 20
-233.6097052780144
 30
0.0
  0
VERTEX
  5
BE
  8
LAYER_1
 62
   250
 10
98.9789054147925
 20
-213.7277232027454
 30
0.0
  0
VERTEX
  5
BF
  8
LAYER_1
 62
   250
 10
84.67717983645268
 20
-196.3010201635468
 30
0.0
  0
VERTEX
  5
C0
  8
LAYER_1
 62
   250
 10
67.25047679725392
 20
-181.9992945852071
 30
0.0
  0
VERTEX
  5
C1
  8
LAYER_1
 62
   250
 10
47.36849472198492
 20
-171.3721537612018
 30
0.0
  0
VERTEX
  5
C2
  8
LAYER_1
 62
   250
 10
25.7952870318543
 20
-164.8279927536284
 30
0.0
  0
SEQEND
  5
4BD
  8
LAYER_1
 62
   250
  0
POLYLINE
  5
71
  8
LAYER_1
 62
   250
 66
     1
 10
0.0
 20
0.0
 30
0.0
 70
     1
  0
VERTEX
  5
C3
  8
LAYER_1
 62
   250
 10
-84.9703
 20
-255.1183
 30
0.0
  0
VERTEX
  5
C4
  8
LAYER_1
 62
   250
 10
-40.0297
 20
-255.1183
 30
0.0
  0
VERTEX
  5
C5
  8
LAYER_1
 62
   250
 10
-40.0297
 20
-300.1183
 30
0.0
  0
VERTEX
  5
C6
  8
LAYER_1
 62
   250
 10
-84.9703
 20
-300.1183
 30
0.0
  0
VERTEX
  5
C7
  8
LAYER_1
 62
   250
 10
-84.9703
 20
-315.1183
 30
0.0
  0
VERTEX
  5
C8
  8
LAYER_1
 62
   250
 10
-109.9703
 20
-315.1183
 30
0.0
  0
VERTEX
  5
C9
  8
LAYER_1
 62
   250
 10
-109.9703
 20
-240.1183
 30
0.0
  0
VERTEX
  5
CA
  8
LAYER_1
 62
   250
 10
-84.9703
 20
-240.1183
 30
0.0
  0
VERTEX
  5
CB
  8
LAYER_1
 62
   250
 10
-84.9703
 20
-255.1183
 30
0.0
  0
SEQEND
  5
4BE
  8
LAYER_1
 62
   250
  0
POLYLINE
  5
72
  8
LAYER_1
 62
   250
 66
     1
 10
0.0
 20
0.0
 30
0.0
 70
     1
  0
VERTEX
  5
CC
  8
LAYER_1
 62
   250
 10
91.7703
 20
-255.1183
 30
0.0
  0
VERTEX
  5
CD
  8
LAYER_1
 62
   250
 10
46.8297
 20
-255.1183
 30
0.0
  0
VERTEX
  5
CE
  8
LAYER_1
 62
   250
 10
46.8297
 20
-300.1183
 30
0.0
  0
VERTEX
  5
CF
  8
LAYER_1
 62
   250
 10
91.7703
 20
-300.1183
 30
0.0
  0
VERTEX
  5
D0
  8
LAYER_1
 62
   250
 10
91.7703
 20
-315.1183
 30
0.0
  0
VERTEX
  5
D1
  8
LAYER_1
 62
   250
 10
116.7703
 20
-315.1183
 30
0.0
  0
VERTEX
  5
D2
  8
LAYER_1
 62
   250
 10
116.7703
 20
-240.1183
 30
0.0
  0
VERTEX
  5
D3
  8
LAYER_1
 62
   250
 10
91.7703
 20
-240.1183
 30
0.0
  0
VERTEX
  5
D4
  8
LAYER_1
 62
   250
 10
91.7703
 20
-255.1183
 30
0.0
  0
SEQEND
  5
4BF
  8
LAYER_1
 62
   250
  0
POLYLINE
  5
73
  8
LAYER_1
 62
   250
 66
     1
 10
0.0
 20
0.0
 30
0.0
 70
     1
  0
VERTEX
  5
D5
  8
LAYER_1
 62
   250
 10
-75.952
 20
-250.5479
 30
0.0
  0
VERTEX
  5
D6
  8
LAYER_1
 62
   250
 10
-76.2520489152608
 20
-250.5774522387399
 30
0.0
  0
VERTEX
  5
D7
  8
LAYER_1
 62
   250
 10
-76.5405671189775
 20
-250.6649732789976
 30
0.0
  0
VERTEX
  5
D8
  8
LAYER_1
 62
   250
 10
-76.80646701838414
 20
-250.8070997362787
 30
0.0
  0
VERTEX
  5
D9
  8
LAYER_1
 62
   250
 10
-77.0395302294649
 20
-250.9983697705351
 30
0.0
  0
VERTEX
  5
DA
  8
LAYER_1
 62
   250
 10
-77.2308002637213
 20
-251.2314329816159
 30
0.0
  0
VERTEX
  5
DB
  8
LAYER_1
 62
   250
 10
-77.37292672100236
 20
-251.4973328810225
 30
0.0
  0
VERTEX
  5
DC
  8
LAYER_1
 62
   250
 10
-77.46044776126017
 20
-251.7858510847392
 30
0.0
  0
VERTEX
  5
DD
  8
LAYER_1
 62
   250
 10
-77.49
 20
-252.0859
 30
0.0
  0
VERTEX
  5
DE
  8
LAYER_1
 62
   250
 10
-77.46044776126017
 20
-252.3859489152608
 30
0.0
  0
VERTEX
  5
DF
  8
LAYER_1
 62
   250
 10
-77.37292672100236
 20
-252.6744671189775
 30
0.0
  0
VERTEX
  5
E0
  8
LAYER_1
 62
   250
 10
-77.2308002637213
 20
-252.9403670183842
 30
0.0
  0
VERTEX
  5
E1
  8
LAYER_1
 62
   250
 10
-77.0395302294649
 20
-253.1734302294649
 30
0.0
  0
VERTEX
  5
E2
  8
LAYER_1
 62
   250
 10
-76.80646701838414
 20
-253.3647002637213
 30
0.0
  0
VERTEX
  5
E3
  8
LAYER_1
 62
   250
 10
-76.5405671189775
 20
-253.5068267210024
 30
0.0
  0
VERTEX
  5
E4
  8
LAYER_1
 62
   250
 10
-76.2520489152608
 20
-253.5943477612602
 30
0.0
  0
VERTEX
  5
E5
  8
LAYER_1
 62
   250
 10
-75.952
 20
-253.6239
 30
0.0
  0
VERTEX
  5
E6
  8
LAYER_1
 62
   250
 10
-75.6519510847392
 20
-253.5943477612602
 30
0.0
  0
VERTEX
  5
E7
  8
LAYER_1
 62
   250
 10
-75.36343288102249
 20
-253.5068267210024
 30
0.0
  0
VERTEX
  5
E8
  8
LAYER_1
 62
   250
 10
-75.09753298161584
 20
-253.3647002637213
 30
0.0
  0
VERTEX
  5
E9
  8
LAYER_1
 62
   250
 10
-74.86446977053508
 20
-253.1734302294649
 30
0.0
  0
VERTEX
  5
EA
  8
LAYER_1
 62
   250
 10
-74.67319973627868
 20
-252.9403670183842
 30
0.0
  0
VERTEX
  5
EB
  8
LAYER_1
 62
   250
 10
-74.53107327899764
 20
-252.6744671189775
 30
0.0
  0
VERTEX
  5
EC
  8
LAYER_1
 62
   250
 10
-74.44355223873983
 20
-252.3859489152608
 30
0.0
  0
VERTEX
  5
ED
  8
LAYER_1
 62
   250
 10
-74.414
 20
-252.0859
 30
0.0
  0
VERTEX
  5
EE
  8
LAYER_1
 62
   250
 10
-74.44355223873983
 20
-251.7858510847392
 30
0.0
  0
VERTEX
  5
EF
  8
LAYER_1
 62
   250
 10
-74.53107327899764
 20
-251.4973328810225
 30
0.0
  0
VERTEX
  5
F0
  8
LAYER_1
 62
   250
 10
-74.67319973627869
 20
-251.2314329816159
 30
0.0
  0
VERTEX
  5
F1
  8
LAYER_1
 62
   250
 10
-74.8644697705351
 20
-250.9983697705351
 30
0.0
  0
VERTEX
  5
F2
  8
LAYER_1
 62
   250
 10
-75.09753298161586
 20
-250.8070997362787
 30
0.0
  0
VERTEX
  5
F3
  8
LAYER_1
 62
   250
 10
-75.36343288102249
 20
-250.6649732789976
 30
0.0
  0
VERTEX
  5
F4
  8
LAYER_1
 62
   250
 10
-75.6519510847392
 20
-250.5774522387399
 30
0.0
  0
SEQEND
  5
4C0
  8
LAYER_1
 62
   250
  0
POLYLINE
  5
74
  8
LAYER_1
 62
   250
 66
     1
 10
0.0
 20
0.0
 30
0.0
 70
     1
  0
VERTEX
  5
F5
  8
LAYER_1
 62
   250
 10
-75.952
 20
-301.5233
 30
0.0
  0
VERTEX
  5
F6
  8
LAYER_1
 62
   250
 10
-76.2520489152608
 20
-301.5528522387398
 30
0.0
  0
VERTEX
  5
F7
  8
LAYER_1
 62
   250
 10
-76.5405671189775
 20
-301.6403732789977
 30
0.0
  0
VERTEX
  5
F8
  8
LAYER_1
 62
   250
 10
-76.80646701838414
 20
-301.7824997362787
 30
0.0
  0
VERTEX
  5
F9
  8
LAYER_1
 62
   250
 10
-77.0395302294649
 20
-301.9737697705351
 30
0.0
  0
VERTEX
  5
FA
  8
LAYER_1
 62
   250
 10
-77.2308002637213
 20
-302.2068329816159
 30
0.0
  0
VERTEX
  5
FB
  8
LAYER_1
 62
   250
 10
-77.37292672100236
 20
-302.4727328810225
 30
0.0
  0
VERTEX
  5
FC
  8
LAYER_1
 62
   250
 10
-77.46044776126017
 20
-302.7612510847392
 30
0.0
  0
VERTEX
  5
FD
  8
LAYER_1
 62
   250
 10
-77.49
 20
-303.0613
 30
0.0
  0
VERTEX
  5
FE
  8
LAYER_1
 62
   250
 10
-77.46044776126017
 20
-303.3613489152608
 30
0.0
  0
VERTEX
  5
FF
  8
LAYER_1
 62
   250
 10
-77.37292672100236
 20
-303.6498671189775
 30
0.0
  0
VERTEX
  5
100
  8
LAYER_1
 62
   250
 10
-77.2308002637213
 20
-303.9157670183841
 30
0.0
  0
VERTEX
  5
101
  8
LAYER_1
 62
   250
 10
-77.0395302294649
 20
-304.1488302294649
 30
0.0
  0
VERTEX
  5
102
  8
LAYER_1
 62
   250
 10
-76.80646701838414
 20
-304.3401002637214
 30
0.0
  0
VERTEX
  5
103
  8
LAYER_1
 62
   250
 10
-76.5405671189775
 20
-304.4822267210023
 30
0.0
  0
VERTEX
  5
104
  8
LAYER_1
 62
   250
 10
-76.2520489152608
 20
-304.5697477612602
 30
0.0
  0
VERTEX
  5
105
  8
LAYER_1
 62
   250
 10
-75.952
 20
-304.5993
 30
0.0
  0
VERTEX
  5
106
  8
LAYER_1
 62
   250
 10
-75.6519510847392
 20
-304.5697477612602
 30
0.0
  0
VERTEX
  5
107
  8
LAYER_1
 62
   250
 10
-75.36343288102249
 20
-304.4822267210023
 30
0.0
  0
VERTEX
  5
108
  8
LAYER_1
 62
   250
 10
-75.09753298161584
 20
-304.3401002637214
 30
0.0
  0
VERTEX
  5
109
  8
LAYER_1
 62
   250
 10
-74.86446977053508
 20
-304.1488302294649
 30
0.0
  0
VERTEX
  5
10A
  8
LAYER_1
 62
   250
 10
-74.67319973627868
 20
-303.9157670183841
 30
0.0
  0
VERTEX
  5
10B
  8
LAYER_1
 62
   250
 10
-74.53107327899764
 20
-303.6498671189775
 30
0.0
  0
VERTEX
  5
10C
  8
LAYER_1
 62
   250
 10
-74.44355223873983
 20
-303.3613489152608
 30
0.0
  0
VERTEX
  5
10D
  8
LAYER_1
 62
   250
 10
-74.414
 20
-303.0613
 30
0.0
  0
VERTEX
  5
10E
  8
LAYER_1
 62
   250
 10
-74.44355223873983
 20
-302.7612510847392
 30
0.0
  0
VERTEX
  5
10F
  8
LAYER_1
 62
   250
 10
-74.53107327899764
 20
-302.4727328810225
 30
0.0
  0
VERTEX
  5
110
  8
LAYER_1
 62
   250
 10
-74.67319973627869
 20
-302.2068329816159
 30
0.0
  0
VERTEX
  5
111
  8
LAYER_1
 62
   250
 10
-74.8644697705351
 20
-301.9737697705351
 30
0.0
  0
VERTEX
  5
112
  8
LAYER_1
 62
   250
 10
-75.09753298161586
 20
-301.7824997362787
 30
0.0
  0
VERTEX
  5
113
  8
LAYER_1
 62
   250
 10
-75.36343288102249
 20
-301.6403732789976
 30
0.0
  0
VERTEX
  5
114
  8
LAYER_1
 62
   250
 10
-75.6519510847392
 20
-301.5528522387398
 30
0.0
  0
SEQEND
  5
4C1
  8
LAYER_1
 62
   250
  0
POLYLINE
  5
75
  8
LAYER_1
 62
   250
 66
     1
 10
0.0
 20
0.0
 30
0.0
 70
     1
  0
VERTEX
  5
115
  8
LAYER_1
 62
   250
 10
82.812
 20
-250.5479
 30
0.0
  0
VERTEX
  5
116
  8
LAYER_1
 62
   250
 10
82.5119510847392
 20
-250.5774522387399
 30
0.0
  0
VERTEX
  5
117
  8
LAYER_1
 62
   250
 10
82.22343288102249
 20
-250.6649732789976
 30
0.0
  0
VERTEX
  5
118
  8
LAYER_1
 62
   250
 10
81.95753298161586
 20
-250.8070997362787
 30
0.0
  0
VERTEX
  5
119
  8
LAYER_1
 62
   250
 10
81.72446977053508
 20
-250.9983697705351
 30
0.0
  0
VERTEX
  5
11A
  8
LAYER_1
 62
   250
 10
81.53319973627869
 20
-251.2314329816159
 30
0.0
  0
VERTEX
  5
11B
  8
LAYER_1
 62
   250
 10
81.39107327899764
 20
-251.4973328810225
 30
0.0
  0
VERTEX
  5
11C
  8
LAYER_1
 62
   250
 10
81.30355223873983
 20
-251.7858510847392
 30
0.0
  0
VERTEX
  5
11D
  8
LAYER_1
 62
   250
 10
81.274
 20
-252.0859
 30
0.0
  0
VERTEX
  5
11E
  8
LAYER_1
 62
   250
 10
81.30355223873983
 20
-252.3859489152608
 30
0.0
  0
VERTEX
  5
11F
  8
LAYER_1
 62
   250
 10
81.39107327899764
 20
-252.6744671189775
 30
0.0
  0
VERTEX
  5
120
  8
LAYER_1
 62
   250
 10
81.53319973627869
 20
-252.9403670183842
 30
0.0
  0
VERTEX
  5
121
  8
LAYER_1
 62
   250
 10
81.72446977053508
 20
-253.1734302294649
 30
0.0
  0
VERTEX
  5
122
  8
LAYER_1
 62
   250
 10
81.95753298161586
 20
-253.3647002637213
 30
0.0
  0
VERTEX
  5
123
  8
LAYER_1
 62
   250
 10
82.22343288102249
 20
-253.5068267210024
 30
0.0
  0
VERTEX
  5
124
  8
LAYER_1
 62
   250
 10
82.5119510847392
 20
-253.5943477612602
 30
0.0
  0
VERTEX
  5
125
  8
LAYER_1
 62
   250
 10
82.812
 20
-253.6239
 30
0.0
  0
VERTEX
  5
126
  8
LAYER_1
 62
   250
 10
83.1120489152608
 20
-253.5943477612602
 30
0.0
  0
VERTEX
  5
127
  8
LAYER_1
 62
   250
 10
83.4005671189775
 20
-253.5068267210024
 30
0.0
  0
VERTEX
  5
128
  8
LAYER_1
 62
   250
 10
83.66646701838415
 20
-253.3647002637213
 30
0.0
  0
VERTEX
  5
129
  8
LAYER_1
 62
   250
 10
83.89953022946492
 20
-253.1734302294649
 30
0.0
  0
VERTEX
  5
12A
  8
LAYER_1
 62
   250
 10
84.09080026372132
 20
-252.9403670183842
 30
0.0
  0
VERTEX
  5
12B
  8
LAYER_1
 62
   250
 10
84.23292672100236
 20
-252.6744671189775
 30
0.0
  0
VERTEX
  5
12C
  8
LAYER_1
 62
   250
 10
84.32044776126017
 20
-252.3859489152608
 30
0.0
  0
VERTEX
  5
12D
  8
LAYER_1
 62
   250
 10
84.35
 20
-252.0859
 30
0.0
  0
VERTEX
  5
12E
  8
LAYER_1
 62
   250
 10
84.32044776126017
 20
-251.7858510847392
 30
0.0
  0
VERTEX
  5
12F
  8
LAYER_1
 62
   250
 10
84.23292672100236
 20
-251.4973328810225
 30
0.0
  0
VERTEX
  5
130
  8
LAYER_1
 62
   250
 10
84.0908002637213
 20
-251.2314329816159
 30
0.0
  0
VERTEX
  5
131
  8
LAYER_1
 62
   250
 10
83.8995302294649
 20
-250.9983697705351
 30
0.0
  0
VERTEX
  5
132
  8
LAYER_1
 62
   250
 10
83.66646701838414
 20
-250.8070997362787
 30
0.0
  0
VERTEX
  5
133
  8
LAYER_1
 62
   250
 10
83.4005671189775
 20
-250.6649732789976
 30
0.0
  0
VERTEX
  5
134
  8
LAYER_1
 62
   250
 10
83.1120489152608
 20
-250.5774522387399
 30
0.0
  0
SEQEND
  5
4C2
  8
LAYER_1
 62
   250
  0
POLYLINE
  5
76
  8
LAYER_1
 62
   250
 66
     1
 10
0.0
 20
0.0
 30
0.0
 70
     1
  0
VERTEX
  5
135
  8
LAYER_1
 62
   250
 10
82.812
 20
-301.5233
 30
0.0
  0
VERTEX
  5
136
  8
LAYER_1
 62
   250
 10
82.5119510847392
 20
-301.5528522387398
 30
0.0
  0
VERTEX
  5
137
  8
LAYER_1
 62
   250
 10
82.22343288102249
 20
-301.6403732789977
 30
0.0
  0
VERTEX
  5
138
  8
LAYER_1
 62
   250
 10
81.95753298161586
 20
-301.7824997362787
 30
0.0
  0
VERTEX
  5
139
  8
LAYER_1
 62
   250
 10
81.72446977053508
 20
-301.9737697705351
 30
0.0
  0
VERTEX
  5
13A
  8
LAYER_1
 62
   250
 10
81.53319973627869
 20
-302.2068329816159
 30
0.0
  0
VERTEX
  5
13B
  8
LAYER_1
 62
   250
 10
81.39107327899764
 20
-302.4727328810225
 30
0.0
  0
VERTEX
  5
13C
  8
LAYER_1
 62
   250
 10
81.30355223873983
 20
-302.7612510847392
 30
0.0
  0
VERTEX
  5
13D
  8
LAYER_1
 62
   250
 10
81.274
 20
-303.0613
 30
0.0
  0
VERTEX
  5
13E
  8
LAYER_1
 62
   250
 10
81.30355223873983
 20
-303.3613489152608
 30
0.0
  0
VERTEX
  5
13F
  8
LAYER_1
 62
   250
 10
81.39107327899764
 20
-303.6498671189775
 30
0.0
  0
VERTEX
  5
140
  8
LAYER_1
 62
   250
 10
81.53319973627869
 20
-303.9157670183841
 30
0.0
  0
VERTEX
  5
141
  8
LAYER_1
 62
   250
 10
81.72446977053508
 20
-304.1488302294649
 30
0.0
  0
VERTEX
  5
142
  8
LAYER_1
 62
   250
 10
81.95753298161586
 20
-304.3401002637214
 30
0.0
  0
VERTEX
  5
143
  8
LAYER_1
 62
   250
 10
82.22343288102249
 20
-304.4822267210023
 30
0.0
  0
VERTEX
  5
144
  8
LAYER_1
 62
   250
 10
82.5119510847392
 20
-304.5697477612602
 30
0.0
  0
VERTEX
  5
145
  8
LAYER_1
 62
   250
 10
82.812
 20
-304.5993
 30
0.0
  0
VERTEX
  5
146
  8
LAYER_1
 62
   250
 10
83.1120489152608
 20
-304.5697477612602
 30
0.0
  0
VERTEX
  5
147
  8
LAYER_1
 62
   250
 10
83.4005671189775
 20
-304.4822267210023
 30
0.0
  0
VERTEX
  5
148
  8
LAYER_1
 62
   250
 10
83.66646701838415
 20
-304.3401002637214
 30
0.0
  0
VERTEX
  5
149
  8
LAYER_1
 62
   250
 10
83.89953022946492
 20
-304.1488302294649
 30
0.0
  0
VERTEX
  5
14A
  8
LAYER_1
 62
   250
 10
84.09080026372132
 20
-303.9157670183841
 30
0.0
  0
VERTEX
  5
14B
  8
LAYER_1
 62
   250
 10
84.23292672100236
 20
-303.6498671189775
 30
0.0
  0
VERTEX
  5
14C
  8
LAYER_1
 62
   250
 10
84.32044776126017
 20
-303.3613489152608
 30
0.0
  0
VERTEX
  5
14D
  8
LAYER_1
 62
   250
 10
84.35
 20
-303.0613
 30
0.0
  0
VERTEX
  5
14E
  8
LAYER_1
 62
   250
 10
84.32044776126017
 20
-302.7612510847392
 30
0.0
  0
VERTEX
  5
14F
  8
LAYER_1
 62
   250
 10
84.23292672100236
 20
-302.4727328810225
 30
0.0
  0
VERTEX
  5
150
  8
LAYER_1
 62
   250
 10
84.0908002637213
 20
-302.2068329816159
 30
0.0
  0
VERTEX
  5
151
  8
LAYER_1
 62
   250
 10
83.8995302294649
 20
-301.9737697705351
 30
0.0
  0
VERTEX
  5
152
  8
LAYER_1
 62
   250
 10
83.66646701838414
 20
-301.7824997362787
 30
0.0
  0
VERTEX
  5
153
  8
LAYER_1
 62
   250
 10
83.4005671189775
 20
-301.6403732789976
 30
0.0
  0
VERTEX
  5
154
  8
LAYER_1
 62
   250
 10
83.1120489152608
 20
-301.5528522387398
 30
0.0
  0
SEQEND
  5
4C3
  8
LAYER_1
 62
   250
  0
POLYLINE
  5
77
  8
LAYER_1
 62
   250
 66
     1
 10
0.0
 20
0.0
 30
0.0
 70
     1
  0
VERTEX
  5
155
  8
LAYER_1
 62
   250
 10
-16.1401
 20
-364.972
 30
0.0
  0
VERTEX
  5
156
  8
LAYER_1
 62
   250
 10
-16.44014891526081
 20
-365.0015522387398
 30
0.0
  0
VERTEX
  5
157
  8
LAYER_1
 62
   250
 10
-16.72866711897751
 20
-365.0890732789977
 30
0.0
  0
VERTEX
  5
158
  8
LAYER_1
 62
   250
 10
-16.99456701838415
 20
-365.2311997362787
 30
0.0
  0
VERTEX
  5
159
  8
LAYER_1
 62
   250
 10
-17.22763022946491
 20
-365.4224697705351
 30
0.0
  0
VERTEX
  5
15A
  8
LAYER_1
 62
   250
 10
-17.41890026372132
 20
-365.6555329816159
 30
0.0
  0
VERTEX
  5
15B
  8
LAYER_1
 62
   250
 10
-17.56102672100236
 20
-365.9214328810225
 30
0.0
  0
VERTEX
  5
15C
  8
LAYER_1
 62
   250
 10
-17.64854776126017
 20
-366.2099510847392
 30
0.0
  0
VERTEX
  5
15D
  8
LAYER_1
 62
   250
 10
-17.6781
 20
-366.51
 30
0.0
  0
VERTEX
  5
15E
  8
LAYER_1
 62
   250
 10
-17.64854776126017
 20
-366.8100489152608
 30
0.0
  0
VERTEX
  5
15F
  8
LAYER_1
 62
   250
 10
-17.56102672100236
 20
-367.0985671189775
 30
0.0
  0
VERTEX
  5
160
  8
LAYER_1
 62
   250
 10
-17.41890026372132
 20
-367.3644670183841
 30
0.0
  0
VERTEX
  5
161
  8
LAYER_1
 62
   250
 10
-17.22763022946491
 20
-367.5975302294649
 30
0.0
  0
VERTEX
  5
162
  8
LAYER_1
 62
   250
 10
-16.99456701838415
 20
-367.7888002637213
 30
0.0
  0
VERTEX
  5
163
  8
LAYER_1
 62
   250
 10
-16.72866711897751
 20
-367.9309267210023
 30
0.0
  0
VERTEX
  5
164
  8
LAYER_1
 62
   250
 10
-16.44014891526081
 20
-368.0184477612602
 30
0.0
  0
VERTEX
  5
165
  8
LAYER_1
 62
   250
 10
-16.1401
 20
-368.048
 30
0.0
  0
VERTEX
  5
166
  8
LAYER_1
 62
   250
 10
-15.84005108473919
 20
-368.0184477612602
 30
0.0
  0
VERTEX
  5
167
  8
LAYER_1
 62
   250
 10
-15.55153288102249
 20
-367.9309267210023
 30
0.0
  0
VERTEX
  5
168
  8
LAYER_1
 62
   250
 10
-15.28563298161585
 20
-367.7888002637213
 30
0.0
  0
VERTEX
  5
169
  8
LAYER_1
 62
   250
 10
-15.05256977053509
 20
-367.5975302294649
 30
0.0
  0
VERTEX
  5
16A
  8
LAYER_1
 62
   250
 10
-14.86129973627868
 20
-367.3644670183841
 30
0.0
  0
VERTEX
  5
16B
  8
LAYER_1
 62
   250
 10
-14.71917327899764
 20
-367.0985671189775
 30
0.0
  0
VERTEX
  5
16C
  8
LAYER_1
 62
   250
 10
-14.63165223873983
 20
-366.8100489152608
 30
0.0
  0
VERTEX
  5
16D
  8
LAYER_1
 62
   250
 10
-14.6021
 20
-366.51
 30
0.0
  0
VERTEX
  5
16E
  8
LAYER_1
 62
   250
 10
-14.63165223873983
 20
-366.2099510847392
 30
0.0
  0
VERTEX
  5
16F
  8
LAYER_1
 62
   250
 10
-14.71917327899764
 20
-365.9214328810225
 30
0.0
  0
VERTEX
  5
170
  8
LAYER_1
 62
   250
 10
-14.86129973627869
 20
-365.6555329816159
 30
0.0
  0
VERTEX
  5
171
  8
LAYER_1
 62
   250
 10
-15.05256977053509
 20
-365.4224697705351
 30
0.0
  0
VERTEX
  5
172
  8
LAYER_1
 62
   250
 10
-15.28563298161586
 20
-365.2311997362787
 30
0.0
  0
VERTEX
  5
173
  8
LAYER_1
 62
   250
 10
-15.5515328810225
 20
-365.0890732789976
 30
0.0
  0
VERTEX
  5
174
  8
LAYER_1
 62
   250
 10
-15.8400510847392
 20
-365.0015522387398
 30
0.0
  0
SEQEND
  5
4C4
  8
LAYER_1
 62
   250
  0
POLYLINE
  5
78
  8
LAYER_1
 62
   250
 66
     1
 10
0.0
 20
0.0
 30
0.0
 70
     1
  0
VERTEX
  5
175
  8
LAYER_1
 62
   250
 10
22.8599
 20
-364.972
 30
0.0
  0
VERTEX
  5
176
  8
LAYER_1
 62
   250
 10
22.55985108473919
 20
-365.0015522387398
 30
0.0
  0
VERTEX
  5
177
  8
LAYER_1
 62
   250
 10
22.27133288102249
 20
-365.0890732789977
 30
0.0
  0
VERTEX
  5
178
  8
LAYER_1
 62
   250
 10
22.00543298161585
 20
-365.2311997362787
 30
0.0
  0
VERTEX
  5
179
  8
LAYER_1
 62
   250
 10
21.77236977053509
 20
-365.4224697705351
 30
0.0
  0
VERTEX
  5
17A
  8
LAYER_1
 62
   250
 10
21.58109973627868
 20
-365.6555329816159
 30
0.0
  0
VERTEX
  5
17B
  8
LAYER_1
 62
   250
 10
21.43897327899764
 20
-365.9214328810225
 30
0.0
  0
VERTEX
  5
17C
  8
LAYER_1
 62
   250
 10
21.35145223873983
 20
-366.2099510847392
 30
0.0
  0
VERTEX
  5
17D
  8
LAYER_1
 62
   250
 10
21.3219
 20
-366.51
 30
0.0
  0
VERTEX
  5
17E
  8
LAYER_1
 62
   250
 10
21.35145223873983
 20
-366.8100489152608
 30
0.0
  0
VERTEX
  5
17F
  8
LAYER_1
 62
   250
 10
21.43897327899764
 20
-367.0985671189775
 30
0.0
  0
VERTEX
  5
180
  8
LAYER_1
 62
   250
 10
21.58109973627868
 20
-367.3644670183841
 30
0.0
  0
VERTEX
  5
181
  8
LAYER_1
 62
   250
 10
21.77236977053509
 20
-367.5975302294649
 30
0.0
  0
VERTEX
  5
182
  8
LAYER_1
 62
   250
 10
22.00543298161585
 20
-367.7888002637213
 30
0.0
  0
VERTEX
  5
183
  8
LAYER_1
 62
   250
 10
22.27133288102249
 20
-367.9309267210023
 30
0.0
  0
VERTEX
  5
184
  8
LAYER_1
 62
   250
 10
22.55985108473919
 20
-368.0184477612602
 30
0.0
  0
VERTEX
  5
185
  8
LAYER_1
 62
   250
 10
22.8599
 20
-368.048
 30
0.0
  0
VERTEX
  5
186
  8
LAYER_1
 62
   250
 10
23.15994891526081
 20
-368.0184477612602
 30
0.0
  0
VERTEX
  5
187
  8
LAYER_1
 62
   250
 10
23.44846711897751
 20
-367.9309267210023
 30
0.0
  0
VERTEX
  5
188
  8
LAYER_1
 62
   250
 10
23.71436701838415
 20
-367.7888002637213
 30
0.0
  0
VERTEX
  5
189
  8
LAYER_1
 62
   250
 10
23.94743022946491
 20
-367.5975302294649
 30
0.0
  0
VERTEX
  5
18A
  8
LAYER_1
 62
   250
 10
24.13870026372132
 20
-367.3644670183841
 30
0.0
  0
VERTEX
  5
18B
  8
LAYER_1
 62
   250
 10
24.28082672100236
 20
-367.0985671189775
 30
0.0
  0
VERTEX
  5
18C
  8
LAYER_1
 62
   250
 10
24.36834776126017
 20
-366.8100489152608
 30
0.0
  0
VERTEX
  5
18D
  8
LAYER_1
 62
   250
 10
24.3979
 20
-366.51
 30
0.0
  0
VERTEX
  5
18E
  8
LAYER_1
 62
   250
 10
24.36834776126017
 20
-366.2099510847392
 30
0.0
  0
VERTEX
  5
18F
  8
LAYER_1
 62
   250
 10
24.28082672100236
 20
-365.9214328810225
 30
0.0
  0
VERTEX
  5
190
  8
LAYER_1
 62
   250
 10
24.13870026372131
 20
-365.6555329816159
 30
0.0
  0
VERTEX
  5
191
  8
LAYER_1
 62
   250
 10
23.94743022946491
 20
-365.4224697705351
 30
0.0
  0
VERTEX
  5
192
  8
LAYER_1
 62
   250
 10
23.71436701838415
 20
-365.2311997362787
 30
0.0
  0
VERTEX
  5
193
  8
LAYER_1
 62
   250
 10
23.4484671189775
 20
-365.0890732789976
 30
0.0
  0
VERTEX
  5
194
  8
LAYER_1
 62
   250
 10
23.1599489152608
 20
-365.0015522387398
 30
0.0
  0
SEQEND
  5
4C5
  8
LAYER_1
 62
   250
  0
POLYLINE
  5
79
  8
LAYER_1
 62
   250
 66
     1
 10
0.0
 20
0.0
 30
0.0
 70
     1
  0
VERTEX
  5
195
  8
LAYER_1
 62
   250
 10
3.3599
 20
-350.51
 30
0.0
  0
VERTEX
  5
196
  8
LAYER_1
 62
   250
 10
0.2384548477419481
 20
-350.8174355135483
 30
0.0
  0
VERTEX
  5
197
  8
LAYER_1
 62
   250
 10
-2.763034917841436
 20
-351.7279274798194
 30
0.0
  0
VERTEX
  5
198
  8
LAYER_1
 62
   250
 10
-5.529223728313635
 20
-353.2064862031593
 30
0.0
  0
VERTEX
  5
199
  8
LAYER_1
 62
   250
 10
-7.953808498984761
 20
-355.1962915010153
 30
0.0
  0
VERTEX
  5
19A
  8
LAYER_1
 62
   250
 10
-9.943613796840724
 20
-357.6208762716864
 30
0.0
  0
VERTEX
  5
19B
  8
LAYER_1
 62
   250
 10
-11.42217252018059
 20
-360.3870650821585
 30
0.0
  0
VERTEX
  5
19C
  8
LAYER_1
 62
   250
 10
-12.33266448645169
 20
-363.3885548477419
 30
0.0
  0
VERTEX
  5
19D
  8
LAYER_1
 62
   250
 10
-12.6401
 20
-366.51
 30
0.0
  0
VERTEX
  5
19E
  8
LAYER_1
 62
   250
 10
-12.33266448645169
 20
-369.631445152258
 30
0.0
  0
VERTEX
  5
19F
  8
LAYER_1
 62
   250
 10
-11.42217252018059
 20
-372.6329349178415
 30
0.0
  0
VERTEX
  5
1A0
  8
LAYER_1
 62
   250
 10
-9.943613796840726
 20
-375.3991237283136
 30
0.0
  0
VERTEX
  5
1A1
  8
LAYER_1
 62
   250
 10
-7.953808498984761
 20
-377.8237084989847
 30
0.0
  0
VERTEX
  5
1A2
  8
LAYER_1
 62
   250
 10
-5.529223728313635
 20
-379.8135137968407
 30
0.0
  0
VERTEX
  5
1A3
  8
LAYER_1
 62
   250
 10
-2.763034917841431
 20
-381.2920725201806
 30
0.0
  0
VERTEX
  5
1A4
  8
LAYER_1
 62
   250
 10
0.2384548477419566
 20
-382.2025644864517
 30
0.0
  0
VERTEX
  5
1A5
  8
LAYER_1
 62
   250
 10
3.359900000000013
 20
-382.51
 30
0.0
  0
VERTEX
  5
1A6
  8
LAYER_1
 62
   250
 10
6.481345152258068
 20
-382.2025644864516
 30
0.0
  0
VERTEX
  5
1A7
  8
LAYER_1
 62
   250
 10
9.482834917841455
 20
-381.2920725201806
 30
0.0
  0
VERTEX
  5
1A8
  8
LAYER_1
 62
   250
 10
12.24902372831365
 20
-379.8135137968407
 30
0.0
  0
VERTEX
  5
1A9
  8
LAYER_1
 62
   250
 10
14.67360849898478
 20
-377.8237084989847
 30
0.0
  0
VERTEX
  5
1AA
  8
LAYER_1
 62
   250
 10
16.66341379684074
 20
-375.3991237283136
 30
0.0
  0
VERTEX
  5
1AB
  8
LAYER_1
 62
   250
 10
18.1419725201806
 20
-372.6329349178414
 30
0.0
  0
VERTEX
  5
1AC
  8
LAYER_1
 62
   250
 10
19.05246448645169
 20
-369.631445152258
 30
0.0
  0
VERTEX
  5
1AD
  8
LAYER_1
 62
   250
 10
19.3599
 20
-366.5099999999999
 30
0.0
  0
VERTEX
  5
1AE
  8
LAYER_1
 62
   250
 10
19.05246448645168
 20
-363.3885548477419
 30
0.0
  0
VERTEX
  5
1AF
  8
LAYER_1
 62
   250
 10
18.14197252018057
 20
-360.3870650821585
 30
0.0
  0
VERTEX
  5
1B0
  8
LAYER_1
 62
   250
 10
16.6634137968407
 20
-357.6208762716863
 30
0.0
  0
VERTEX
  5
1B1
  8
LAYER_1
 62
   250
 10
14.67360849898472
 20
-355.1962915010152
 30
0.0
  0
VERTEX
  5
1B2
  8
LAYER_1
 62
   250
 10
12.24902372831359
 20
-353.2064862031592
 30
0.0
  0
VERTEX
  5
1B3
  8
LAYER_1
 62
   250
 10
9.48283491784138
 20
-351.7279274798194
 30
0.0
  0
VERTEX
  5
1B4
  8
LAYER_1
 62
   250
 10
6.48134515225799
 20
-350.8174355135483
 30
0.0
  0
SEQEND
  5
4C6
  8
LAYER_1
 62
   250
  0
POLYLINE
  5
7A
  8
LAYER_1
 62
   250
 66
     1
 10
0.0
 20
0.0
 30
0.0
 70
     1
  0
VERTEX
  5
1B5
  8
LAYER_1
 62
   250
 10
-32.1152
 20
-350.4977
 30
0.0
  0
VERTEX
  5
1B6
  8
LAYER_1
 62
   250
 10
-32.0847
 20
-350.1954
 30
0.0
  0
VERTEX
  5
1B7
  8
LAYER_1
 62
   250
 10
-31.9973
 20
-349.9138
 30
0.0
  0
VERTEX
  5
1B8
  8
LAYER_1
 62
   250
 10
-31.859
 20
-349.659
 30
0.0
  0
VERTEX
  5
1B9
  8
LAYER_1
 62
   250
 10
-31.6759
 20
-349.4371
 30
0.0
  0
VERTEX
  5
1BA
  8
LAYER_1
 62
   250
 10
-31.4539
 20
-349.2539
 30
0.0
  0
VERTEX
  5
1BB
  8
LAYER_1
 62
   250
 10
-31.1991
 20
-349.1156
 30
0.0
  0
VERTEX
  5
1BC
  8
LAYER_1
 62
   250
 10
-30.9175
 20
-349.0282
 30
0.0
  0
VERTEX
  5
1BD
  8
LAYER_1
 62
   250
 10
-30.6152
 20
-348.9977
 30
0.0
  0
VERTEX
  5
1BE
  8
LAYER_1
 62
   250
 10
-30.3129
 20
-349.0282
 30
0.0
  0
VERTEX
  5
1BF
  8
LAYER_1
 62
   250
 10
-30.0313
 20
-349.1156
 30
0.0
  0
VERTEX
  5
1C0
  8
LAYER_1
 62
   250
 10
-29.7765
 20
-349.2539
 30
0.0
  0
VERTEX
  5
1C1
  8
LAYER_1
 62
   250
 10
-29.5546
 20
-349.4371
 30
0.0
  0
VERTEX
  5
1C2
  8
LAYER_1
 62
   250
 10
-29.3714
 20
-349.659
 30
0.0
  0
VERTEX
  5
1C3
  8
LAYER_1
 62
   250
 10
-29.2331
 20
-349.9138
 30
0.0
  0
VERTEX
  5
1C4
  8
LAYER_1
 62
   250
 10
-29.1457
 20
-350.1954
 30
0.0
  0
VERTEX
  5
1C5
  8
LAYER_1
 62
   250
 10
-29.1152
 20
-350.4977
 30
0.0
  0
VERTEX
  5
1C6
  8
LAYER_1
 62
   250
 10
-29.1457
 20
-350.8
 30
0.0
  0
VERTEX
  5
1C7
  8
LAYER_1
 62
   250
 10
-29.2331
 20
-351.0816
 30
0.0
  0
VERTEX
  5
1C8
  8
LAYER_1
 62
   250
 10
-29.3714
 20
-351.3364
 30
0.0
  0
VERTEX
  5
1C9
  8
LAYER_1
 62
   250
 10
-29.5546
 20
-351.5584
 30
0.0
  0
VERTEX
  5
1CA
  8
LAYER_1
 62
   250
 10
-29.7765
 20
-351.7415
 30
0.0
  0
VERTEX
  5
1CB
  8
LAYER_1
 62
   250
 10
-30.0313
 20
-351.8798
 30
0.0
  0
VERTEX
  5
1CC
  8
LAYER_1
 62
   250
 10
-30.3129
 20
-351.9672
 30
0.0
  0
VERTEX
  5
1CD
  8
LAYER_1
 62
   250
 10
-30.6152
 20
-351.9977
 30
0.0
  0
VERTEX
  5
1CE
  8
LAYER_1
 62
   250
 10
-30.9175
 20
-351.9672
 30
0.0
  0
VERTEX
  5
1CF
  8
LAYER_1
 62
   250
 10
-31.1991
 20
-351.8798
 30
0.0
  0
VERTEX
  5
1D0
  8
LAYER_1
 62
   250
 10
-31.4539
 20
-351.7415
 30
0.0
  0
VERTEX
  5
1D1
  8
LAYER_1
 62
   250
 10
-31.6759
 20
-351.5584
 30
0.0
  0
VERTEX
  5
1D2
  8
LAYER_1
 62
   250
 10
-31.859
 20
-351.3364
 30
0.0
  0
VERTEX
  5
1D3
  8
LAYER_1
 62
   250
 10
-31.9973
 20
-351.0816
 30
0.0
  0
VERTEX
  5
1D4
  8
LAYER_1
 62
   250
 10
-32.0847
 20
-350.8
 30
0.0
  0
VERTEX
  5
1D5
  8
LAYER_1
 62
   250
 10
-32.1152
 20
-350.4977
 30
0.0
  0
SEQEND
  5
4C7
  8
LAYER_1
 62
   250
  0
POLYLINE
  5
7B
  8
LAYER_1
 62
   250
 66
     1
 10
0.0
 20
0.0
 30
0.0
 70
     1
  0
VERTEX
  5
1D6
  8
LAYER_1
 62
   250
 10
-32.1152
 20
-308.4977
 30
0.0
  0
VERTEX
  5
1D7
  8
LAYER_1
 62
   250
 10
-32.0847
 20
-308.1954
 30
0.0
  0
VERTEX
  5
1D8
  8
LAYER_1
 62
   250
 10
-31.9973
 20
-307.9138
 30
0.0
  0
VERTEX
  5
1D9
  8
LAYER_1
 62
   250
 10
-31.859
 20
-307.659
 30
0.0
  0
VERTEX
  5
1DA
  8
LAYER_1
 62
   250
 10
-31.6759
 20
-307.4371
 30
0.0
  0
VERTEX
  5
1DB
  8
LAYER_1
 62
   250
 10
-31.4539
 20
-307.2539
 30
0.0
  0
VERTEX
  5
1DC
  8
LAYER_1
 62
   250
 10
-31.1991
 20
-307.1156
 30
0.0
  0
VERTEX
  5
1DD
  8
LAYER_1
 62
   250
 10
-30.9175
 20
-307.0282
 30
0.0
  0
VERTEX
  5
1DE
  8
LAYER_1
 62
   250
 10
-30.6152
 20
-306.9977
 30
0.0
  0
VERTEX
  5
1DF
  8
LAYER_1
 62
   250
 10
-30.3129
 20
-307.0282
 30
0.0
  0
VERTEX
  5
1E0
  8
LAYER_1
 62
   250
 10
-30.0313
 20
-307.1156
 30
0.0
  0
VERTEX
  5
1E1
  8
LAYER_1
 62
   250
 10
-29.7765
 20
-307.2539
 30
0.0
  0
VERTEX
  5
1E2
  8
LAYER_1
 62
   250
 10
-29.5546
 20
-307.4371
 30
0.0
  0
VERTEX
  5
1E3
  8
LAYER_1
 62
   250
 10
-29.3714
 20
-307.659
 30
0.0
  0
VERTEX
  5
1E4
  8
LAYER_1
 62
   250
 10
-29.2331
 20
-307.9138
 30
0.0
  0
VERTEX
  5
1E5
  8
LAYER_1
 62
   250
 10
-29.1457
 20
-308.1954
 30
0.0
  0
VERTEX
  5
1E6
  8
LAYER_1
 62
   250
 10
-29.1152
 20
-308.4977
 30
0.0
  0
VERTEX
  5
1E7
  8
LAYER_1
 62
   250
 10
-29.1457
 20
-308.8
 30
0.0
  0
VERTEX
  5
1E8
  8
LAYER_1
 62
   250
 10
-29.2331
 20
-309.0816
 30
0.0
  0
VERTEX
  5
1E9
  8
LAYER_1
 62
   250
 10
-29.3714
 20
-309.3364
 30
0.0
  0
VERTEX
  5
1EA
  8
LAYER_1
 62
   250
 10
-29.5546
 20
-309.5584
 30
0.0
  0
VERTEX
  5
1EB
  8
LAYER_1
 62
   250
 10
-29.7765
 20
-309.7415
 30
0.0
  0
VERTEX
  5
1EC
  8
LAYER_1
 62
   250
 10
-30.0313
 20
-309.8798
 30
0.0
  0
VERTEX
  5
1ED
  8
LAYER_1
 62
   250
 10
-30.3129
 20
-309.9672
 30
0.0
  0
VERTEX
  5
1EE
  8
LAYER_1
 62
   250
 10
-30.6152
 20
-309.9977
 30
0.0
  0
VERTEX
  5
1EF
  8
LAYER_1
 62
   250
 10
-30.9175
 20
-309.9672
 30
0.0
  0
VERTEX
  5
1F0
  8
LAYER_1
 62
   250
 10
-31.1991
 20
-309.8798
 30
0.0
  0
VERTEX
  5
1F1
  8
LAYER_1
 62
   250
 10
-31.4539
 20
-309.7415
 30
0.0
  0
VERTEX
  5
1F2
  8
LAYER_1
 62
   250
 10
-31.6759
 20
-309.5584
 30
0.0
  0
VERTEX
  5
1F3
  8
LAYER_1
 62
   250
 10
-31.859
 20
-309.3364
 30
0.0
  0
VERTEX
  5
1F4
  8
LAYER_1
 62
   250
 10
-31.9973
 20
-309.0816
 30
0.0
  0
VERTEX
  5
1F5
  8
LAYER_1
 62
   250
 10
-32.0847
 20
-308.8
 30
0.0
  0
VERTEX
  5
1F6
  8
LAYER_1
 62
   250
 10
-32.1152
 20
-308.4977
 30
0.0
  0
SEQEND
  5
4C8
  8
LAYER_1
 62
   250
  0
POLYLINE
  5
7C
  8
LAYER_1
 62
   250
 66
     1
 10
0.0
 20
0.0
 30
0.0
 70
     1
  0
VERTEX
  5
1F7
  8
LAYER_1
 62
   250
 10
23.8845
 20
-350.4977
 30
0.0
  0
VERTEX
  5
1F8
  8
LAYER_1
 62
   250
 10
23.915
 20
-350.1954
 30
0.0
  0
VERTEX
  5
1F9
  8
LAYER_1
 62
   250
 10
24.0024
 20
-349.9138
 30
0.0
  0
VERTEX
  5
1FA
  8
LAYER_1
 62
   250
 10
24.1407
 20
-349.659
 30
0.0
  0
VERTEX
  5
1FB
  8
LAYER_1
 62
   250
 10
24.3239
 20
-349.4371
 30
0.0
  0
VERTEX
  5
1FC
  8
LAYER_1
 62
   250
 10
24.5458
 20
-349.2539
 30
0.0
  0
VERTEX
  5
1FD
  8
LAYER_1
 62
   250
 10
24.8006
 20
-349.1156
 30
0.0
  0
VERTEX
  5
1FE
  8
LAYER_1
 62
   250
 10
25.0822
 20
-349.0282
 30
0.0
  0
VERTEX
  5
1FF
  8
LAYER_1
 62
   250
 10
25.3845
 20
-348.9977
 30
0.0
  0
VERTEX
  5
200
  8
LAYER_1
 62
   250
 10
25.6868
 20
-349.0282
 30
0.0
  0
VERTEX
  5
201
  8
LAYER_1
 62
   250
 10
25.9684
 20
-349.1156
 30
0.0
  0
VERTEX
  5
202
  8
LAYER_1
 62
   250
 10
26.2232
 20
-349.2539
 30
0.0
  0
VERTEX
  5
203
  8
LAYER_1
 62
   250
 10
26.4452
 20
-349.4371
 30
0.0
  0
VERTEX
  5
204
  8
LAYER_1
 62
   250
 10
26.6283
 20
-349.659
 30
0.0
  0
VERTEX
  5
205
  8
LAYER_1
 62
   250
 10
26.7666
 20
-349.9138
 30
0.0
  0
VERTEX
  5
206
  8
LAYER_1
 62
   250
 10
26.854
 20
-350.1954
 30
0.0
  0
VERTEX
  5
207
  8
LAYER_1
 62
   250
 10
26.8845
 20
-350.4977
 30
0.0
  0
VERTEX
  5
208
  8
LAYER_1
 62
   250
 10
26.854
 20
-350.8
 30
0.0
  0
VERTEX
  5
209
  8
LAYER_1
 62
   250
 10
26.7666
 20
-351.0816
 30
0.0
  0
VERTEX
  5
20A
  8
LAYER_1
 62
   250
 10
26.6283
 20
-351.3364
 30
0.0
  0
VERTEX
  5
20B
  8
LAYER_1
 62
   250
 10
26.4452
 20
-351.5584
 30
0.0
  0
VERTEX
  5
20C
  8
LAYER_1
 62
   250
 10
26.2232
 20
-351.7415
 30
0.0
  0
VERTEX
  5
20D
  8
LAYER_1
 62
   250
 10
25.9684
 20
-351.8798
 30
0.0
  0
VERTEX
  5
20E
  8
LAYER_1
 62
   250
 10
25.6868
 20
-351.9672
 30
0.0
  0
VERTEX
  5
20F
  8
LAYER_1
 62
   250
 10
25.3845
 20
-351.9977
 30
0.0
  0
VERTEX
  5
210
  8
LAYER_1
 62
   250
 10
25.0822
 20
-351.9672
 30
0.0
  0
VERTEX
  5
211
  8
LAYER_1
 62
   250
 10
24.8006
 20
-351.8798
 30
0.0
  0
VERTEX
  5
212
  8
LAYER_1
 62
   250
 10
24.5458
 20
-351.7415
 30
0.0
  0
VERTEX
  5
213
  8
LAYER_1
 62
   250
 10
24.3239
 20
-351.5584
 30
0.0
  0
VERTEX
  5
214
  8
LAYER_1
 62
   250
 10
24.1407
 20
-351.3364
 30
0.0
  0
VERTEX
  5
215
  8
LAYER_1
 62
   250
 10
24.0024
 20
-351.0816
 30
0.0
  0
VERTEX
  5
216
  8
LAYER_1
 62
   250
 10
23.915
 20
-350.8
 30
0.0
  0
VERTEX
  5
217
  8
LAYER_1
 62
   250
 10
23.8845
 20
-350.4977
 30
0.0
  0
SEQEND
  5
4C9
  8
LAYER_1
 62
   250
  0
POLYLINE
  5
7D
  8
LAYER_1
 62
   250
 66
     1
 10
0.0
 20
0.0
 30
0.0
 70
     1
  0
VERTEX
  5
218
  8
LAYER_1
 62
   250
 10
23.8845
 20
-308.4977
 30
0.0
  0
VERTEX
  5
219
  8
LAYER_1
 62
   250
 10
23.915
 20
-308.1954
 30
0.0
  0
VERTEX
  5
21A
  8
LAYER_1
 62
   250
 10
24.0024
 20
-307.9138
 30
0.0
  0
VERTEX
  5
21B
  8
LAYER_1
 62
   250
 10
24.1407
 20
-307.659
 30
0.0
  0
VERTEX
  5
21C
  8
LAYER_1
 62
   250
 10
24.3239
 20
-307.4371
 30
0.0
  0
VERTEX
  5
21D
  8
LAYER_1
 62
   250
 10
24.5458
 20
-307.2539
 30
0.0
  0
VERTEX
  5
21E
  8
LAYER_1
 62
   250
 10
24.8006
 20
-307.1156
 30
0.0
  0
VERTEX
  5
21F
  8
LAYER_1
 62
   250
 10
25.0822
 20
-307.0282
 30
0.0
  0
VERTEX
  5
220
  8
LAYER_1
 62
   250
 10
25.3845
 20
-306.9977
 30
0.0
  0
VERTEX
  5
221
  8
LAYER_1
 62
   250
 10
25.6868
 20
-307.0282
 30
0.0
  0
VERTEX
  5
222
  8
LAYER_1
 62
   250
 10
25.9684
 20
-307.1156
 30
0.0
  0
VERTEX
  5
223
  8
LAYER_1
 62
   250
 10
26.2232
 20
-307.2539
 30
0.0
  0
VERTEX
  5
224
  8
LAYER_1
 62
   250
 10
26.4452
 20
-307.4371
 30
0.0
  0
VERTEX
  5
225
  8
LAYER_1
 62
   250
 10
26.6283
 20
-307.659
 30
0.0
  0
VERTEX
  5
226
  8
LAYER_1
 62
   250
 10
26.7666
 20
-307.9138
 30
0.0
  0
VERTEX
  5
227
  8
LAYER_1
 62
   250
 10
26.854
 20
-308.1954
 30
0.0
  0
VERTEX
  5
228
  8
LAYER_1
 62
   250
 10
26.8845
 20
-308.4977
 30
0.0
  0
VERTEX
  5
229
  8
LAYER_1
 62
   250
 10
26.854
 20
-308.8
 30
0.0
  0
VERTEX
  5
22A
  8
LAYER_1
 62
   250
 10
26.7666
 20
-309.0816
 30
0.0
  0
VERTEX
  5
22B
  8
LAYER_1
 62
   250
 10
26.6283
 20
-309.3364
 30
0.0
  0
VERTEX
  5
22C
  8
LAYER_1
 62
   250
 10
26.4452
 20
-309.5584
 30
0.0
  0
VERTEX
  5
22D
  8
LAYER_1
 62
   250
 10
26.2232
 20
-309.7415
 30
0.0
  0
VERTEX
  5
22E
  8
LAYER_1
 62
   250
 10
25.9684
 20
-309.8798
 30
0.0
  0
VERTEX
  5
22F
  8
LAYER_1
 62
   250
 10
25.6868
 20
-309.9672
 30
0.0
  0
VERTEX
  5
230
  8
LAYER_1
 62
   250
 10
25.3845
 20
-309.9977
 30
0.0
  0
VERTEX
  5
231
  8
LAYER_1
 62
   250
 10
25.0822
 20
-309.9672
 30
0.0
  0
VERTEX
  5
232
  8
LAYER_1
 62
   250
 10
24.8006
 20
-309.8798
 30
0.0
  0
VERTEX
  5
233
  8
LAYER_1
 62
   250
 10
24.5458
 20
-309.7415
 30
0.0
  0
VERTEX
  5
234
  8
LAYER_1
 62
   250
 10
24.3239
 20
-309.5584
 30
0.0
  0
VERTEX
  5
235
  8
LAYER_1
 62
   250
 10
24.1407
 20
-309.3364
 30
0.0
  0
VERTEX
  5
236
  8
LAYER_1
 62
   250
 10
24.0024
 20
-309.0816
 30
0.0
  0
VERTEX
  5
237
  8
LAYER_1
 62
   250
 10
23.915
 20
-308.8
 30
0.0
  0
VERTEX
  5
238
  8
LAYER_1
 62
   250
 10
23.8845
 20
-308.4977
 30
0.0
  0
SEQEND
  5
4CA
  8
LAYER_1
 62
   250
  0
POLYLINE
  5
7E
  8
LAYER_1
  6
NEW_LINE1
 62
    20
 66
     1
 10
0.0
 20
0.0
 30
0.0
 70
     1
  0
VERTEX
  5
239
  8
LAYER_1
  6
NEW_LINE1
 62
    20
 10
-34.2153
 20
-353.4977
 30
0.0
  0
VERTEX
  5
23A
  8
LAYER_1
  6
NEW_LINE1
 62
    20
 10
-34.2153
 20
-305.4977
 30
0.0
  0
VERTEX
  5
23B
  8
LAYER_1
  6
NEW_LINE1
 62
    20
 10
39.7847
 20
-305.4977
 30
0.0
  0
VERTEX
  5
23C
  8
LAYER_1
  6
NEW_LINE1
 62
    20
 10
39.7847
 20
-353.4977
 30
0.0
  0
VERTEX
  5
23D
  8
LAYER_1
  6
NEW_LINE1
 62
    20
 10
-34.2153
 20
-353.4977
 30
0.0
  0
SEQEND
  5
4CB
  8
LAYER_1
  6
NEW_LINE1
 62
    20
  0
POLYLINE
  5
80
  8
LAYER_1
 62
   250
 66
     1
 10
0.0
 20
0.0
 30
0.0
 70
     1
  0
VERTEX
  5
23E
  8
LAYER_1
 62
   250
 10
37.6846
 20
-300.4981
 30
0.0
  0
VERTEX
  5
23F
  8
LAYER_1
 62
   250
 10
37.6541
 20
-300.1958
 30
0.0
  0
VERTEX
  5
240
  8
LAYER_1
 62
   250
 10
37.5667
 20
-299.9142
 30
0.0
  0
VERTEX
  5
241
  8
LAYER_1
 62
   250
 10
37.4284
 20
-299.6594
 30
0.0
  0
VERTEX
  5
242
  8
LAYER_1
 62
   250
 10
37.2453
 20
-299.4375
 30
0.0
  0
VERTEX
  5
243
  8
LAYER_1
 62
   250
 10
37.0233
 20
-299.2543
 30
0.0
  0
VERTEX
  5
244
  8
LAYER_1
 62
   250
 10
36.7685
 20
-299.116
 30
0.0
  0
VERTEX
  5
245
  8
LAYER_1
 62
   250
 10
36.4869
 20
-299.0286
 30
0.0
  0
VERTEX
  5
246
  8
LAYER_1
 62
   250
 10
36.1846
 20
-298.9981
 30
0.0
  0
VERTEX
  5
247
  8
LAYER_1
 62
   250
 10
35.8823
 20
-299.0286
 30
0.0
  0
VERTEX
  5
248
  8
LAYER_1
 62
   250
 10
35.6007
 20
-299.116
 30
0.0
  0
VERTEX
  5
249
  8
LAYER_1
 62
   250
 10
35.3459
 20
-299.2543
 30
0.0
  0
VERTEX
  5
24A
  8
LAYER_1
 62
   250
 10
35.124
 20
-299.4375
 30
0.0
  0
VERTEX
  5
24B
  8
LAYER_1
 62
   250
 10
34.9408
 20
-299.6594
 30
0.0
  0
VERTEX
  5
24C
  8
LAYER_1
 62
   250
 10
34.8025
 20
-299.9142
 30
0.0
  0
VERTEX
  5
24D
  8
LAYER_1
 62
   250
 10
34.7151
 20
-300.1958
 30
0.0
  0
VERTEX
  5
24E
  8
LAYER_1
 62
   250
 10
34.6846
 20
-300.4981
 30
0.0
  0
VERTEX
  5
24F
  8
LAYER_1
 62
   250
 10
34.7151
 20
-300.8004
 30
0.0
  0
VERTEX
  5
250
  8
LAYER_1
 62
   250
 10
34.8025
 20
-301.082
 30
0.0
  0
VERTEX
  5
251
  8
LAYER_1
 62
   250
 10
34.9408
 20
-301.3368
 30
0.0
  0
VERTEX
  5
252
  8
LAYER_1
 62
   250
 10
35.124
 20
-301.5588
 30
0.0
  0
VERTEX
  5
253
  8
LAYER_1
 62
   250
 10
35.3459
 20
-301.7419
 30
0.0
  0
VERTEX
  5
254
  8
LAYER_1
 62
   250
 10
35.6007
 20
-301.8802
 30
0.0
  0
VERTEX
  5
255
  8
LAYER_1
 62
   250
 10
35.8823
 20
-301.9676
 30
0.0
  0
VERTEX
  5
256
  8
LAYER_1
 62
   250
 10
36.1846
 20
-301.9981
 30
0.0
  0
VERTEX
  5
257
  8
LAYER_1
 62
   250
 10
36.4869
 20
-301.9676
 30
0.0
  0
VERTEX
  5
258
  8
LAYER_1
 62
   250
 10
36.7685
 20
-301.8802
 30
0.0
  0
VERTEX
  5
259
  8
LAYER_1
 62
   250
 10
37.0233
 20
-301.7419
 30
0.0
  0
VERTEX
  5
25A
  8
LAYER_1
 62
   250
 10
37.2453
 20
-301.5588
 30
0.0
  0
VERTEX
  5
25B
  8
LAYER_1
 62
   250
 10
37.4284
 20
-301.3368
 30
0.0
  0
VERTEX
  5
25C
  8
LAYER_1
 62
   250
 10
37.5667
 20
-301.082
 30
0.0
  0
VERTEX
  5
25D
  8
LAYER_1
 62
   250
 10
37.6541
 20
-300.8004
 30
0.0
  0
VERTEX
  5
25E
  8
LAYER_1
 62
   250
 10
37.6846
 20
-300.4981
 30
0.0
  0
SEQEND
  5
4CC
  8
LAYER_1
 62
   250
  0
POLYLINE
  5
81
  8
LAYER_1
 62
   250
 66
     1
 10
0.0
 20
0.0
 30
0.0
 70
     1
  0
VERTEX
  5
25F
  8
LAYER_1
 62
   250
 10
37.6846
 20
-258.4981
 30
0.0
  0
VERTEX
  5
260
  8
LAYER_1
 62
   250
 10
37.6541
 20
-258.1958
 30
0.0
  0
VERTEX
  5
261
  8
LAYER_1
 62
   250
 10
37.5667
 20
-257.9142
 30
0.0
  0
VERTEX
  5
262
  8
LAYER_1
 62
   250
 10
37.4284
 20
-257.6594
 30
0.0
  0
VERTEX
  5
263
  8
LAYER_1
 62
   250
 10
37.2453
 20
-257.4375
 30
0.0
  0
VERTEX
  5
264
  8
LAYER_1
 62
   250
 10
37.0233
 20
-257.2543
 30
0.0
  0
VERTEX
  5
265
  8
LAYER_1
 62
   250
 10
36.7685
 20
-257.116
 30
0.0
  0
VERTEX
  5
266
  8
LAYER_1
 62
   250
 10
36.4869
 20
-257.0286
 30
0.0
  0
VERTEX
  5
267
  8
LAYER_1
 62
   250
 10
36.1846
 20
-256.9981
 30
0.0
  0
VERTEX
  5
268
  8
LAYER_1
 62
   250
 10
35.8823
 20
-257.0286
 30
0.0
  0
VERTEX
  5
269
  8
LAYER_1
 62
   250
 10
35.6007
 20
-257.116
 30
0.0
  0
VERTEX
  5
26A
  8
LAYER_1
 62
   250
 10
35.3459
 20
-257.2543
 30
0.0
  0
VERTEX
  5
26B
  8
LAYER_1
 62
   250
 10
35.124
 20
-257.4375
 30
0.0
  0
VERTEX
  5
26C
  8
LAYER_1
 62
   250
 10
34.9408
 20
-257.6594
 30
0.0
  0
VERTEX
  5
26D
  8
LAYER_1
 62
   250
 10
34.8025
 20
-257.9142
 30
0.0
  0
VERTEX
  5
26E
  8
LAYER_1
 62
   250
 10
34.7151
 20
-258.1958
 30
0.0
  0
VERTEX
  5
26F
  8
LAYER_1
 62
   250
 10
34.6846
 20
-258.4981
 30
0.0
  0
VERTEX
  5
270
  8
LAYER_1
 62
   250
 10
34.7151
 20
-258.8004
 30
0.0
  0
VERTEX
  5
271
  8
LAYER_1
 62
   250
 10
34.8025
 20
-259.082
 30
0.0
  0
VERTEX
  5
272
  8
LAYER_1
 62
   250
 10
34.9408
 20
-259.3368
 30
0.0
  0
VERTEX
  5
273
  8
LAYER_1
 62
   250
 10
35.124
 20
-259.5588
 30
0.0
  0
VERTEX
  5
274
  8
LAYER_1
 62
   250
 10
35.3459
 20
-259.7419
 30
0.0
  0
VERTEX
  5
275
  8
LAYER_1
 62
   250
 10
35.6007
 20
-259.8802
 30
0.0
  0
VERTEX
  5
276
  8
LAYER_1
 62
   250
 10
35.8823
 20
-259.9676
 30
0.0
  0
VERTEX
  5
277
  8
LAYER_1
 62
   250
 10
36.1846
 20
-259.9981
 30
0.0
  0
VERTEX
  5
278
  8
LAYER_1
 62
   250
 10
36.4869
 20
-259.9676
 30
0.0
  0
VERTEX
  5
279
  8
LAYER_1
 62
   250
 10
36.7685
 20
-259.8802
 30
0.0
  0
VERTEX
  5
27A
  8
LAYER_1
 62
   250
 10
37.0233
 20
-259.7419
 30
0.0
  0
VERTEX
  5
27B
  8
LAYER_1
 62
   250
 10
37.2453
 20
-259.5588
 30
0.0
  0
VERTEX
  5
27C
  8
LAYER_1
 62
   250
 10
37.4284
 20
-259.3368
 30
0.0
  0
VERTEX
  5
27D
  8
LAYER_1
 62
   250
 10
37.5667
 20
-259.082
 30
0.0
  0
VERTEX
  5
27E
  8
LAYER_1
 62
   250
 10
37.6541
 20
-258.8004
 30
0.0
  0
VERTEX
  5
27F
  8
LAYER_1
 62
   250
 10
37.6846
 20
-258.4981
 30
0.0
  0
SEQEND
  5
4CD
  8
LAYER_1
 62
   250
  0
POLYLINE
  5
82
  8
LAYER_1
 62
   250
 66
     1
 10
0.0
 20
0.0
 30
0.0
 70
     1
  0
VERTEX
  5
280
  8
LAYER_1
 62
   250
 10
-18.3151
 20
-300.4981
 30
0.0
  0
VERTEX
  5
281
  8
LAYER_1
 62
   250
 10
-18.3456
 20
-300.1958
 30
0.0
  0
VERTEX
  5
282
  8
LAYER_1
 62
   250
 10
-18.433
 20
-299.9142
 30
0.0
  0
VERTEX
  5
283
  8
LAYER_1
 62
   250
 10
-18.5713
 20
-299.6594
 30
0.0
  0
VERTEX
  5
284
  8
LAYER_1
 62
   250
 10
-18.7545
 20
-299.4375
 30
0.0
  0
VERTEX
  5
285
  8
LAYER_1
 62
   250
 10
-18.9764
 20
-299.2543
 30
0.0
  0
VERTEX
  5
286
  8
LAYER_1
 62
   250
 10
-19.2312
 20
-299.116
 30
0.0
  0
VERTEX
  5
287
  8
LAYER_1
 62
   250
 10
-19.5128
 20
-299.0286
 30
0.0
  0
VERTEX
  5
288
  8
LAYER_1
 62
   250
 10
-19.8151
 20
-298.9981
 30
0.0
  0
VERTEX
  5
289
  8
LAYER_1
 62
   250
 10
-20.1174
 20
-299.0286
 30
0.0
  0
VERTEX
  5
28A
  8
LAYER_1
 62
   250
 10
-20.399
 20
-299.116
 30
0.0
  0
VERTEX
  5
28B
  8
LAYER_1
 62
   250
 10
-20.6538
 20
-299.2543
 30
0.0
  0
VERTEX
  5
28C
  8
LAYER_1
 62
   250
 10
-20.8758
 20
-299.4375
 30
0.0
  0
VERTEX
  5
28D
  8
LAYER_1
 62
   250
 10
-21.0589
 20
-299.6594
 30
0.0
  0
VERTEX
  5
28E
  8
LAYER_1
 62
   250
 10
-21.1972
 20
-299.9142
 30
0.0
  0
VERTEX
  5
28F
  8
LAYER_1
 62
   250
 10
-21.2846
 20
-300.1958
 30
0.0
  0
VERTEX
  5
290
  8
LAYER_1
 62
   250
 10
-21.3151
 20
-300.4981
 30
0.0
  0
VERTEX
  5
291
  8
LAYER_1
 62
   250
 10
-21.2846
 20
-300.8004
 30
0.0
  0
VERTEX
  5
292
  8
LAYER_1
 62
   250
 10
-21.1972
 20
-301.082
 30
0.0
  0
VERTEX
  5
293
  8
LAYER_1
 62
   250
 10
-21.0589
 20
-301.3368
 30
0.0
  0
VERTEX
  5
294
  8
LAYER_1
 62
   250
 10
-20.8758
 20
-301.5588
 30
0.0
  0
VERTEX
  5
295
  8
LAYER_1
 62
   250
 10
-20.6538
 20
-301.7419
 30
0.0
  0
VERTEX
  5
296
  8
LAYER_1
 62
   250
 10
-20.399
 20
-301.8802
 30
0.0
  0
VERTEX
  5
297
  8
LAYER_1
 62
   250
 10
-20.1174
 20
-301.9676
 30
0.0
  0
VERTEX
  5
298
  8
LAYER_1
 62
   250
 10
-19.8151
 20
-301.9981
 30
0.0
  0
VERTEX
  5
299
  8
LAYER_1
 62
   250
 10
-19.5128
 20
-301.9676
 30
0.0
  0
VERTEX
  5
29A
  8
LAYER_1
 62
   250
 10
-19.2312
 20
-301.8802
 30
0.0
  0
VERTEX
  5
29B
  8
LAYER_1
 62
   250
 10
-18.9764
 20
-301.7419
 30
0.0
  0
VERTEX
  5
29C
  8
LAYER_1
 62
   250
 10
-18.7545
 20
-301.5588
 30
0.0
  0
VERTEX
  5
29D
  8
LAYER_1
 62
   250
 10
-18.5713
 20
-301.3368
 30
0.0
  0
VERTEX
  5
29E
  8
LAYER_1
 62
   250
 10
-18.433
 20
-301.082
 30
0.0
  0
VERTEX
  5
29F
  8
LAYER_1
 62
   250
 10
-18.3456
 20
-300.8004
 30
0.0
  0
VERTEX
  5
2A0
  8
LAYER_1
 62
   250
 10
-18.3151
 20
-300.4981
 30
0.0
  0
SEQEND
  5
4CE
  8
LAYER_1
 62
   250
  0
POLYLINE
  5
83
  8
LAYER_1
 62
   250
 66
     1
 10
0.0
 20
0.0
 30
0.0
 70
     1
  0
VERTEX
  5
2A1
  8
LAYER_1
 62
   250
 10
-18.3151
 20
-258.4981
 30
0.0
  0
VERTEX
  5
2A2
  8
LAYER_1
 62
   250
 10
-18.3456
 20
-258.1958
 30
0.0
  0
VERTEX
  5
2A3
  8
LAYER_1
 62
   250
 10
-18.433
 20
-257.9142
 30
0.0
  0
VERTEX
  5
2A4
  8
LAYER_1
 62
   250
 10
-18.5713
 20
-257.6594
 30
0.0
  0
VERTEX
  5
2A5
  8
LAYER_1
 62
   250
 10
-18.7545
 20
-257.4375
 30
0.0
  0
VERTEX
  5
2A6
  8
LAYER_1
 62
   250
 10
-18.9764
 20
-257.2543
 30
0.0
  0
VERTEX
  5
2A7
  8
LAYER_1
 62
   250
 10
-19.2312
 20
-257.116
 30
0.0
  0
VERTEX
  5
2A8
  8
LAYER_1
 62
   250
 10
-19.5128
 20
-257.0286
 30
0.0
  0
VERTEX
  5
2A9
  8
LAYER_1
 62
   250
 10
-19.8151
 20
-256.9981
 30
0.0
  0
VERTEX
  5
2AA
  8
LAYER_1
 62
   250
 10
-20.1174
 20
-257.0286
 30
0.0
  0
VERTEX
  5
2AB
  8
LAYER_1
 62
   250
 10
-20.399
 20
-257.116
 30
0.0
  0
VERTEX
  5
2AC
  8
LAYER_1
 62
   250
 10
-20.6538
 20
-257.2543
 30
0.0
  0
VERTEX
  5
2AD
  8
LAYER_1
 62
   250
 10
-20.8758
 20
-257.4375
 30
0.0
  0
VERTEX
  5
2AE
  8
LAYER_1
 62
   250
 10
-21.0589
 20
-257.6594
 30
0.0
  0
VERTEX
  5
2AF
  8
LAYER_1
 62
   250
 10
-21.1972
 20
-257.9142
 30
0.0
  0
VERTEX
  5
2B0
  8
LAYER_1
 62
   250
 10
-21.2846
 20
-258.1958
 30
0.0
  0
VERTEX
  5
2B1
  8
LAYER_1
 62
   250
 10
-21.3151
 20
-258.4981
 30
0.0
  0
VERTEX
  5
2B2
  8
LAYER_1
 62
   250
 10
-21.2846
 20
-258.8004
 30
0.0
  0
VERTEX
  5
2B3
  8
LAYER_1
 62
   250
 10
-21.1972
 20
-259.082
 30
0.0
  0
VERTEX
  5
2B4
  8
LAYER_1
 62
   250
 10
-21.0589
 20
-259.3368
 30
0.0
  0
VERTEX
  5
2B5
  8
LAYER_1
 62
   250
 10
-20.8758
 20
-259.5588
 30
0.0
  0
VERTEX
  5
2B6
  8
LAYER_1
 62
   250
 10
-20.6538
 20
-259.7419
 30
0.0
  0
VERTEX
  5
2B7
  8
LAYER_1
 62
   250
 10
-20.399
 20
-259.8802
 30
0.0
  0
VERTEX
  5
2B8
  8
LAYER_1
 62
   250
 10
-20.1174
 20
-259.9676
 30
0.0
  0
VERTEX
  5
2B9
  8
LAYER_1
 62
   250
 10
-19.8151
 20
-259.9981
 30
0.0
  0
VERTEX
  5
2BA
  8
LAYER_1
 62
   250
 10
-19.5128
 20
-259.9676
 30
0.0
  0
VERTEX
  5
2BB
  8
LAYER_1
 62
   250
 10
-19.2312
 20
-259.8802
 30
0.0
  0
VERTEX
  5
2BC
  8
LAYER_1
 62
   250
 10
-18.9764
 20
-259.7419
 30
0.0
  0
VERTEX
  5
2BD
  8
LAYER_1
 62
   250
 10
-18.7545
 20
-259.5588
 30
0.0
  0
VERTEX
  5
2BE
  8
LAYER_1
 62
   250
 10
-18.5713
 20
-259.3368
 30
0.0
  0
VERTEX
  5
2BF
  8
LAYER_1
 62
   250
 10
-18.433
 20
-259.082
 30
0.0
  0
VERTEX
  5
2C0
  8
LAYER_1
 62
   250
 10
-18.3456
 20
-258.8004
 30
0.0
  0
VERTEX
  5
2C1
  8
LAYER_1
 62
   250
 10
-18.3151
 20
-258.4981
 30
0.0
  0
SEQEND
  5
4CF
  8
LAYER_1
 62
   250
  0
POLYLINE
  5
84
  8
LAYER_1
  6
NEW_LINE2
 62
    20
 66
     1
 10
0.0
 20
0.0
 30
0.0
 70
     1
  0
VERTEX
  5
2C2
  8
LAYER_1
  6
NEW_LINE2
 62
    20
 10
39.7847
 20
-303.4981
 30
0.0
  0
VERTEX
  5
2C3
  8
LAYER_1
  6
NEW_LINE2
 62
    20
 10
39.7847
 20
-255.4981
 30
0.0
  0
VERTEX
  5
2C4
  8
LAYER_1
  6
NEW_LINE2
 62
    20
 10
-34.2153
 20
-255.4981
 30
0.0
  0
VERTEX
  5
2C5
  8
LAYER_1
  6
NEW_LINE2
 62
    20
 10
-34.2153
 20
-303.4981
 30
0.0
  0
VERTEX
  5
2C6
  8
LAYER_1
  6
NEW_LINE2
 62
    20
 10
39.7847
 20
-303.4981
 30
0.0
  0
SEQEND
  5
4D0
  8
LAYER_1
  6
NEW_LINE2
 62
    20
  0
POLYLINE
  5
86
  8
LAYER_1
  6
NEW_LINE3
 62
    20
 66
     1
 10
0.0
 20
0.0
 30
0.0
 70
     1
  0
VERTEX
  5
2C7
  8
LAYER_1
  6
NEW_LINE3
 62
    20
 10
-51.3687
 20
-168.8544
 30
0.0
  0
VERTEX
  5
2C8
  8
LAYER_1
  6
NEW_LINE3
 62
    20
 10
58.6313
 20
-168.8544
 30
0.0
  0
VERTEX
  5
2C9
  8
LAYER_1
  6
NEW_LINE3
 62
    20
 10
59.6357
 20
-168.9565
 30
0.0
  0
VERTEX
  5
2CA
  8
LAYER_1
  6
NEW_LINE3
 62
    20
 10
60.5728
 20
-169.2489
 30
0.0
  0
VERTEX
  5
2CB
  8
LAYER_1
  6
NEW_LINE3
 62
    20
 10
61.4219
 20
-169.7114
 30
0.0
  0
VERTEX
  5
2CC
  8
LAYER_1
  6
NEW_LINE3
 62
    20
 10
62.1626
 20
-170.3232
 30
0.0
  0
VERTEX
  5
2CD
  8
LAYER_1
  6
NEW_LINE3
 62
    20
 10
62.7745
 20
-171.0639
 30
0.0
  0
VERTEX
  5
2CE
  8
LAYER_1
  6
NEW_LINE3
 62
    20
 10
63.2369
 20
-171.913
 30
0.0
  0
VERTEX
  5
2CF
  8
LAYER_1
  6
NEW_LINE3
 62
    20
 10
63.5293
 20
-172.85
 30
0.0
  0
VERTEX
  5
2D0
  8
LAYER_1
  6
NEW_LINE3
 62
    20
 10
63.6314
 20
-173.8544
 30
0.0
  0
VERTEX
  5
2D1
  8
LAYER_1
  6
NEW_LINE3
 62
    20
 10
63.6314
 20
-248.8544
 30
0.0
  0
VERTEX
  5
2D2
  8
LAYER_1
  6
NEW_LINE3
 62
    20
 10
63.5293
 20
-249.8588
 30
0.0
  0
VERTEX
  5
2D3
  8
LAYER_1
  6
NEW_LINE3
 62
    20
 10
63.2369
 20
-250.7958
 30
0.0
  0
VERTEX
  5
2D4
  8
LAYER_1
  6
NEW_LINE3
 62
    20
 10
62.7745
 20
-251.6449
 30
0.0
  0
VERTEX
  5
2D5
  8
LAYER_1
  6
NEW_LINE3
 62
    20
 10
62.1626
 20
-252.3856
 30
0.0
  0
VERTEX
  5
2D6
  8
LAYER_1
  6
NEW_LINE3
 62
    20
 10
61.4219
 20
-252.9974
 30
0.0
  0
VERTEX
  5
2D7
  8
LAYER_1
  6
NEW_LINE3
 62
    20
 10
60.5728
 20
-253.4599
 30
0.0
  0
VERTEX
  5
2D8
  8
LAYER_1
  6
NEW_LINE3
 62
    20
 10
59.6357
 20
-253.7523
 30
0.0
  0
VERTEX
  5
2D9
  8
LAYER_1
  6
NEW_LINE3
 62
    20
 10
58.6313
 20
-253.8544
 30
0.0
  0
VERTEX
  5
2DA
  8
LAYER_1
  6
NEW_LINE3
 62
    20
 10
-51.3687
 20
-253.8544
 30
0.0
  0
VERTEX
  5
2DB
  8
LAYER_1
  6
NEW_LINE3
 62
    20
 10
-52.3731
 20
-253.7523
 30
0.0
  0
VERTEX
  5
2DC
  8
LAYER_1
  6
NEW_LINE3
 62
    20
 10
-53.31
 20
-253.4599
 30
0.0
  0
VERTEX
  5
2DD
  8
LAYER_1
  6
NEW_LINE3
 62
    20
 10
-54.1592
 20
-252.9974
 30
0.0
  0
VERTEX
  5
2DE
  8
LAYER_1
  6
NEW_LINE3
 62
    20
 10
-54.8999
 20
-252.3856
 30
0.0
  0
VERTEX
  5
2DF
  8
LAYER_1
  6
NEW_LINE3
 62
    20
 10
-55.5117
 20
-251.6449
 30
0.0
  0
VERTEX
  5
2E0
  8
LAYER_1
  6
NEW_LINE3
 62
    20
 10
-55.9741
 20
-250.7958
 30
0.0
  0
VERTEX
  5
2E1
  8
LAYER_1
  6
NEW_LINE3
 62
    20
 10
-56.2665
 20
-249.8588
 30
0.0
  0
VERTEX
  5
2E2
  8
LAYER_1
  6
NEW_LINE3
 62
    20
 10
-56.3686
 20
-248.8544
 30
0.0
  0
VERTEX
  5
2E3
  8
LAYER_1
  6
NEW_LINE3
 62
    20
 10
-56.3686
 20
-173.8544
 30
0.0
  0
VERTEX
  5
2E4
  8
LAYER_1
  6
NEW_LINE3
 62
    20
 10
-56.2665
 20
-172.85
 30
0.0
  0
VERTEX
  5
2E5
  8
LAYER_1
  6
NEW_LINE3
 62
    20
 10
-55.9741
 20
-171.913
 30
0.0
  0
VERTEX
  5
2E6
  8
LAYER_1
  6
NEW_LINE3
 62
    20
 10
-55.5117
 20
-171.0639
 30
0.0
  0
VERTEX
  5
2E7
  8
LAYER_1
  6
NEW_LINE3
 62
    20
 10
-54.8999
 20
-170.3232
 30
0.0
  0
VERTEX
  5
2E8
  8
LAYER_1
  6
NEW_LINE3
 62
    20
 10
-54.1592
 20
-169.7114
 30
0.0
  0
VERTEX
  5
2E9
  8
LAYER_1
  6
NEW_LINE3
 62
    20
 10
-53.31
 20
-169.2489
 30
0.0
  0
VERTEX
  5
2EA
  8
LAYER_1
  6
NEW_LINE3
 62
    20
 10
-52.3731
 20
-168.9565
 30
0.0
  0
VERTEX
  5
2EB
  8
LAYER_1
  6
NEW_LINE3
 62
    20
 10
-51.3687
 20
-168.8544
 30
0.0
  0
SEQEND
  5
4D1
  8
LAYER_1
  6
NEW_LINE3
 62
    20
  0
POLYLINE
  5
88
  8
LAYER_1
 62
   250
 66
     1
 10
0.0
 20
0.0
 30
0.0
 70
     1
  0
VERTEX
  5
2EC
  8
LAYER_1
 62
   250
 10
51.8814
 20
-177.3164
 30
0.0
  0
VERTEX
  5
2ED
  8
LAYER_1
 62
   250
 10
51.5813510847392
 20
-177.3459522387398
 30
0.0
  0
VERTEX
  5
2EE
  8
LAYER_1
 62
   250
 10
51.29283288102249
 20
-177.4334732789976
 30
0.0
  0
VERTEX
  5
2EF
  8
LAYER_1
 62
   250
 10
51.02693298161585
 20
-177.5755997362787
 30
0.0
  0
VERTEX
  5
2F0
  8
LAYER_1
 62
   250
 10
50.79386977053509
 20
-177.7668697705351
 30
0.0
  0
VERTEX
  5
2F1
  8
LAYER_1
 62
   250
 10
50.60259973627868
 20
-177.9999329816158
 30
0.0
  0
VERTEX
  5
2F2
  8
LAYER_1
 62
   250
 10
50.46047327899764
 20
-178.2658328810225
 30
0.0
  0
VERTEX
  5
2F3
  8
LAYER_1
 62
   250
 10
50.37295223873983
 20
-178.5543510847392
 30
0.0
  0
VERTEX
  5
2F4
  8
LAYER_1
 62
   250
 10
50.3434
 20
-178.8544
 30
0.0
  0
VERTEX
  5
2F5
  8
LAYER_1
 62
   250
 10
50.37295223873983
 20
-179.1544489152608
 30
0.0
  0
VERTEX
  5
2F6
  8
LAYER_1
 62
   250
 10
50.46047327899764
 20
-179.4429671189775
 30
0.0
  0
VERTEX
  5
2F7
  8
LAYER_1
 62
   250
 10
50.60259973627868
 20
-179.7088670183842
 30
0.0
  0
VERTEX
  5
2F8
  8
LAYER_1
 62
   250
 10
50.79386977053509
 20
-179.9419302294649
 30
0.0
  0
VERTEX
  5
2F9
  8
LAYER_1
 62
   250
 10
51.02693298161585
 20
-180.1332002637213
 30
0.0
  0
VERTEX
  5
2FA
  8
LAYER_1
 62
   250
 10
51.29283288102249
 20
-180.2753267210024
 30
0.0
  0
VERTEX
  5
2FB
  8
LAYER_1
 62
   250
 10
51.5813510847392
 20
-180.3628477612602
 30
0.0
  0
VERTEX
  5
2FC
  8
LAYER_1
 62
   250
 10
51.8814
 20
-180.3924
 30
0.0
  0
VERTEX
  5
2FD
  8
LAYER_1
 62
   250
 10
52.18144891526081
 20
-180.3628477612602
 30
0.0
  0
VERTEX
  5
2FE
  8
LAYER_1
 62
   250
 10
52.46996711897751
 20
-180.2753267210024
 30
0.0
  0
VERTEX
  5
2FF
  8
LAYER_1
 62
   250
 10
52.73586701838415
 20
-180.1332002637213
 30
0.0
  0
VERTEX
  5
300
  8
LAYER_1
 62
   250
 10
52.96893022946491
 20
-179.9419302294649
 30
0.0
  0
VERTEX
  5
301
  8
LAYER_1
 62
   250
 10
53.16020026372131
 20
-179.7088670183842
 30
0.0
  0
VERTEX
  5
302
  8
LAYER_1
 62
   250
 10
53.30232672100236
 20
-179.4429671189775
 30
0.0
  0
VERTEX
  5
303
  8
LAYER_1
 62
   250
 10
53.38984776126017
 20
-179.1544489152608
 30
0.0
  0
VERTEX
  5
304
  8
LAYER_1
 62
   250
 10
53.4194
 20
-178.8544
 30
0.0
  0
VERTEX
  5
305
  8
LAYER_1
 62
   250
 10
53.38984776126016
 20
-178.5543510847392
 30
0.0
  0
VERTEX
  5
306
  8
LAYER_1
 62
   250
 10
53.30232672100236
 20
-178.2658328810225
 30
0.0
  0
VERTEX
  5
307
  8
LAYER_1
 62
   250
 10
53.16020026372131
 20
-177.9999329816158
 30
0.0
  0
VERTEX
  5
308
  8
LAYER_1
 62
   250
 10
52.9689302294649
 20
-177.7668697705351
 30
0.0
  0
VERTEX
  5
309
  8
LAYER_1
 62
   250
 10
52.73586701838414
 20
-177.5755997362787
 30
0.0
  0
VERTEX
  5
30A
  8
LAYER_1
 62
   250
 10
52.4699671189775
 20
-177.4334732789976
 30
0.0
  0
VERTEX
  5
30B
  8
LAYER_1
 62
   250
 10
52.1814489152608
 20
-177.3459522387398
 30
0.0
  0
SEQEND
  5
4D2
  8
LAYER_1
 62
   250
  0
POLYLINE
  5
89
  8
LAYER_1
 62
   250
 66
     1
 10
0.0
 20
0.0
 30
0.0
 70
     1
  0
VERTEX
  5
30C
  8
LAYER_1
 62
   250
 10
51.8814
 20
-242.3164
 30
0.0
  0
VERTEX
  5
30D
  8
LAYER_1
 62
   250
 10
51.5813510847392
 20
-242.3459522387398
 30
0.0
  0
VERTEX
  5
30E
  8
LAYER_1
 62
   250
 10
51.29283288102249
 20
-242.4334732789976
 30
0.0
  0
VERTEX
  5
30F
  8
LAYER_1
 62
   250
 10
51.02693298161585
 20
-242.5755997362787
 30
0.0
  0
VERTEX
  5
310
  8
LAYER_1
 62
   250
 10
50.79386977053509
 20
-242.7668697705351
 30
0.0
  0
VERTEX
  5
311
  8
LAYER_1
 62
   250
 10
50.60259973627868
 20
-242.9999329816158
 30
0.0
  0
VERTEX
  5
312
  8
LAYER_1
 62
   250
 10
50.46047327899764
 20
-243.2658328810225
 30
0.0
  0
VERTEX
  5
313
  8
LAYER_1
 62
   250
 10
50.37295223873983
 20
-243.5543510847392
 30
0.0
  0
VERTEX
  5
314
  8
LAYER_1
 62
   250
 10
50.3434
 20
-243.8544
 30
0.0
  0
VERTEX
  5
315
  8
LAYER_1
 62
   250
 10
50.37295223873983
 20
-244.1544489152608
 30
0.0
  0
VERTEX
  5
316
  8
LAYER_1
 62
   250
 10
50.46047327899764
 20
-244.4429671189775
 30
0.0
  0
VERTEX
  5
317
  8
LAYER_1
 62
   250
 10
50.60259973627868
 20
-244.7088670183842
 30
0.0
  0
VERTEX
  5
318
  8
LAYER_1
 62
   250
 10
50.79386977053509
 20
-244.9419302294649
 30
0.0
  0
VERTEX
  5
319
  8
LAYER_1
 62
   250
 10
51.02693298161585
 20
-245.1332002637213
 30
0.0
  0
VERTEX
  5
31A
  8
LAYER_1
 62
   250
 10
51.29283288102249
 20
-245.2753267210024
 30
0.0
  0
VERTEX
  5
31B
  8
LAYER_1
 62
   250
 10
51.5813510847392
 20
-245.3628477612602
 30
0.0
  0
VERTEX
  5
31C
  8
LAYER_1
 62
   250
 10
51.8814
 20
-245.3924
 30
0.0
  0
VERTEX
  5
31D
  8
LAYER_1
 62
   250
 10
52.18144891526081
 20
-245.3628477612602
 30
0.0
  0
VERTEX
  5
31E
  8
LAYER_1
 62
   250
 10
52.46996711897751
 20
-245.2753267210024
 30
0.0
  0
VERTEX
  5
31F
  8
LAYER_1
 62
   250
 10
52.73586701838415
 20
-245.1332002637213
 30
0.0
  0
VERTEX
  5
320
  8
LAYER_1
 62
   250
 10
52.96893022946491
 20
-244.9419302294649
 30
0.0
  0
VERTEX
  5
321
  8
LAYER_1
 62
   250
 10
53.16020026372131
 20
-244.7088670183842
 30
0.0
  0
VERTEX
  5
322
  8
LAYER_1
 62
   250
 10
53.30232672100236
 20
-244.4429671189775
 30
0.0
  0
VERTEX
  5
323
  8
LAYER_1
 62
   250
 10
53.38984776126017
 20
-244.1544489152608
 30
0.0
  0
VERTEX
  5
324
  8
LAYER_1
 62
   250
 10
53.4194
 20
-243.8544
 30
0.0
  0
VERTEX
  5
325
  8
LAYER_1
 62
   250
 10
53.38984776126016
 20
-243.5543510847392
 30
0.0
  0
VERTEX
  5
326
  8
LAYER_1
 62
   250
 10
53.30232672100236
 20
-243.2658328810225
 30
0.0
  0
VERTEX
  5
327
  8
LAYER_1
 62
   250
 10
53.16020026372131
 20
-242.9999329816158
 30
0.0
  0
VERTEX
  5
328
  8
LAYER_1
 62
   250
 10
52.9689302294649
 20
-242.7668697705351
 30
0.0
  0
VERTEX
  5
329
  8
LAYER_1
 62
   250
 10
52.73586701838414
 20
-242.5755997362787
 30
0.0
  0
VERTEX
  5
32A
  8
LAYER_1
 62
   250
 10
52.4699671189775
 20
-242.4334732789976
 30
0.0
  0
VERTEX
  5
32B
  8
LAYER_1
 62
   250
 10
52.1814489152608
 20
-242.3459522387398
 30
0.0
  0
SEQEND
  5
4D3
  8
LAYER_1
 62
   250
  0
POLYLINE
  5
8A
  8
LAYER_1
 62
   250
 66
     1
 10
0.0
 20
0.0
 30
0.0
 70
     1
  0
VERTEX
  5
32C
  8
LAYER_1
 62
   250
 10
-44.619
 20
-177.3164
 30
0.0
  0
VERTEX
  5
32D
  8
LAYER_1
 62
   250
 10
-44.9190489152608
 20
-177.3459522387398
 30
0.0
  0
VERTEX
  5
32E
  8
LAYER_1
 62
   250
 10
-45.20756711897751
 20
-177.4334732789976
 30
0.0
  0
VERTEX
  5
32F
  8
LAYER_1
 62
   250
 10
-45.47346701838415
 20
-177.5755997362787
 30
0.0
  0
VERTEX
  5
330
  8
LAYER_1
 62
   250
 10
-45.70653022946491
 20
-177.7668697705351
 30
0.0
  0
VERTEX
  5
331
  8
LAYER_1
 62
   250
 10
-45.89780026372132
 20
-177.9999329816158
 30
0.0
  0
VERTEX
  5
332
  8
LAYER_1
 62
   250
 10
-46.03992672100236
 20
-178.2658328810225
 30
0.0
  0
VERTEX
  5
333
  8
LAYER_1
 62
   250
 10
-46.12744776126017
 20
-178.5543510847392
 30
0.0
  0
VERTEX
  5
334
  8
LAYER_1
 62
   250
 10
-46.157
 20
-178.8544
 30
0.0
  0
VERTEX
  5
335
  8
LAYER_1
 62
   250
 10
-46.12744776126017
 20
-179.1544489152608
 30
0.0
  0
VERTEX
  5
336
  8
LAYER_1
 62
   250
 10
-46.03992672100236
 20
-179.4429671189775
 30
0.0
  0
VERTEX
  5
337
  8
LAYER_1
 62
   250
 10
-45.89780026372132
 20
-179.7088670183842
 30
0.0
  0
VERTEX
  5
338
  8
LAYER_1
 62
   250
 10
-45.70653022946491
 20
-179.9419302294649
 30
0.0
  0
VERTEX
  5
339
  8
LAYER_1
 62
   250
 10
-45.47346701838415
 20
-180.1332002637213
 30
0.0
  0
VERTEX
  5
33A
  8
LAYER_1
 62
   250
 10
-45.20756711897751
 20
-180.2753267210024
 30
0.0
  0
VERTEX
  5
33B
  8
LAYER_1
 62
   250
 10
-44.9190489152608
 20
-180.3628477612602
 30
0.0
  0
VERTEX
  5
33C
  8
LAYER_1
 62
   250
 10
-44.619
 20
-180.3924
 30
0.0
  0
VERTEX
  5
33D
  8
LAYER_1
 62
   250
 10
-44.31895108473919
 20
-180.3628477612602
 30
0.0
  0
VERTEX
  5
33E
  8
LAYER_1
 62
   250
 10
-44.03043288102249
 20
-180.2753267210024
 30
0.0
  0
VERTEX
  5
33F
  8
LAYER_1
 62
   250
 10
-43.76453298161585
 20
-180.1332002637213
 30
0.0
  0
VERTEX
  5
340
  8
LAYER_1
 62
   250
 10
-43.53146977053509
 20
-179.9419302294649
 30
0.0
  0
VERTEX
  5
341
  8
LAYER_1
 62
   250
 10
-43.34019973627868
 20
-179.7088670183842
 30
0.0
  0
VERTEX
  5
342
  8
LAYER_1
 62
   250
 10
-43.19807327899764
 20
-179.4429671189775
 30
0.0
  0
VERTEX
  5
343
  8
LAYER_1
 62
   250
 10
-43.11055223873983
 20
-179.1544489152608
 30
0.0
  0
VERTEX
  5
344
  8
LAYER_1
 62
   250
 10
-43.081
 20
-178.8544
 30
0.0
  0
VERTEX
  5
345
  8
LAYER_1
 62
   250
 10
-43.11055223873984
 20
-178.5543510847392
 30
0.0
  0
VERTEX
  5
346
  8
LAYER_1
 62
   250
 10
-43.19807327899764
 20
-178.2658328810225
 30
0.0
  0
VERTEX
  5
347
  8
LAYER_1
 62
   250
 10
-43.34019973627869
 20
-177.9999329816158
 30
0.0
  0
VERTEX
  5
348
  8
LAYER_1
 62
   250
 10
-43.5314697705351
 20
-177.7668697705351
 30
0.0
  0
VERTEX
  5
349
  8
LAYER_1
 62
   250
 10
-43.76453298161586
 20
-177.5755997362787
 30
0.0
  0
VERTEX
  5
34A
  8
LAYER_1
 62
   250
 10
-44.0304328810225
 20
-177.4334732789976
 30
0.0
  0
VERTEX
  5
34B
  8
LAYER_1
 62
   250
 10
-44.3189510847392
 20
-177.3459522387398
 30
0.0
  0
SEQEND
  5
4D4
  8
LAYER_1
 62
   250
  0
POLYLINE
  5
8B
  8
LAYER_1
 62
   250
 66
     1
 10
0.0
 20
0.0
 30
0.0
 70
     1
  0
VERTEX
  5
34C
  8
LAYER_1
 62
   250
 10
-44.619
 20
-242.3164
 30
0.0
  0
VERTEX
  5
34D
  8
LAYER_1
 62
   250
 10
-44.9190489152608
 20
-242.3459522387398
 30
0.0
  0
VERTEX
  5
34E
  8
LAYER_1
 62
   250
 10
-45.20756711897751
 20
-242.4334732789976
 30
0.0
  0
VERTEX
  5
34F
  8
LAYER_1
 62
   250
 10
-45.47346701838415
 20
-242.5755997362787
 30
0.0
  0
VERTEX
  5
350
  8
LAYER_1
 62
   250
 10
-45.70653022946491
 20
-242.7668697705351
 30
0.0
  0
VERTEX
  5
351
  8
LAYER_1
 62
   250
 10
-45.89780026372132
 20
-242.9999329816158
 30
0.0
  0
VERTEX
  5
352
  8
LAYER_1
 62
   250
 10
-46.03992672100236
 20
-243.2658328810225
 30
0.0
  0
VERTEX
  5
353
  8
LAYER_1
 62
   250
 10
-46.12744776126017
 20
-243.5543510847392
 30
0.0
  0
VERTEX
  5
354
  8
LAYER_1
 62
   250
 10
-46.157
 20
-243.8544
 30
0.0
  0
VERTEX
  5
355
  8
LAYER_1
 62
   250
 10
-46.12744776126017
 20
-244.1544489152608
 30
0.0
  0
VERTEX
  5
356
  8
LAYER_1
 62
   250
 10
-46.03992672100236
 20
-244.4429671189775
 30
0.0
  0
VERTEX
  5
357
  8
LAYER_1
 62
   250
 10
-45.89780026372132
 20
-244.7088670183842
 30
0.0
  0
VERTEX
  5
358
  8
LAYER_1
 62
   250
 10
-45.70653022946491
 20
-244.9419302294649
 30
0.0
  0
VERTEX
  5
359
  8
LAYER_1
 62
   250
 10
-45.47346701838415
 20
-245.1332002637213
 30
0.0
  0
VERTEX
  5
35A
  8
LAYER_1
 62
   250
 10
-45.20756711897751
 20
-245.2753267210024
 30
0.0
  0
VERTEX
  5
35B
  8
LAYER_1
 62
   250
 10
-44.9190489152608
 20
-245.3628477612602
 30
0.0
  0
VERTEX
  5
35C
  8
LAYER_1
 62
   250
 10
-44.619
 20
-245.3924
 30
0.0
  0
VERTEX
  5
35D
  8
LAYER_1
 62
   250
 10
-44.31895108473919
 20
-245.3628477612602
 30
0.0
  0
VERTEX
  5
35E
  8
LAYER_1
 62
   250
 10
-44.03043288102249
 20
-245.2753267210024
 30
0.0
  0
VERTEX
  5
35F
  8
LAYER_1
 62
   250
 10
-43.76453298161585
 20
-245.1332002637213
 30
0.0
  0
VERTEX
  5
360
  8
LAYER_1
 62
   250
 10
-43.53146977053509
 20
-244.9419302294649
 30
0.0
  0
VERTEX
  5
361
  8
LAYER_1
 62
   250
 10
-43.34019973627868
 20
-244.7088670183842
 30
0.0
  0
VERTEX
  5
362
  8
LAYER_1
 62
   250
 10
-43.19807327899764
 20
-244.4429671189775
 30
0.0
  0
VERTEX
  5
363
  8
LAYER_1
 62
   250
 10
-43.11055223873983
 20
-244.1544489152608
 30
0.0
  0
VERTEX
  5
364
  8
LAYER_1
 62
   250
 10
-43.081
 20
-243.8544
 30
0.0
  0
VERTEX
  5
365
  8
LAYER_1
 62
   250
 10
-43.11055223873984
 20
-243.5543510847392
 30
0.0
  0
VERTEX
  5
366
  8
LAYER_1
 62
   250
 10
-43.19807327899764
 20
-243.2658328810225
 30
0.0
  0
VERTEX
  5
367
  8
LAYER_1
 62
   250
 10
-43.34019973627869
 20
-242.9999329816158
 30
0.0
  0
VERTEX
  5
368
  8
LAYER_1
 62
   250
 10
-43.5314697705351
 20
-242.7668697705351
 30
0.0
  0
VERTEX
  5
369
  8
LAYER_1
 62
   250
 10
-43.76453298161586
 20
-242.5755997362787
 30
0.0
  0
VERTEX
  5
36A
  8
LAYER_1
 62
   250
 10
-44.0304328810225
 20
-242.4334732789976
 30
0.0
  0
VERTEX
  5
36B
  8
LAYER_1
 62
   250
 10
-44.3189510847392
 20
-242.3459522387398
 30
0.0
  0
SEQEND
  5
4D5
  8
LAYER_1
 62
   250
  0
POLYLINE
  5
8C
  8
LAYER_1
  6
NEW_LINE4
 62
    20
 66
     1
 10
0.0
 20
0.0
 30
0.0
 70
     1
  0
VERTEX
  5
36C
  8
LAYER_1
  6
NEW_LINE4
 62
    20
 10
-58.2222
 20
-379.1535
 30
0.0
  0
VERTEX
  5
36D
  8
LAYER_1
  6
NEW_LINE4
 62
    20
 10
-37.2222
 20
-379.1535
 30
0.0
  0
VERTEX
  5
36E
  8
LAYER_1
  6
NEW_LINE4
 62
    20
 10
-37.2222
 20
-301.1535
 30
0.0
  0
VERTEX
  5
36F
  8
LAYER_1
  6
NEW_LINE4
 62
    20
 10
-58.2222
 20
-301.1535
 30
0.0
  0
VERTEX
  5
370
  8
LAYER_1
  6
NEW_LINE4
 62
    20
 10
-58.2222
 20
-379.1535
 30
0.0
  0
SEQEND
  5
4D6
  8
LAYER_1
  6
NEW_LINE4
 62
    20
  0
POLYLINE
  5
8E
  8
LAYER_1
 62
   250
 66
     1
 10
0.0
 20
0.0
 30
0.0
 70
     1
  0
VERTEX
  5
371
  8
LAYER_1
 62
   250
 10
-47.7222
 20
-310.9955
 30
0.0
  0
VERTEX
  5
372
  8
LAYER_1
 62
   250
 10
-48.0222489152608
 20
-311.0250522387398
 30
0.0
  0
VERTEX
  5
373
  8
LAYER_1
 62
   250
 10
-48.31076711897751
 20
-311.1125732789977
 30
0.0
  0
VERTEX
  5
374
  8
LAYER_1
 62
   250
 10
-48.57666701838415
 20
-311.2546997362787
 30
0.0
  0
VERTEX
  5
375
  8
LAYER_1
 62
   250
 10
-48.80973022946491
 20
-311.4459697705351
 30
0.0
  0
VERTEX
  5
376
  8
LAYER_1
 62
   250
 10
-49.00100026372132
 20
-311.6790329816159
 30
0.0
  0
VERTEX
  5
377
  8
LAYER_1
 62
   250
 10
-49.14312672100236
 20
-311.9449328810225
 30
0.0
  0
VERTEX
  5
378
  8
LAYER_1
 62
   250
 10
-49.23064776126017
 20
-312.2334510847392
 30
0.0
  0
VERTEX
  5
379
  8
LAYER_1
 62
   250
 10
-49.2602
 20
-312.5335
 30
0.0
  0
VERTEX
  5
37A
  8
LAYER_1
 62
   250
 10
-49.23064776126017
 20
-312.8335489152608
 30
0.0
  0
VERTEX
  5
37B
  8
LAYER_1
 62
   250
 10
-49.14312672100236
 20
-313.1220671189775
 30
0.0
  0
VERTEX
  5
37C
  8
LAYER_1
 62
   250
 10
-49.00100026372132
 20
-313.3879670183841
 30
0.0
  0
VERTEX
  5
37D
  8
LAYER_1
 62
   250
 10
-48.80973022946491
 20
-313.6210302294649
 30
0.0
  0
VERTEX
  5
37E
  8
LAYER_1
 62
   250
 10
-48.57666701838415
 20
-313.8123002637213
 30
0.0
  0
VERTEX
  5
37F
  8
LAYER_1
 62
   250
 10
-48.31076711897751
 20
-313.9544267210023
 30
0.0
  0
VERTEX
  5
380
  8
LAYER_1
 62
   250
 10
-48.0222489152608
 20
-314.0419477612602
 30
0.0
  0
VERTEX
  5
381
  8
LAYER_1
 62
   250
 10
-47.7222
 20
-314.0715
 30
0.0
  0
VERTEX
  5
382
  8
LAYER_1
 62
   250
 10
-47.42215108473919
 20
-314.0419477612602
 30
0.0
  0
VERTEX
  5
383
  8
LAYER_1
 62
   250
 10
-47.13363288102249
 20
-313.9544267210023
 30
0.0
  0
VERTEX
  5
384
  8
LAYER_1
 62
   250
 10
-46.86773298161585
 20
-313.8123002637213
 30
0.0
  0
VERTEX
  5
385
  8
LAYER_1
 62
   250
 10
-46.63466977053509
 20
-313.6210302294649
 30
0.0
  0
VERTEX
  5
386
  8
LAYER_1
 62
   250
 10
-46.44339973627869
 20
-313.3879670183841
 30
0.0
  0
VERTEX
  5
387
  8
LAYER_1
 62
   250
 10
-46.30127327899764
 20
-313.1220671189775
 30
0.0
  0
VERTEX
  5
388
  8
LAYER_1
 62
   250
 10
-46.21375223873983
 20
-312.8335489152608
 30
0.0
  0
VERTEX
  5
389
  8
LAYER_1
 62
   250
 10
-46.1842
 20
-312.5335
 30
0.0
  0
VERTEX
  5
38A
  8
LAYER_1
 62
   250
 10
-46.21375223873984
 20
-312.2334510847392
 30
0.0
  0
VERTEX
  5
38B
  8
LAYER_1
 62
   250
 10
-46.30127327899764
 20
-311.9449328810225
 30
0.0
  0
VERTEX
  5
38C
  8
LAYER_1
 62
   250
 10
-46.44339973627869
 20
-311.6790329816159
 30
0.0
  0
VERTEX
  5
38D
  8
LAYER_1
 62
   250
 10
-46.6346697705351
 20
-311.4459697705351
 30
0.0
  0
VERTEX
  5
38E
  8
LAYER_1
 62
   250
 10
-46.86773298161586
 20
-311.2546997362787
 30
0.0
  0
VERTEX
  5
38F
  8
LAYER_1
 62
   250
 10
-47.1336328810225
 20
-311.1125732789976
 30
0.0
  0
VERTEX
  5
390
  8
LAYER_1
 62
   250
 10
-47.4221510847392
 20
-311.0250522387398
 30
0.0
  0
SEQEND
  5
4D7
  8
LAYER_1
 62
   250
  0
POLYLINE
  5
8F
  8
LAYER_1
 62
   250
 66
     1
 10
0.0
 20
0.0
 30
0.0
 70
     1
  0
VERTEX
  5
391
  8
LAYER_1
 62
   250
 10
-47.7222
 20
-366.2355
 30
0.0
  0
VERTEX
  5
392
  8
LAYER_1
 62
   250
 10
-48.0222489152608
 20
-366.2650522387398
 30
0.0
  0
VERTEX
  5
393
  8
LAYER_1
 62
   250
 10
-48.31076711897751
 20
-366.3525732789977
 30
0.0
  0
VERTEX
  5
394
  8
LAYER_1
 62
   250
 10
-48.57666701838415
 20
-366.4946997362787
 30
0.0
  0
VERTEX
  5
395
  8
LAYER_1
 62
   250
 10
-48.80973022946491
 20
-366.6859697705351
 30
0.0
  0
VERTEX
  5
396
  8
LAYER_1
 62
   250
 10
-49.00100026372132
 20
-366.9190329816159
 30
0.0
  0
VERTEX
  5
397
  8
LAYER_1
 62
   250
 10
-49.14312672100236
 20
-367.1849328810225
 30
0.0
  0
VERTEX
  5
398
  8
LAYER_1
 62
   250
 10
-49.23064776126017
 20
-367.4734510847392
 30
0.0
  0
VERTEX
  5
399
  8
LAYER_1
 62
   250
 10
-49.2602
 20
-367.7735
 30
0.0
  0
VERTEX
  5
39A
  8
LAYER_1
 62
   250
 10
-49.23064776126017
 20
-368.0735489152608
 30
0.0
  0
VERTEX
  5
39B
  8
LAYER_1
 62
   250
 10
-49.14312672100236
 20
-368.3620671189775
 30
0.0
  0
VERTEX
  5
39C
  8
LAYER_1
 62
   250
 10
-49.00100026372132
 20
-368.6279670183841
 30
0.0
  0
VERTEX
  5
39D
  8
LAYER_1
 62
   250
 10
-48.80973022946491
 20
-368.8610302294649
 30
0.0
  0
VERTEX
  5
39E
  8
LAYER_1
 62
   250
 10
-48.57666701838415
 20
-369.0523002637213
 30
0.0
  0
VERTEX
  5
39F
  8
LAYER_1
 62
   250
 10
-48.31076711897751
 20
-369.1944267210023
 30
0.0
  0
VERTEX
  5
3A0
  8
LAYER_1
 62
   250
 10
-48.0222489152608
 20
-369.2819477612602
 30
0.0
  0
VERTEX
  5
3A1
  8
LAYER_1
 62
   250
 10
-47.7222
 20
-369.3115
 30
0.0
  0
VERTEX
  5
3A2
  8
LAYER_1
 62
   250
 10
-47.42215108473919
 20
-369.2819477612602
 30
0.0
  0
VERTEX
  5
3A3
  8
LAYER_1
 62
   250
 10
-47.13363288102249
 20
-369.1944267210023
 30
0.0
  0
VERTEX
  5
3A4
  8
LAYER_1
 62
   250
 10
-46.86773298161585
 20
-369.0523002637213
 30
0.0
  0
VERTEX
  5
3A5
  8
LAYER_1
 62
   250
 10
-46.63466977053509
 20
-368.8610302294649
 30
0.0
  0
VERTEX
  5
3A6
  8
LAYER_1
 62
   250
 10
-46.44339973627869
 20
-368.6279670183841
 30
0.0
  0
VERTEX
  5
3A7
  8
LAYER_1
 62
   250
 10
-46.30127327899764
 20
-368.3620671189775
 30
0.0
  0
VERTEX
  5
3A8
  8
LAYER_1
 62
   250
 10
-46.21375223873983
 20
-368.0735489152608
 30
0.0
  0
VERTEX
  5
3A9
  8
LAYER_1
 62
   250
 10
-46.1842
 20
-367.7735
 30
0.0
  0
VERTEX
  5
3AA
  8
LAYER_1
 62
   250
 10
-46.21375223873984
 20
-367.4734510847392
 30
0.0
  0
VERTEX
  5
3AB
  8
LAYER_1
 62
   250
 10
-46.30127327899764
 20
-367.1849328810225
 30
0.0
  0
VERTEX
  5
3AC
  8
LAYER_1
 62
   250
 10
-46.44339973627869
 20
-366.9190329816159
 30
0.0
  0
VERTEX
  5
3AD
  8
LAYER_1
 62
   250
 10
-46.6346697705351
 20
-366.6859697705351
 30
0.0
  0
VERTEX
  5
3AE
  8
LAYER_1
 62
   250
 10
-46.86773298161586
 20
-366.4946997362787
 30
0.0
  0
VERTEX
  5
3AF
  8
LAYER_1
 62
   250
 10
-47.1336328810225
 20
-366.3525732789976
 30
0.0
  0
VERTEX
  5
3B0
  8
LAYER_1
 62
   250
 10
-47.4221510847392
 20
-366.2650522387398
 30
0.0
  0
SEQEND
  5
4D8
  8
LAYER_1
 62
   250
  0
POLYLINE
  5
90
  8
LAYER_1
  6
NEW_LINE5
 62
    20
 66
     1
 10
0.0
 20
0.0
 30
0.0
 70
     1
  0
VERTEX
  5
3B1
  8
LAYER_1
  6
NEW_LINE5
 62
    20
 10
42.4029
 20
-379.1535
 30
0.0
  0
VERTEX
  5
3B2
  8
LAYER_1
  6
NEW_LINE5
 62
    20
 10
63.4029
 20
-379.1535
 30
0.0
  0
VERTEX
  5
3B3
  8
LAYER_1
  6
NEW_LINE5
 62
    20
 10
63.4029
 20
-301.1535
 30
0.0
  0
VERTEX
  5
3B4
  8
LAYER_1
  6
NEW_LINE5
 62
    20
 10
42.4029
 20
-301.1535
 30
0.0
  0
VERTEX
  5
3B5
  8
LAYER_1
  6
NEW_LINE5
 62
    20
 10
42.4029
 20
-379.1535
 30
0.0
  0
SEQEND
  5
4D9
  8
LAYER_1
  6
NEW_LINE5
 62
    20
  0
POLYLINE
  5
92
  8
LAYER_1
 62
   250
 66
     1
 10
0.0
 20
0.0
 30
0.0
 70
     1
  0
VERTEX
  5
3B6
  8
LAYER_1
 62
   250
 10
52.9029
 20
-310.9955
 30
0.0
  0
VERTEX
  5
3B7
  8
LAYER_1
 62
   250
 10
52.6028510847392
 20
-311.0250522387398
 30
0.0
  0
VERTEX
  5
3B8
  8
LAYER_1
 62
   250
 10
52.31433288102249
 20
-311.1125732789977
 30
0.0
  0
VERTEX
  5
3B9
  8
LAYER_1
 62
   250
 10
52.04843298161585
 20
-311.2546997362787
 30
0.0
  0
VERTEX
  5
3BA
  8
LAYER_1
 62
   250
 10
51.81536977053509
 20
-311.4459697705351
 30
0.0
  0
VERTEX
  5
3BB
  8
LAYER_1
 62
   250
 10
51.62409973627869
 20
-311.6790329816159
 30
0.0
  0
VERTEX
  5
3BC
  8
LAYER_1
 62
   250
 10
51.48197327899764
 20
-311.9449328810225
 30
0.0
  0
VERTEX
  5
3BD
  8
LAYER_1
 62
   250
 10
51.39445223873983
 20
-312.2334510847392
 30
0.0
  0
VERTEX
  5
3BE
  8
LAYER_1
 62
   250
 10
51.36490000000001
 20
-312.5335
 30
0.0
  0
VERTEX
  5
3BF
  8
LAYER_1
 62
   250
 10
51.39445223873983
 20
-312.8335489152608
 30
0.0
  0
VERTEX
  5
3C0
  8
LAYER_1
 62
   250
 10
51.48197327899764
 20
-313.1220671189775
 30
0.0
  0
VERTEX
  5
3C1
  8
LAYER_1
 62
   250
 10
51.62409973627869
 20
-313.3879670183841
 30
0.0
  0
VERTEX
  5
3C2
  8
LAYER_1
 62
   250
 10
51.81536977053509
 20
-313.6210302294649
 30
0.0
  0
VERTEX
  5
3C3
  8
LAYER_1
 62
   250
 10
52.04843298161585
 20
-313.8123002637213
 30
0.0
  0
VERTEX
  5
3C4
  8
LAYER_1
 62
   250
 10
52.31433288102249
 20
-313.9544267210023
 30
0.0
  0
VERTEX
  5
3C5
  8
LAYER_1
 62
   250
 10
52.6028510847392
 20
-314.0419477612602
 30
0.0
  0
VERTEX
  5
3C6
  8
LAYER_1
 62
   250
 10
52.9029
 20
-314.0715
 30
0.0
  0
VERTEX
  5
3C7
  8
LAYER_1
 62
   250
 10
53.20294891526081
 20
-314.0419477612602
 30
0.0
  0
VERTEX
  5
3C8
  8
LAYER_1
 62
   250
 10
53.49146711897751
 20
-313.9544267210023
 30
0.0
  0
VERTEX
  5
3C9
  8
LAYER_1
 62
   250
 10
53.75736701838415
 20
-313.8123002637213
 30
0.0
  0
VERTEX
  5
3CA
  8
LAYER_1
 62
   250
 10
53.99043022946491
 20
-313.6210302294649
 30
0.0
  0
VERTEX
  5
3CB
  8
LAYER_1
 62
   250
 10
54.18170026372132
 20
-313.3879670183841
 30
0.0
  0
VERTEX
  5
3CC
  8
LAYER_1
 62
   250
 10
54.32382672100236
 20
-313.1220671189775
 30
0.0
  0
VERTEX
  5
3CD
  8
LAYER_1
 62
   250
 10
54.41134776126017
 20
-312.8335489152608
 30
0.0
  0
VERTEX
  5
3CE
  8
LAYER_1
 62
   250
 10
54.4409
 20
-312.5335
 30
0.0
  0
VERTEX
  5
3CF
  8
LAYER_1
 62
   250
 10
54.41134776126017
 20
-312.2334510847392
 30
0.0
  0
VERTEX
  5
3D0
  8
LAYER_1
 62
   250
 10
54.32382672100236
 20
-311.9449328810225
 30
0.0
  0
VERTEX
  5
3D1
  8
LAYER_1
 62
   250
 10
54.18170026372131
 20
-311.6790329816159
 30
0.0
  0
VERTEX
  5
3D2
  8
LAYER_1
 62
   250
 10
53.99043022946491
 20
-311.4459697705351
 30
0.0
  0
VERTEX
  5
3D3
  8
LAYER_1
 62
   250
 10
53.75736701838414
 20
-311.2546997362787
 30
0.0
  0
VERTEX
  5
3D4
  8
LAYER_1
 62
   250
 10
53.4914671189775
 20
-311.1125732789976
 30
0.0
  0
VERTEX
  5
3D5
  8
LAYER_1
 62
   250
 10
53.20294891526081
 20
-311.0250522387398
 30
0.0
  0
SEQEND
  5
4DA
  8
LAYER_1
 62
   250
  0
POLYLINE
  5
93
  8
LAYER_1
 62
   250
 66
     1
 10
0.0
 20
0.0
 30
0.0
 70
     1
  0
VERTEX
  5
3D6
  8
LAYER_1
 62
   250
 10
52.9029
 20
-366.2355
 30
0.0
  0
VERTEX
  5
3D7
  8
LAYER_1
 62
   250
 10
52.6028510847392
 20
-366.2650522387398
 30
0.0
  0
VERTEX
  5
3D8
  8
LAYER_1
 62
   250
 10
52.31433288102249
 20
-366.3525732789977
 30
0.0
  0
VERTEX
  5
3D9
  8
LAYER_1
 62
   250
 10
52.04843298161585
 20
-366.4946997362787
 30
0.0
  0
VERTEX
  5
3DA
  8
LAYER_1
 62
   250
 10
51.81536977053509
 20
-366.6859697705351
 30
0.0
  0
VERTEX
  5
3DB
  8
LAYER_1
 62
   250
 10
51.62409973627869
 20
-366.9190329816159
 30
0.0
  0
VERTEX
  5
3DC
  8
LAYER_1
 62
   250
 10
51.48197327899764
 20
-367.1849328810225
 30
0.0
  0
VERTEX
  5
3DD
  8
LAYER_1
 62
   250
 10
51.39445223873983
 20
-367.4734510847392
 30
0.0
  0
VERTEX
  5
3DE
  8
LAYER_1
 62
   250
 10
51.36490000000001
 20
-367.7735
 30
0.0
  0
VERTEX
  5
3DF
  8
LAYER_1
 62
   250
 10
51.39445223873983
 20
-368.0735489152608
 30
0.0
  0
VERTEX
  5
3E0
  8
LAYER_1
 62
   250
 10
51.48197327899764
 20
-368.3620671189775
 30
0.0
  0
VERTEX
  5
3E1
  8
LAYER_1
 62
   250
 10
51.62409973627869
 20
-368.6279670183841
 30
0.0
  0
VERTEX
  5
3E2
  8
LAYER_1
 62
   250
 10
51.81536977053509
 20
-368.8610302294649
 30
0.0
  0
VERTEX
  5
3E3
  8
LAYER_1
 62
   250
 10
52.04843298161585
 20
-369.0523002637213
 30
0.0
  0
VERTEX
  5
3E4
  8
LAYER_1
 62
   250
 10
52.31433288102249
 20
-369.1944267210023
 30
0.0
  0
VERTEX
  5
3E5
  8
LAYER_1
 62
   250
 10
52.6028510847392
 20
-369.2819477612602
 30
0.0
  0
VERTEX
  5
3E6
  8
LAYER_1
 62
   250
 10
52.9029
 20
-369.3115
 30
0.0
  0
VERTEX
  5
3E7
  8
LAYER_1
 62
   250
 10
53.20294891526081
 20
-369.2819477612602
 30
0.0
  0
VERTEX
  5
3E8
  8
LAYER_1
 62
   250
 10
53.49146711897751
 20
-369.1944267210023
 30
0.0
  0
VERTEX
  5
3E9
  8
LAYER_1
 62
   250
 10
53.75736701838415
 20
-369.0523002637213
 30
0.0
  0
VERTEX
  5
3EA
  8
LAYER_1
 62
   250
 10
53.99043022946491
 20
-368.8610302294649
 30
0.0
  0
VERTEX
  5
3EB
  8
LAYER_1
 62
   250
 10
54.18170026372132
 20
-368.6279670183841
 30
0.0
  0
VERTEX
  5
3EC
  8
LAYER_1
 62
   250
 10
54.32382672100236
 20
-368.3620671189775
 30
0.0
  0
VERTEX
  5
3ED
  8
LAYER_1
 62
   250
 10
54.41134776126017
 20
-368.0735489152608
 30
0.0
  0
VERTEX
  5
3EE
  8
LAYER_1
 62
   250
 10
54.4409
 20
-367.7735
 30
0.0
  0
VERTEX
  5
3EF
  8
LAYER_1
 62
   250
 10
54.41134776126017
 20
-367.4734510847392
 30
0.0
  0
VERTEX
  5
3F0
  8
LAYER_1
 62
   250
 10
54.32382672100236
 20
-367.1849328810225
 30
0.0
  0
VERTEX
  5
3F1
  8
LAYER_1
 62
   250
 10
54.18170026372131
 20
-366.9190329816159
 30
0.0
  0
VERTEX
  5
3F2
  8
LAYER_1
 62
   250
 10
53.99043022946491
 20
-366.6859697705351
 30
0.0
  0
VERTEX
  5
3F3
  8
LAYER_1
 62
   250
 10
53.75736701838414
 20
-366.4946997362787
 30
0.0
  0
VERTEX
  5
3F4
  8
LAYER_1
 62
   250
 10
53.4914671189775
 20
-366.3525732789976
 30
0.0
  0
VERTEX
  5
3F5
  8
LAYER_1
 62
   250
 10
53.20294891526081
 20
-366.2650522387398
 30
0.0
  0
SEQEND
  5
4DB
  8
LAYER_1
 62
   250
  0
POLYLINE
  5
94
  8
LAYER_1
  6
NEW_LINE6
 62
    20
 66
     1
 10
0.0
 20
0.0
 30
0.0
 70
     1
  0
VERTEX
  5
3F6
  8
LAYER_1
  6
NEW_LINE6
 62
    20
 10
-36.4271
 20
-384.0969
 30
0.0
  0
VERTEX
  5
3F7
  8
LAYER_1
  6
NEW_LINE6
 62
    20
 10
-36.4271
 20
-363.0969
 30
0.0
  0
VERTEX
  5
3F8
  8
LAYER_1
  6
NEW_LINE6
 62
    20
 10
41.5729
 20
-363.0969
 30
0.0
  0
VERTEX
  5
3F9
  8
LAYER_1
  6
NEW_LINE6
 62
    20
 10
41.5729
 20
-384.0969
 30
0.0
  0
VERTEX
  5
3FA
  8
LAYER_1
  6
NEW_LINE6
 62
    20
 10
-36.4271
 20
-384.0969
 30
0.0
  0
SEQEND
  5
4DC
  8
LAYER_1
  6
NEW_LINE6
 62
    20
  0
POLYLINE
  5
96
  8
LAYER_1
 62
   250
 66
     1
 10
0.0
 20
0.0
 30
0.0
 70
     1
  0
VERTEX
  5
3FB
  8
LAYER_1
 62
   250
 10
-26.5851
 20
-373.5969
 30
0.0
  0
VERTEX
  5
3FC
  8
LAYER_1
 62
   250
 10
-26.5539
 20
-373.9069
 30
0.0
  0
VERTEX
  5
3FD
  8
LAYER_1
 62
   250
 10
-26.4642
 20
-374.1956
 30
0.0
  0
VERTEX
  5
3FE
  8
LAYER_1
 62
   250
 10
-26.3224
 20
-374.4568
 30
0.0
  0
VERTEX
  5
3FF
  8
LAYER_1
 62
   250
 10
-26.1346
 20
-374.6844
 30
0.0
  0
VERTEX
  5
400
  8
LAYER_1
 62
   250
 10
-25.907
 20
-374.8722
 30
0.0
  0
VERTEX
  5
401
  8
LAYER_1
 62
   250
 10
-25.6458
 20
-375.014
 30
0.0
  0
VERTEX
  5
402
  8
LAYER_1
 62
   250
 10
-25.3571
 20
-375.1037
 30
0.0
  0
VERTEX
  5
403
  8
LAYER_1
 62
   250
 10
-25.0471
 20
-375.1349
 30
0.0
  0
VERTEX
  5
404
  8
LAYER_1
 62
   250
 10
-24.7371
 20
-375.1037
 30
0.0
  0
VERTEX
  5
405
  8
LAYER_1
 62
   250
 10
-24.4484
 20
-375.014
 30
0.0
  0
VERTEX
  5
406
  8
LAYER_1
 62
   250
 10
-24.1872
 20
-374.8722
 30
0.0
  0
VERTEX
  5
407
  8
LAYER_1
 62
   250
 10
-23.9596
 20
-374.6844
 30
0.0
  0
VERTEX
  5
408
  8
LAYER_1
 62
   250
 10
-23.7718
 20
-374.4568
 30
0.0
  0
VERTEX
  5
409
  8
LAYER_1
 62
   250
 10
-23.63
 20
-374.1956
 30
0.0
  0
VERTEX
  5
40A
  8
LAYER_1
 62
   250
 10
-23.5403
 20
-373.9069
 30
0.0
  0
VERTEX
  5
40B
  8
LAYER_1
 62
   250
 10
-23.5091
 20
-373.5969
 30
0.0
  0
VERTEX
  5
40C
  8
LAYER_1
 62
   250
 10
-23.5403
 20
-373.2869
 30
0.0
  0
VERTEX
  5
40D
  8
LAYER_1
 62
   250
 10
-23.63
 20
-372.9982
 30
0.0
  0
VERTEX
  5
40E
  8
LAYER_1
 62
   250
 10
-23.7718
 20
-372.737
 30
0.0
  0
VERTEX
  5
40F
  8
LAYER_1
 62
   250
 10
-23.9596
 20
-372.5094
 30
0.0
  0
VERTEX
  5
410
  8
LAYER_1
 62
   250
 10
-24.1872
 20
-372.3216
 30
0.0
  0
VERTEX
  5
411
  8
LAYER_1
 62
   250
 10
-24.4484
 20
-372.1798
 30
0.0
  0
VERTEX
  5
412
  8
LAYER_1
 62
   250
 10
-24.7371
 20
-372.0901
 30
0.0
  0
VERTEX
  5
413
  8
LAYER_1
 62
   250
 10
-25.0471
 20
-372.0589
 30
0.0
  0
VERTEX
  5
414
  8
LAYER_1
 62
   250
 10
-25.3571
 20
-372.0901
 30
0.0
  0
VERTEX
  5
415
  8
LAYER_1
 62
   250
 10
-25.6458
 20
-372.1798
 30
0.0
  0
VERTEX
  5
416
  8
LAYER_1
 62
   250
 10
-25.907
 20
-372.3216
 30
0.0
  0
VERTEX
  5
417
  8
LAYER_1
 62
   250
 10
-26.1346
 20
-372.5094
 30
0.0
  0
VERTEX
  5
418
  8
LAYER_1
 62
   250
 10
-26.3224
 20
-372.737
 30
0.0
  0
VERTEX
  5
419
  8
LAYER_1
 62
   250
 10
-26.4642
 20
-372.9982
 30
0.0
  0
VERTEX
  5
41A
  8
LAYER_1
 62
   250
 10
-26.5539
 20
-373.2869
 30
0.0
  0
VERTEX
  5
41B
  8
LAYER_1
 62
   250
 10
-26.5851
 20
-373.5969
 30
0.0
  0
SEQEND
  5
4DD
  8
LAYER_1
 62
   250
  0
POLYLINE
  5
97
  8
LAYER_1
 62
   250
 66
     1
 10
0.0
 20
0.0
 30
0.0
 70
     1
  0
VERTEX
  5
41C
  8
LAYER_1
 62
   250
 10
28.6549
 20
-373.5969
 30
0.0
  0
VERTEX
  5
41D
  8
LAYER_1
 62
   250
 10
28.6861
 20
-373.9069
 30
0.0
  0
VERTEX
  5
41E
  8
LAYER_1
 62
   250
 10
28.7758
 20
-374.1956
 30
0.0
  0
VERTEX
  5
41F
  8
LAYER_1
 62
   250
 10
28.9176
 20
-374.4568
 30
0.0
  0
VERTEX
  5
420
  8
LAYER_1
 62
   250
 10
29.1054
 20
-374.6844
 30
0.0
  0
VERTEX
  5
421
  8
LAYER_1
 62
   250
 10
29.333
 20
-374.8722
 30
0.0
  0
VERTEX
  5
422
  8
LAYER_1
 62
   250
 10
29.5942
 20
-375.014
 30
0.0
  0
VERTEX
  5
423
  8
LAYER_1
 62
   250
 10
29.8829
 20
-375.1037
 30
0.0
  0
VERTEX
  5
424
  8
LAYER_1
 62
   250
 10
30.1929
 20
-375.1349
 30
0.0
  0
VERTEX
  5
425
  8
LAYER_1
 62
   250
 10
30.5029
 20
-375.1037
 30
0.0
  0
VERTEX
  5
426
  8
LAYER_1
 62
   250
 10
30.7916
 20
-375.014
 30
0.0
  0
VERTEX
  5
427
  8
LAYER_1
 62
   250
 10
31.0528
 20
-374.8722
 30
0.0
  0
VERTEX
  5
428
  8
LAYER_1
 62
   250
 10
31.2804
 20
-374.6844
 30
0.0
  0
VERTEX
  5
429
  8
LAYER_1
 62
   250
 10
31.4682
 20
-374.4568
 30
0.0
  0
VERTEX
  5
42A
  8
LAYER_1
 62
   250
 10
31.61
 20
-374.1956
 30
0.0
  0
VERTEX
  5
42B
  8
LAYER_1
 62
   250
 10
31.6997
 20
-373.9069
 30
0.0
  0
VERTEX
  5
42C
  8
LAYER_1
 62
   250
 10
31.7309
 20
-373.5969
 30
0.0
  0
VERTEX
  5
42D
  8
LAYER_1
 62
   250
 10
31.6997
 20
-373.2869
 30
0.0
  0
VERTEX
  5
42E
  8
LAYER_1
 62
   250
 10
31.61
 20
-372.9982
 30
0.0
  0
VERTEX
  5
42F
  8
LAYER_1
 62
   250
 10
31.4682
 20
-372.737
 30
0.0
  0
VERTEX
  5
430
  8
LAYER_1
 62
   250
 10
31.2804
 20
-372.5094
 30
0.0
  0
VERTEX
  5
431
  8
LAYER_1
 62
   250
 10
31.0528
 20
-372.3216
 30
0.0
  0
VERTEX
  5
432
  8
LAYER_1
 62
   250
 10
30.7916
 20
-372.1798
 30
0.0
  0
VERTEX
  5
433
  8
LAYER_1
 62
   250
 10
30.5029
 20
-372.0901
 30
0.0
  0
VERTEX
  5
434
  8
LAYER_1
 62
   250
 10
30.1929
 20
-372.0589
 30
0.0
  0
VERTEX
  5
435
  8
LAYER_1
 62
   250
 10
29.8829
 20
-372.0901
 30
0.0
  0
VERTEX
  5
436
  8
LAYER_1
 62
   250
 10
29.5942
 20
-372.1798
 30
0.0
  0
VERTEX
  5
437
  8
LAYER_1
 62
   250
 10
29.333
 20
-372.3216
 30
0.0
  0
VERTEX
  5
438
  8
LAYER_1
 62
   250
 10
29.1054
 20
-372.5094
 30
0.0
  0
VERTEX
  5
439
  8
LAYER_1
 62
   250
 10
28.9176
 20
-372.737
 30
0.0
  0
VERTEX
  5
43A
  8
LAYER_1
 62
   250
 10
28.7758
 20
-372.9982
 30
0.0
  0
VERTEX
  5
43B
  8
LAYER_1
 62
   250
 10
28.6861
 20
-373.2869
 30
0.0
  0
VERTEX
  5
43C
  8
LAYER_1
 62
   250
 10
28.6549
 20
-373.5969
 30
0.0
  0
SEQEND
  5
4DE
  8
LAYER_1
 62
   250
  0
POLYLINE
  5
98
  8
LAYER_1
 62
   250
 66
     1
 10
0.0
 20
0.0
 30
0.0
 70
     1
  0
VERTEX
  5
43D
  8
LAYER_1
 62
   250
 10
-66.6
 20
-304.7183
 30
0.0
  0
VERTEX
  5
43E
  8
LAYER_1
 62
   250
 10
-67.08772580504032
 20
-304.7663367989919
 30
0.0
  0
VERTEX
  5
43F
  8
LAYER_1
 62
   250
 10
-67.55670858091271
 20
-304.9086011687218
 30
0.0
  0
VERTEX
  5
440
  8
LAYER_1
 62
   250
 10
-67.988925582549
 20
-305.1396259692436
 30
0.0
  0
VERTEX
  5
441
  8
LAYER_1
 62
   250
 10
-68.36776695296636
 20
-305.4505330470336
 30
0.0
  0
VERTEX
  5
442
  8
LAYER_1
 62
   250
 10
-68.67867403075635
 20
-305.829374417451
 30
0.0
  0
VERTEX
  5
443
  8
LAYER_1
 62
   250
 10
-68.9096988312782
 20
-306.2615914190873
 30
0.0
  0
VERTEX
  5
444
  8
LAYER_1
 62
   250
 10
-69.05196320100806
 20
-306.7305741949597
 30
0.0
  0
VERTEX
  5
445
  8
LAYER_1
 62
   250
 10
-69.1
 20
-307.2183
 30
0.0
  0
VERTEX
  5
446
  8
LAYER_1
 62
   250
 10
-69.05196320100806
 20
-307.7060258050403
 30
0.0
  0
VERTEX
  5
447
  8
LAYER_1
 62
   250
 10
-68.9096988312782
 20
-308.1750085809127
 30
0.0
  0
VERTEX
  5
448
  8
LAYER_1
 62
   250
 10
-68.67867403075635
 20
-308.607225582549
 30
0.0
  0
VERTEX
  5
449
  8
LAYER_1
 62
   250
 10
-68.36776695296636
 20
-308.9860669529664
 30
0.0
  0
VERTEX
  5
44A
  8
LAYER_1
 62
   250
 10
-67.988925582549
 20
-309.2969740307564
 30
0.0
  0
VERTEX
  5
44B
  8
LAYER_1
 62
   250
 10
-67.55670858091271
 20
-309.5279988312782
 30
0.0
  0
VERTEX
  5
44C
  8
LAYER_1
 62
   250
 10
-67.08772580504031
 20
-309.6702632010081
 30
0.0
  0
VERTEX
  5
44D
  8
LAYER_1
 62
   250
 10
-66.6
 20
-309.7183
 30
0.0
  0
VERTEX
  5
44E
  8
LAYER_1
 62
   250
 10
-66.11227419495967
 20
-309.6702632010081
 30
0.0
  0
VERTEX
  5
44F
  8
LAYER_1
 62
   250
 10
-65.64329141908726
 20
-309.5279988312782
 30
0.0
  0
VERTEX
  5
450
  8
LAYER_1
 62
   250
 10
-65.21107441745099
 20
-309.2969740307564
 30
0.0
  0
VERTEX
  5
451
  8
LAYER_1
 62
   250
 10
-64.83223304703363
 20
-308.9860669529664
 30
0.0
  0
VERTEX
  5
452
  8
LAYER_1
 62
   250
 10
-64.52132596924363
 20
-308.607225582549
 30
0.0
  0
VERTEX
  5
453
  8
LAYER_1
 62
   250
 10
-64.29030116872178
 20
-308.1750085809127
 30
0.0
  0
VERTEX
  5
454
  8
LAYER_1
 62
   250
 10
-64.14803679899191
 20
-307.7060258050403
 30
0.0
  0
VERTEX
  5
455
  8
LAYER_1
 62
   250
 10
-64.1
 20
-307.2183
 30
0.0
  0
VERTEX
  5
456
  8
LAYER_1
 62
   250
 10
-64.14803679899192
 20
-306.7305741949597
 30
0.0
  0
VERTEX
  5
457
  8
LAYER_1
 62
   250
 10
-64.29030116872178
 20
-306.2615914190873
 30
0.0
  0
VERTEX
  5
458
  8
LAYER_1
 62
   250
 10
-64.52132596924363
 20
-305.829374417451
 30
0.0
  0
VERTEX
  5
459
  8
LAYER_1
 62
   250
 10
-64.83223304703363
 20
-305.4505330470336
 30
0.0
  0
VERTEX
  5
45A
  8
LAYER_1
 62
   250
 10
-65.211074417451
 20
-305.1396259692436
 30
0.0
  0
VERTEX
  5
45B
  8
LAYER_1
 62
   250
 10
-65.64329141908728
 20
-304.9086011687218
 30
0.0
  0
VERTEX
  5
45C
  8
LAYER_1
 62
   250
 10
-66.11227419495968
 20
-304.7663367989919
 30
0.0
  0
SEQEND
  5
4DF
  8
LAYER_1
 62
   250
  0
POLYLINE
  5
99
  8
LAYER_1
 62
   250
 66
     1
 10
0.0
 20
0.0
 30
0.0
 70
     1
  0
VERTEX
  5
45D
  8
LAYER_1
 62
   250
 10
73.4
 20
-304.7183
 30
0.0
  0
VERTEX
  5
45E
  8
LAYER_1
 62
   250
 10
72.91227419495968
 20
-304.7663367989919
 30
0.0
  0
VERTEX
  5
45F
  8
LAYER_1
 62
   250
 10
72.44329141908729
 20
-304.9086011687218
 30
0.0
  0
VERTEX
  5
460
  8
LAYER_1
 62
   250
 10
72.011074417451
 20
-305.1396259692436
 30
0.0
  0
VERTEX
  5
461
  8
LAYER_1
 62
   250
 10
71.63223304703364
 20
-305.4505330470336
 30
0.0
  0
VERTEX
  5
462
  8
LAYER_1
 62
   250
 10
71.32132596924365
 20
-305.829374417451
 30
0.0
  0
VERTEX
  5
463
  8
LAYER_1
 62
   250
 10
71.0903011687218
 20
-306.2615914190873
 30
0.0
  0
VERTEX
  5
464
  8
LAYER_1
 62
   250
 10
70.94803679899194
 20
-306.7305741949597
 30
0.0
  0
VERTEX
  5
465
  8
LAYER_1
 62
   250
 10
70.9
 20
-307.2183
 30
0.0
  0
VERTEX
  5
466
  8
LAYER_1
 62
   250
 10
70.94803679899194
 20
-307.7060258050403
 30
0.0
  0
VERTEX
  5
467
  8
LAYER_1
 62
   250
 10
71.0903011687218
 20
-308.1750085809127
 30
0.0
  0
VERTEX
  5
468
  8
LAYER_1
 62
   250
 10
71.32132596924365
 20
-308.607225582549
 30
0.0
  0
VERTEX
  5
469
  8
LAYER_1
 62
   250
 10
71.63223304703364
 20
-308.9860669529664
 30
0.0
  0
VERTEX
  5
46A
  8
LAYER_1
 62
   250
 10
72.011074417451
 20
-309.2969740307564
 30
0.0
  0
VERTEX
  5
46B
  8
LAYER_1
 62
   250
 10
72.44329141908729
 20
-309.5279988312782
 30
0.0
  0
VERTEX
  5
46C
  8
LAYER_1
 62
   250
 10
72.91227419495969
 20
-309.6702632010081
 30
0.0
  0
VERTEX
  5
46D
  8
LAYER_1
 62
   250
 10
73.4
 20
-309.7183
 30
0.0
  0
VERTEX
  5
46E
  8
LAYER_1
 62
   250
 10
73.88772580504033
 20
-309.6702632010081
 30
0.0
  0
VERTEX
  5
46F
  8
LAYER_1
 62
   250
 10
74.35670858091274
 20
-309.5279988312782
 30
0.0
  0
VERTEX
  5
470
  8
LAYER_1
 62
   250
 10
74.78892558254901
 20
-309.2969740307564
 30
0.0
  0
VERTEX
  5
471
  8
LAYER_1
 62
   250
 10
75.16776695296637
 20
-308.9860669529664
 30
0.0
  0
VERTEX
  5
472
  8
LAYER_1
 62
   250
 10
75.47867403075637
 20
-308.607225582549
 30
0.0
  0
VERTEX
  5
473
  8
LAYER_1
 62
   250
 10
75.70969883127822
 20
-308.1750085809127
 30
0.0
  0
VERTEX
  5
474
  8
LAYER_1
 62
   250
 10
75.85196320100809
 20
-307.7060258050403
 30
0.0
  0
VERTEX
  5
475
  8
LAYER_1
 62
   250
 10
75.9
 20
-307.2183
 30
0.0
  0
VERTEX
  5
476
  8
LAYER_1
 62
   250
 10
75.85196320100808
 20
-306.7305741949597
 30
0.0
  0
VERTEX
  5
477
  8
LAYER_1
 62
   250
 10
75.70969883127822
 20
-306.2615914190873
 30
0.0
  0
VERTEX
  5
478
  8
LAYER_1
 62
   250
 10
75.47867403075637
 20
-305.829374417451
 30
0.0
  0
VERTEX
  5
479
  8
LAYER_1
 62
   250
 10
75.16776695296637
 20
-305.4505330470336
 30
0.0
  0
VERTEX
  5
47A
  8
LAYER_1
 62
   250
 10
74.788925582549
 20
-305.1396259692436
 30
0.0
  0
VERTEX
  5
47B
  8
LAYER_1
 62
   250
 10
74.35670858091272
 20
-304.9086011687218
 30
0.0
  0
VERTEX
  5
47C
  8
LAYER_1
 62
   250
 10
73.88772580504032
 20
-304.7663367989919
 30
0.0
  0
SEQEND
  5
4E0
  8
LAYER_1
 62
   250
  0
POLYLINE
  5
9A
  8
LAYER_1
 62
   250
 66
     1
 10
0.0
 20
0.0
 30
0.0
 70
     1
  0
VERTEX
  5
47D
  8
LAYER_1
 62
   250
 10
-27.6291
 20
-356.3933
 30
0.0
  0
VERTEX
  5
47E
  8
LAYER_1
 62
   250
 10
-28.11682580504032
 20
-356.4413367989919
 30
0.0
  0
VERTEX
  5
47F
  8
LAYER_1
 62
   250
 10
-28.58580858091273
 20
-356.5836011687218
 30
0.0
  0
VERTEX
  5
480
  8
LAYER_1
 62
   250
 10
-29.01802558254901
 20
-356.8146259692437
 30
0.0
  0
VERTEX
  5
481
  8
LAYER_1
 62
   250
 10
-29.39686695296637
 20
-357.1255330470336
 30
0.0
  0
VERTEX
  5
482
  8
LAYER_1
 62
   250
 10
-29.70777403075637
 20
-357.504374417451
 30
0.0
  0
VERTEX
  5
483
  8
LAYER_1
 62
   250
 10
-29.93879883127822
 20
-357.9365914190873
 30
0.0
  0
VERTEX
  5
484
  8
LAYER_1
 62
   250
 10
-30.08106320100808
 20
-358.4055741949597
 30
0.0
  0
VERTEX
  5
485
  8
LAYER_1
 62
   250
 10
-30.1291
 20
-358.8933
 30
0.0
  0
VERTEX
  5
486
  8
LAYER_1
 62
   250
 10
-30.08106320100808
 20
-359.3810258050403
 30
0.0
  0
VERTEX
  5
487
  8
LAYER_1
 62
   250
 10
-29.93879883127822
 20
-359.8500085809127
 30
0.0
  0
VERTEX
  5
488
  8
LAYER_1
 62
   250
 10
-29.70777403075637
 20
-360.282225582549
 30
0.0
  0
VERTEX
  5
489
  8
LAYER_1
 62
   250
 10
-29.39686695296637
 20
-360.6610669529664
 30
0.0
  0
VERTEX
  5
48A
  8
LAYER_1
 62
   250
 10
-29.01802558254901
 20
-360.9719740307564
 30
0.0
  0
VERTEX
  5
48B
  8
LAYER_1
 62
   250
 10
-28.58580858091273
 20
-361.2029988312783
 30
0.0
  0
VERTEX
  5
48C
  8
LAYER_1
 62
   250
 10
-28.11682580504032
 20
-361.3452632010081
 30
0.0
  0
VERTEX
  5
48D
  8
LAYER_1
 62
   250
 10
-27.6291
 20
-361.3933
 30
0.0
  0
VERTEX
  5
48E
  8
LAYER_1
 62
   250
 10
-27.14137419495968
 20
-361.3452632010081
 30
0.0
  0
VERTEX
  5
48F
  8
LAYER_1
 62
   250
 10
-26.67239141908727
 20
-361.2029988312783
 30
0.0
  0
VERTEX
  5
490
  8
LAYER_1
 62
   250
 10
-26.24017441745099
 20
-360.9719740307564
 30
0.0
  0
VERTEX
  5
491
  8
LAYER_1
 62
   250
 10
-25.86133304703363
 20
-360.6610669529664
 30
0.0
  0
VERTEX
  5
492
  8
LAYER_1
 62
   250
 10
-25.55042596924363
 20
-360.282225582549
 30
0.0
  0
VERTEX
  5
493
  8
LAYER_1
 62
   250
 10
-25.31940116872178
 20
-359.8500085809127
 30
0.0
  0
VERTEX
  5
494
  8
LAYER_1
 62
   250
 10
-25.17713679899192
 20
-359.3810258050403
 30
0.0
  0
VERTEX
  5
495
  8
LAYER_1
 62
   250
 10
-25.1291
 20
-358.8933
 30
0.0
  0
VERTEX
  5
496
  8
LAYER_1
 62
   250
 10
-25.17713679899193
 20
-358.4055741949597
 30
0.0
  0
VERTEX
  5
497
  8
LAYER_1
 62
   250
 10
-25.31940116872179
 20
-357.9365914190873
 30
0.0
  0
VERTEX
  5
498
  8
LAYER_1
 62
   250
 10
-25.55042596924364
 20
-357.504374417451
 30
0.0
  0
VERTEX
  5
499
  8
LAYER_1
 62
   250
 10
-25.86133304703364
 20
-357.1255330470336
 30
0.0
  0
VERTEX
  5
49A
  8
LAYER_1
 62
   250
 10
-26.240174417451
 20
-356.8146259692437
 30
0.0
  0
VERTEX
  5
49B
  8
LAYER_1
 62
   250
 10
-26.67239141908729
 20
-356.5836011687218
 30
0.0
  0
VERTEX
  5
49C
  8
LAYER_1
 62
   250
 10
-27.14137419495969
 20
-356.4413367989919
 30
0.0
  0
SEQEND
  5
4E1
  8
LAYER_1
 62
   250
  0
POLYLINE
  5
9B
  8
LAYER_1
 62
   250
 66
     1
 10
0.0
 20
0.0
 30
0.0
 70
     1
  0
VERTEX
  5
49D
  8
LAYER_1
 62
   250
 10
34.4291
 20
-356.3933
 30
0.0
  0
VERTEX
  5
49E
  8
LAYER_1
 62
   250
 10
33.94137419495968
 20
-356.4413367989919
 30
0.0
  0
VERTEX
  5
49F
  8
LAYER_1
 62
   250
 10
33.47239141908727
 20
-356.5836011687218
 30
0.0
  0
VERTEX
  5
4A0
  8
LAYER_1
 62
   250
 10
33.04017441745099
 20
-356.8146259692437
 30
0.0
  0
VERTEX
  5
4A1
  8
LAYER_1
 62
   250
 10
32.66133304703363
 20
-357.1255330470336
 30
0.0
  0
VERTEX
  5
4A2
  8
LAYER_1
 62
   250
 10
32.35042596924364
 20
-357.504374417451
 30
0.0
  0
VERTEX
  5
4A3
  8
LAYER_1
 62
   250
 10
32.11940116872178
 20
-357.9365914190873
 30
0.0
  0
VERTEX
  5
4A4
  8
LAYER_1
 62
   250
 10
31.97713679899192
 20
-358.4055741949597
 30
0.0
  0
VERTEX
  5
4A5
  8
LAYER_1
 62
   250
 10
31.9291
 20
-358.8933
 30
0.0
  0
VERTEX
  5
4A6
  8
LAYER_1
 62
   250
 10
31.97713679899192
 20
-359.3810258050403
 30
0.0
  0
VERTEX
  5
4A7
  8
LAYER_1
 62
   250
 10
32.11940116872178
 20
-359.8500085809127
 30
0.0
  0
VERTEX
  5
4A8
  8
LAYER_1
 62
   250
 10
32.35042596924364
 20
-360.282225582549
 30
0.0
  0
VERTEX
  5
4A9
  8
LAYER_1
 62
   250
 10
32.66133304703363
 20
-360.6610669529664
 30
0.0
  0
VERTEX
  5
4AA
  8
LAYER_1
 62
   250
 10
33.04017441745099
 20
-360.9719740307564
 30
0.0
  0
VERTEX
  5
4AB
  8
LAYER_1
 62
   250
 10
33.47239141908727
 20
-361.2029988312783
 30
0.0
  0
VERTEX
  5
4AC
  8
LAYER_1
 62
   250
 10
33.94137419495968
 20
-361.3452632010081
 30
0.0
  0
VERTEX
  5
4AD
  8
LAYER_1
 62
   250
 10
34.4291
 20
-361.3933
 30
0.0
  0
VERTEX
  5
4AE
  8
LAYER_1
 62
   250
 10
34.91682580504032
 20
-361.3452632010081
 30
0.0
  0
VERTEX
  5
4AF
  8
LAYER_1
 62
   250
 10
35.38580858091272
 20
-361.2029988312783
 30
0.0
  0
VERTEX
  5
4B0
  8
LAYER_1
 62
   250
 10
35.81802558254901
 20
-360.9719740307564
 30
0.0
  0
VERTEX
  5
4B1
  8
LAYER_1
 62
   250
 10
36.19686695296637
 20
-360.6610669529664
 30
0.0
  0
VERTEX
  5
4B2
  8
LAYER_1
 62
   250
 10
36.50777403075637
 20
-360.282225582549
 30
0.0
  0
VERTEX
  5
4B3
  8
LAYER_1
 62
   250
 10
36.73879883127822
 20
-359.8500085809127
 30
0.0
  0
VERTEX
  5
4B4
  8
LAYER_1
 62
   250
 10
36.88106320100808
 20
-359.3810258050403
 30
0.0
  0
VERTEX
  5
4B5
  8
LAYER_1
 62
   250
 10
36.9291
 20
-358.8933
 30
0.0
  0
VERTEX
  5
4B6
  8
LAYER_1
 62
   250
 10
36.88106320100808
 20
-358.4055741949597
 30
0.0
  0
VERTEX
  5
4B7
  8
LAYER_1
 62
   250
 10
36.73879883127821
 20
-357.9365914190873
 30
0.0
  0
VERTEX
  5
4B8
  8
LAYER_1
 62
   250
 10
36.50777403075636
 20
-357.504374417451
 30
0.0
  0
VERTEX
  5
4B9
  8
LAYER_1
 62
   250
 10
36.19686695296636
 20
-357.1255330470336
 30
0.0
  0
VERTEX
  5
4BA
  8
LAYER_1
 62
   250
 10
35.818025582549
 20
-356.8146259692437
 30
0.0
  0
VERTEX
  5
4BB
  8
LAYER_1
 62
   250
 10
35.38580858091272
 20
-356.5836011687218
 30
0.0
  0
VERTEX
  5
4BC
  8
LAYER_1
 62
   250
 10
34.91682580504031
 20
-356.4413367989919
 30
0.0
  0
SEQEND
  5
4E2
  8
LAYER_1
 62
   250
  0
ENDSEC
  0
EOF
