  0
SECTION
  2
HEADER
  9
$ACADVER
  1
AC1006
  9
$DWGCODEPAGE
  3
ansi_1251
  9
$INSBASE
 10
0.0
 20
0.0
 30
0.0
  9
$EXTMIN
 10
127.4168
 20
-291.8704
  9
$EXTMAX
 10
185.493
 20
-249.7942
  9
$LIMMIN
 10
0.0
 20
0.0
  9
$LIMMAX
 10
12.0
 20
9.0
  9
$ORTHOMODE
 70
     0
  9
$REGENMODE
 70
     1
  9
$FILLMODE
 70
     1
  9
$QTEXTMODE
 70
     0
  9
$MIRRTEXT
 70
     1
  9
$DRAGMODE
 70
     2
  9
$LTSCALE
 40
1.0
  9
$OSMODE
 70
    37
  9
$ATTMODE
 70
     1
  9
$TEXTSIZE
 40
0.2
  9
$TRACEWID
 40
0.05
  9
$TEXTSTYLE
  7
STANDARD
  9
$CLAYER
  8
0
  9
$CELTYPE
  6
BYLAYER
  9
$CECOLOR
 62
   256
  9
$DIMSCALE
 40
1.0
  9
$DIMASZ
 40
0.18
  9
$DIMEXO
 40
0.0625
  9
$DIMDLI
 40
0.38
  9
$DIMRND
 40
0.0
  9
$DIMDLE
 40
0.0
  9
$DIMEXE
 40
0.18
  9
$DIMTP
 40
0.0
  9
$DIMTM
 40
0.0
  9
$DIMTXT
 40
0.18
  9
$DIMCEN
 40
0.09
  9
$DIMTSZ
 40
0.0
  9
$DIMTOL
 70
     0
  9
$DIMLIM
 70
     0
  9
$DIMTIH
 70
     1
  9
$DIMTOH
 70
     1
  9
$DIMSE1
 70
     0
  9
$DIMSE2
 70
     0
  9
$DIMTAD
 70
     0
  9
$DIMZIN
 70
     0
  9
$DIMBLK
  1

  9
$DIMASO
 70
     1
  9
$DIMSHO
 70
     1
  9
$DIMPOST
  1

  9
$DIMAPOST
  1

  9
$DIMALT
 70
     0
  9
$DIMALTD
 70
     2
  9
$DIMALTF
 40
25.4
  9
$DIMLFAC
 40
1.0
  9
$DIMTOFL
 70
     0
  9
$DIMTVP
 40
0.0
  9
$DIMTIX
 70
     0
  9
$DIMSOXD
 70
     0
  9
$DIMSAH
 70
     0
  9
$DIMBLK1
  1

  9
$DIMBLK2
  1

  9
$LUNITS
 70
     2
  9
$LUPREC
 70
     4
  9
$SKETCHINC
 40
0.1
  9
$FILLETRAD
 40
0.5
  9
$AUNITS
 70
     0
  9
$AUPREC
 70
     0
  9
$MENU
  1
.
  9
$ELEVATION
 40
0.0
  9
$THICKNESS
 40
0.0
  9
$LIMCHECK
 70
     0
  9
$CHAMFERA
 40
0.0
  9
$CHAMFERB
 40
0.0
  9
$SKPOLY
 70
     0
  9
$TDCREATE
 40
2458823.536697465
  9
$TDUPDATE
 40
2458823.536697465
  9
$TDINDWG
 40
0.0000000116
  9
$TDUSRTIMER
 40
0.0000000116
  9
$USRTIMER
 70
     1
  9
$ANGBASE
 50
0.0
  9
$ANGDIR
 70
     0
  9
$PDMODE
 70
     0
  9
$PDSIZE
 40
0.0
  9
$PLINEWID
 40
0.0
  9
$COORDS
 70
     1
  9
$SPLFRAME
 70
     0
  9
$SPLINETYPE
 70
     6
  9
$SPLINESEGS
 70
     8
  9
$ATTDIA
 70
     0
  9
$ATTREQ
 70
     1
  9
$HANDLING
 70
     1
  9
$HANDSEED
  5
26D
  9
$SURFTAB1
 70
     6
  9
$SURFTAB2
 70
     6
  9
$SURFTYPE
 70
     6
  9
$SURFU
 70
     6
  9
$SURFV
 70
     6
  9
$UCSNAME
  2

  9
$UCSORG
 10
0.0
 20
0.0
 30
0.0
  9
$UCSXDIR
 10
1.0
 20
0.0
 30
0.0
  9
$UCSYDIR
 10
0.0
 20
1.0
 30
0.0
  9
$USERI1
 70
     0
  9
$USERI2
 70
     0
  9
$USERI3
 70
     0
  9
$USERI4
 70
     0
  9
$USERI5
 70
     0
  9
$USERR1
 40
0.0
  9
$USERR2
 40
0.0
  9
$USERR3
 40
0.0
  9
$USERR4
 40
0.0
  9
$USERR5
 40
0.0
  9
$WORLDVIEW
 70
     1
  0
ENDSEC
  0
SECTION
  2
TABLES
  0
TABLE
  2
VPORT
 70
     1
  0
VPORT
  2
*ACTIVE
 70
     0
 10
0.0
 20
0.0
 11
1.0
 21
1.0
 12
10.42990654205607
 22
4.5
 13
0.0
 23
0.0
 14
0.5
 24
0.5
 15
0.5
 25
0.5
 16
0.0
 26
0.0
 36
1.0
 17
0.0
 27
0.0
 37
0.0
 40
9.0
 41
1.972972972850329
 42
50.0
 43
0.0
 44
0.0
 50
0.0
 51
0.0
 71
     0
 72
   100
 73
     1
 74
     3
 75
     0
 76
     0
 77
     0
 78
     0
  0
ENDTAB
  0
TABLE
  2
LTYPE
 70
     1
  0
LTYPE
  2
CONTINUOUS
 70
     0
  3
Solid line
 72
    65
 73
     0
 40
0.0
  0
ENDTAB
  0
TABLE
  2
LAYER
 70
     2
  0
LAYER
  2
0
 70
     0
 62
     7
  6
CONTINUOUS
  0
LAYER
  2
LAYER_1
 70
     0
 62
     7
  6
CONTINUOUS
  0
ENDTAB
  0
TABLE
  2
STYLE
 70
     1
  0
STYLE
  2
STANDARD
 70
     0
 40
0.0
 41
1.0
 50
0.0
 71
     0
 42
0.2
  3
txt
  4

  0
ENDTAB
  0
TABLE
  2
VIEW
 70
     0
  0
ENDTAB
  0
TABLE
  2
UCS
 70
     0
  0
ENDTAB
  0
ENDSEC
  0
SECTION
  2
BLOCKS
  0
ENDSEC
  0
SECTION
  2
ENTITIES
  0
POLYLINE
  5
70
  8
LAYER_1
 62
   250
 66
     1
 10
0.0
 20
0.0
 30
0.0
 70
     1
  0
VERTEX
  5
B3
  8
LAYER_1
 62
   250
 10
140.9049
 20
-284.8823
 30
0.0
  0
VERTEX
  5
B4
  8
LAYER_1
 62
   250
 10
140.6122645169758
 20
-284.9111220793951
 30
0.0
  0
VERTEX
  5
B5
  8
LAYER_1
 62
   250
 10
140.3308748514524
 20
-284.9964807012331
 30
0.0
  0
VERTEX
  5
B6
  8
LAYER_1
 62
   250
 10
140.0715446504706
 20
-285.1350955815462
 30
0.0
  0
VERTEX
  5
B7
  8
LAYER_1
 62
   250
 10
139.8442398282202
 20
-285.3216398282202
 30
0.0
  0
VERTEX
  5
B8
  8
LAYER_1
 62
   250
 10
139.6576955815462
 20
-285.5489446504706
 30
0.0
  0
VERTEX
  5
B9
  8
LAYER_1
 62
   250
 10
139.5190807012331
 20
-285.8082748514523
 30
0.0
  0
VERTEX
  5
BA
  8
LAYER_1
 62
   250
 10
139.4337220793952
 20
-286.0896645169758
 30
0.0
  0
VERTEX
  5
BB
  8
LAYER_1
 62
   250
 10
139.4049
 20
-286.3823
 30
0.0
  0
VERTEX
  5
BC
  8
LAYER_1
 62
   250
 10
139.4337220793952
 20
-286.6749354830242
 30
0.0
  0
VERTEX
  5
BD
  8
LAYER_1
 62
   250
 10
139.5190807012331
 20
-286.9563251485476
 30
0.0
  0
VERTEX
  5
BE
  8
LAYER_1
 62
   250
 10
139.6576955815462
 20
-287.2156553495294
 30
0.0
  0
VERTEX
  5
BF
  8
LAYER_1
 62
   250
 10
139.8442398282202
 20
-287.4429601717798
 30
0.0
  0
VERTEX
  5
C0
  8
LAYER_1
 62
   250
 10
140.0715446504706
 20
-287.6295044184538
 30
0.0
  0
VERTEX
  5
C1
  8
LAYER_1
 62
   250
 10
140.3308748514524
 20
-287.7681192987669
 30
0.0
  0
VERTEX
  5
C2
  8
LAYER_1
 62
   250
 10
140.6122645169758
 20
-287.8534779206049
 30
0.0
  0
VERTEX
  5
C3
  8
LAYER_1
 62
   250
 10
140.9049
 20
-287.8823
 30
0.0
  0
VERTEX
  5
C4
  8
LAYER_1
 62
   250
 10
141.1975354830242
 20
-287.8534779206049
 30
0.0
  0
VERTEX
  5
C5
  8
LAYER_1
 62
   250
 10
141.4789251485476
 20
-287.7681192987669
 30
0.0
  0
VERTEX
  5
C6
  8
LAYER_1
 62
   250
 10
141.7382553495294
 20
-287.6295044184538
 30
0.0
  0
VERTEX
  5
C7
  8
LAYER_1
 62
   250
 10
141.9655601717798
 20
-287.4429601717798
 30
0.0
  0
VERTEX
  5
C8
  8
LAYER_1
 62
   250
 10
142.1521044184538
 20
-287.2156553495294
 30
0.0
  0
VERTEX
  5
C9
  8
LAYER_1
 62
   250
 10
142.2907192987669
 20
-286.9563251485476
 30
0.0
  0
VERTEX
  5
CA
  8
LAYER_1
 62
   250
 10
142.3760779206048
 20
-286.6749354830242
 30
0.0
  0
VERTEX
  5
CB
  8
LAYER_1
 62
   250
 10
142.4049
 20
-286.3823
 30
0.0
  0
VERTEX
  5
CC
  8
LAYER_1
 62
   250
 10
142.3760779206048
 20
-286.0896645169758
 30
0.0
  0
VERTEX
  5
CD
  8
LAYER_1
 62
   250
 10
142.2907192987669
 20
-285.8082748514523
 30
0.0
  0
VERTEX
  5
CE
  8
LAYER_1
 62
   250
 10
142.1521044184538
 20
-285.5489446504706
 30
0.0
  0
VERTEX
  5
CF
  8
LAYER_1
 62
   250
 10
141.9655601717798
 20
-285.3216398282202
 30
0.0
  0
VERTEX
  5
D0
  8
LAYER_1
 62
   250
 10
141.7382553495294
 20
-285.1350955815462
 30
0.0
  0
VERTEX
  5
D1
  8
LAYER_1
 62
   250
 10
141.4789251485476
 20
-284.9964807012331
 30
0.0
  0
VERTEX
  5
D2
  8
LAYER_1
 62
   250
 10
141.1975354830242
 20
-284.9111220793951
 30
0.0
  0
SEQEND
  5
231
  8
LAYER_1
 62
   250
  0
POLYLINE
  5
71
  8
LAYER_1
 62
   250
 66
     1
 10
0.0
 20
0.0
 30
0.0
 70
     1
  0
VERTEX
  5
D3
  8
LAYER_1
 62
   250
 10
172.0049
 20
-284.8823
 30
0.0
  0
VERTEX
  5
D4
  8
LAYER_1
 62
   250
 10
171.7122645169758
 20
-284.9111220793951
 30
0.0
  0
VERTEX
  5
D5
  8
LAYER_1
 62
   250
 10
171.4308748514524
 20
-284.9964807012331
 30
0.0
  0
VERTEX
  5
D6
  8
LAYER_1
 62
   250
 10
171.1715446504706
 20
-285.1350955815462
 30
0.0
  0
VERTEX
  5
D7
  8
LAYER_1
 62
   250
 10
170.9442398282202
 20
-285.3216398282202
 30
0.0
  0
VERTEX
  5
D8
  8
LAYER_1
 62
   250
 10
170.7576955815462
 20
-285.5489446504706
 30
0.0
  0
VERTEX
  5
D9
  8
LAYER_1
 62
   250
 10
170.6190807012331
 20
-285.8082748514523
 30
0.0
  0
VERTEX
  5
DA
  8
LAYER_1
 62
   250
 10
170.5337220793951
 20
-286.0896645169758
 30
0.0
  0
VERTEX
  5
DB
  8
LAYER_1
 62
   250
 10
170.5049
 20
-286.3823
 30
0.0
  0
VERTEX
  5
DC
  8
LAYER_1
 62
   250
 10
170.5337220793951
 20
-286.6749354830242
 30
0.0
  0
VERTEX
  5
DD
  8
LAYER_1
 62
   250
 10
170.6190807012331
 20
-286.9563251485476
 30
0.0
  0
VERTEX
  5
DE
  8
LAYER_1
 62
   250
 10
170.7576955815462
 20
-287.2156553495294
 30
0.0
  0
VERTEX
  5
DF
  8
LAYER_1
 62
   250
 10
170.9442398282202
 20
-287.4429601717798
 30
0.0
  0
VERTEX
  5
E0
  8
LAYER_1
 62
   250
 10
171.1715446504706
 20
-287.6295044184538
 30
0.0
  0
VERTEX
  5
E1
  8
LAYER_1
 62
   250
 10
171.4308748514524
 20
-287.7681192987669
 30
0.0
  0
VERTEX
  5
E2
  8
LAYER_1
 62
   250
 10
171.7122645169758
 20
-287.8534779206049
 30
0.0
  0
VERTEX
  5
E3
  8
LAYER_1
 62
   250
 10
172.0049
 20
-287.8823
 30
0.0
  0
VERTEX
  5
E4
  8
LAYER_1
 62
   250
 10
172.2975354830242
 20
-287.8534779206049
 30
0.0
  0
VERTEX
  5
E5
  8
LAYER_1
 62
   250
 10
172.5789251485476
 20
-287.7681192987669
 30
0.0
  0
VERTEX
  5
E6
  8
LAYER_1
 62
   250
 10
172.8382553495294
 20
-287.6295044184538
 30
0.0
  0
VERTEX
  5
E7
  8
LAYER_1
 62
   250
 10
173.0655601717798
 20
-287.4429601717798
 30
0.0
  0
VERTEX
  5
E8
  8
LAYER_1
 62
   250
 10
173.2521044184538
 20
-287.2156553495294
 30
0.0
  0
VERTEX
  5
E9
  8
LAYER_1
 62
   250
 10
173.3907192987669
 20
-286.9563251485476
 30
0.0
  0
VERTEX
  5
EA
  8
LAYER_1
 62
   250
 10
173.4760779206048
 20
-286.6749354830242
 30
0.0
  0
VERTEX
  5
EB
  8
LAYER_1
 62
   250
 10
173.5049
 20
-286.3823
 30
0.0
  0
VERTEX
  5
EC
  8
LAYER_1
 62
   250
 10
173.4760779206048
 20
-286.0896645169758
 30
0.0
  0
VERTEX
  5
ED
  8
LAYER_1
 62
   250
 10
173.3907192987669
 20
-285.8082748514523
 30
0.0
  0
VERTEX
  5
EE
  8
LAYER_1
 62
   250
 10
173.2521044184538
 20
-285.5489446504706
 30
0.0
  0
VERTEX
  5
EF
  8
LAYER_1
 62
   250
 10
173.0655601717798
 20
-285.3216398282202
 30
0.0
  0
VERTEX
  5
F0
  8
LAYER_1
 62
   250
 10
172.8382553495294
 20
-285.1350955815462
 30
0.0
  0
VERTEX
  5
F1
  8
LAYER_1
 62
   250
 10
172.5789251485476
 20
-284.9964807012331
 30
0.0
  0
VERTEX
  5
F2
  8
LAYER_1
 62
   250
 10
172.2975354830242
 20
-284.9111220793951
 30
0.0
  0
SEQEND
  5
232
  8
LAYER_1
 62
   250
  0
POLYLINE
  5
72
  8
LAYER_1
 62
   250
 66
     1
 10
0.0
 20
0.0
 30
0.0
 70
     1
  0
VERTEX
  5
F3
  8
LAYER_1
 62
   250
 10
140.9049
 20
-253.7823
 30
0.0
  0
VERTEX
  5
F4
  8
LAYER_1
 62
   250
 10
140.6122645169758
 20
-253.8111220793951
 30
0.0
  0
VERTEX
  5
F5
  8
LAYER_1
 62
   250
 10
140.3308748514524
 20
-253.8964807012331
 30
0.0
  0
VERTEX
  5
F6
  8
LAYER_1
 62
   250
 10
140.0715446504706
 20
-254.0350955815462
 30
0.0
  0
VERTEX
  5
F7
  8
LAYER_1
 62
   250
 10
139.8442398282202
 20
-254.2216398282202
 30
0.0
  0
VERTEX
  5
F8
  8
LAYER_1
 62
   250
 10
139.6576955815462
 20
-254.4489446504706
 30
0.0
  0
VERTEX
  5
F9
  8
LAYER_1
 62
   250
 10
139.5190807012331
 20
-254.7082748514524
 30
0.0
  0
VERTEX
  5
FA
  8
LAYER_1
 62
   250
 10
139.4337220793952
 20
-254.9896645169758
 30
0.0
  0
VERTEX
  5
FB
  8
LAYER_1
 62
   250
 10
139.4049
 20
-255.2823
 30
0.0
  0
VERTEX
  5
FC
  8
LAYER_1
 62
   250
 10
139.4337220793952
 20
-255.5749354830242
 30
0.0
  0
VERTEX
  5
FD
  8
LAYER_1
 62
   250
 10
139.5190807012331
 20
-255.8563251485476
 30
0.0
  0
VERTEX
  5
FE
  8
LAYER_1
 62
   250
 10
139.6576955815462
 20
-256.1156553495294
 30
0.0
  0
VERTEX
  5
FF
  8
LAYER_1
 62
   250
 10
139.8442398282202
 20
-256.3429601717798
 30
0.0
  0
VERTEX
  5
100
  8
LAYER_1
 62
   250
 10
140.0715446504706
 20
-256.5295044184538
 30
0.0
  0
VERTEX
  5
101
  8
LAYER_1
 62
   250
 10
140.3308748514524
 20
-256.6681192987669
 30
0.0
  0
VERTEX
  5
102
  8
LAYER_1
 62
   250
 10
140.6122645169758
 20
-256.7534779206048
 30
0.0
  0
VERTEX
  5
103
  8
LAYER_1
 62
   250
 10
140.9049
 20
-256.7823
 30
0.0
  0
VERTEX
  5
104
  8
LAYER_1
 62
   250
 10
141.1975354830242
 20
-256.7534779206048
 30
0.0
  0
VERTEX
  5
105
  8
LAYER_1
 62
   250
 10
141.4789251485476
 20
-256.6681192987669
 30
0.0
  0
VERTEX
  5
106
  8
LAYER_1
 62
   250
 10
141.7382553495294
 20
-256.5295044184538
 30
0.0
  0
VERTEX
  5
107
  8
LAYER_1
 62
   250
 10
141.9655601717798
 20
-256.3429601717798
 30
0.0
  0
VERTEX
  5
108
  8
LAYER_1
 62
   250
 10
142.1521044184538
 20
-256.1156553495294
 30
0.0
  0
VERTEX
  5
109
  8
LAYER_1
 62
   250
 10
142.2907192987669
 20
-255.8563251485476
 30
0.0
  0
VERTEX
  5
10A
  8
LAYER_1
 62
   250
 10
142.3760779206048
 20
-255.5749354830242
 30
0.0
  0
VERTEX
  5
10B
  8
LAYER_1
 62
   250
 10
142.4049
 20
-255.2823
 30
0.0
  0
VERTEX
  5
10C
  8
LAYER_1
 62
   250
 10
142.3760779206048
 20
-254.9896645169758
 30
0.0
  0
VERTEX
  5
10D
  8
LAYER_1
 62
   250
 10
142.2907192987669
 20
-254.7082748514524
 30
0.0
  0
VERTEX
  5
10E
  8
LAYER_1
 62
   250
 10
142.1521044184538
 20
-254.4489446504706
 30
0.0
  0
VERTEX
  5
10F
  8
LAYER_1
 62
   250
 10
141.9655601717798
 20
-254.2216398282202
 30
0.0
  0
VERTEX
  5
110
  8
LAYER_1
 62
   250
 10
141.7382553495294
 20
-254.0350955815462
 30
0.0
  0
VERTEX
  5
111
  8
LAYER_1
 62
   250
 10
141.4789251485476
 20
-253.8964807012331
 30
0.0
  0
VERTEX
  5
112
  8
LAYER_1
 62
   250
 10
141.1975354830242
 20
-253.8111220793951
 30
0.0
  0
SEQEND
  5
233
  8
LAYER_1
 62
   250
  0
POLYLINE
  5
73
  8
LAYER_1
 62
   250
 66
     1
 10
0.0
 20
0.0
 30
0.0
 70
     1
  0
VERTEX
  5
113
  8
LAYER_1
 62
   250
 10
172.0049
 20
-253.7823
 30
0.0
  0
VERTEX
  5
114
  8
LAYER_1
 62
   250
 10
171.7122645169758
 20
-253.8111220793951
 30
0.0
  0
VERTEX
  5
115
  8
LAYER_1
 62
   250
 10
171.4308748514524
 20
-253.8964807012331
 30
0.0
  0
VERTEX
  5
116
  8
LAYER_1
 62
   250
 10
171.1715446504706
 20
-254.0350955815462
 30
0.0
  0
VERTEX
  5
117
  8
LAYER_1
 62
   250
 10
170.9442398282202
 20
-254.2216398282202
 30
0.0
  0
VERTEX
  5
118
  8
LAYER_1
 62
   250
 10
170.7576955815462
 20
-254.4489446504706
 30
0.0
  0
VERTEX
  5
119
  8
LAYER_1
 62
   250
 10
170.6190807012331
 20
-254.7082748514524
 30
0.0
  0
VERTEX
  5
11A
  8
LAYER_1
 62
   250
 10
170.5337220793951
 20
-254.9896645169758
 30
0.0
  0
VERTEX
  5
11B
  8
LAYER_1
 62
   250
 10
170.5049
 20
-255.2823
 30
0.0
  0
VERTEX
  5
11C
  8
LAYER_1
 62
   250
 10
170.5337220793951
 20
-255.5749354830242
 30
0.0
  0
VERTEX
  5
11D
  8
LAYER_1
 62
   250
 10
170.6190807012331
 20
-255.8563251485476
 30
0.0
  0
VERTEX
  5
11E
  8
LAYER_1
 62
   250
 10
170.7576955815462
 20
-256.1156553495294
 30
0.0
  0
VERTEX
  5
11F
  8
LAYER_1
 62
   250
 10
170.9442398282202
 20
-256.3429601717798
 30
0.0
  0
VERTEX
  5
120
  8
LAYER_1
 62
   250
 10
171.1715446504706
 20
-256.5295044184538
 30
0.0
  0
VERTEX
  5
121
  8
LAYER_1
 62
   250
 10
171.4308748514524
 20
-256.6681192987669
 30
0.0
  0
VERTEX
  5
122
  8
LAYER_1
 62
   250
 10
171.7122645169758
 20
-256.7534779206048
 30
0.0
  0
VERTEX
  5
123
  8
LAYER_1
 62
   250
 10
172.0049
 20
-256.7823
 30
0.0
  0
VERTEX
  5
124
  8
LAYER_1
 62
   250
 10
172.2975354830242
 20
-256.7534779206048
 30
0.0
  0
VERTEX
  5
125
  8
LAYER_1
 62
   250
 10
172.5789251485476
 20
-256.6681192987669
 30
0.0
  0
VERTEX
  5
126
  8
LAYER_1
 62
   250
 10
172.8382553495294
 20
-256.5295044184538
 30
0.0
  0
VERTEX
  5
127
  8
LAYER_1
 62
   250
 10
173.0655601717798
 20
-256.3429601717798
 30
0.0
  0
VERTEX
  5
128
  8
LAYER_1
 62
   250
 10
173.2521044184538
 20
-256.1156553495294
 30
0.0
  0
VERTEX
  5
129
  8
LAYER_1
 62
   250
 10
173.3907192987669
 20
-255.8563251485476
 30
0.0
  0
VERTEX
  5
12A
  8
LAYER_1
 62
   250
 10
173.4760779206048
 20
-255.5749354830242
 30
0.0
  0
VERTEX
  5
12B
  8
LAYER_1
 62
   250
 10
173.5049
 20
-255.2823
 30
0.0
  0
VERTEX
  5
12C
  8
LAYER_1
 62
   250
 10
173.4760779206048
 20
-254.9896645169758
 30
0.0
  0
VERTEX
  5
12D
  8
LAYER_1
 62
   250
 10
173.3907192987669
 20
-254.7082748514524
 30
0.0
  0
VERTEX
  5
12E
  8
LAYER_1
 62
   250
 10
173.2521044184538
 20
-254.4489446504706
 30
0.0
  0
VERTEX
  5
12F
  8
LAYER_1
 62
   250
 10
173.0655601717798
 20
-254.2216398282202
 30
0.0
  0
VERTEX
  5
130
  8
LAYER_1
 62
   250
 10
172.8382553495294
 20
-254.0350955815462
 30
0.0
  0
VERTEX
  5
131
  8
LAYER_1
 62
   250
 10
172.5789251485476
 20
-253.8964807012331
 30
0.0
  0
VERTEX
  5
132
  8
LAYER_1
 62
   250
 10
172.2975354830242
 20
-253.8111220793951
 30
0.0
  0
SEQEND
  5
234
  8
LAYER_1
 62
   250
  0
POLYLINE
  5
74
  8
LAYER_1
 62
   250
 66
     1
 10
0.0
 20
0.0
 30
0.0
 70
     1
  0
VERTEX
  5
133
  8
LAYER_1
 62
   250
 10
156.4549
 20
-259.9323
 30
0.0
  0
VERTEX
  5
134
  8
LAYER_1
 62
   250
 10
154.3284154900242
 20
-260.1417404436048
 30
0.0
  0
VERTEX
  5
135
  8
LAYER_1
 62
   250
 10
152.2836505872205
 20
-260.762013095627
 30
0.0
  0
VERTEX
  5
136
  8
LAYER_1
 62
   250
 10
150.3991844600863
 20
-261.7692812259022
 30
0.0
  0
VERTEX
  5
137
  8
LAYER_1
 62
   250
 10
148.7474360850667
 20
-263.1248360850666
 30
0.0
  0
VERTEX
  5
138
  8
LAYER_1
 62
   250
 10
147.3918812259023
 20
-264.7765844600863
 30
0.0
  0
VERTEX
  5
139
  8
LAYER_1
 62
   250
 10
146.384613095627
 20
-266.6610505872205
 30
0.0
  0
VERTEX
  5
13A
  8
LAYER_1
 62
   250
 10
145.7643404436048
 20
-268.7058154900242
 30
0.0
  0
VERTEX
  5
13B
  8
LAYER_1
 62
   250
 10
145.5549
 20
-270.8323
 30
0.0
  0
VERTEX
  5
13C
  8
LAYER_1
 62
   250
 10
145.7643404436048
 20
-272.9587845099758
 30
0.0
  0
VERTEX
  5
13D
  8
LAYER_1
 62
   250
 10
146.384613095627
 20
-275.0035494127795
 30
0.0
  0
VERTEX
  5
13E
  8
LAYER_1
 62
   250
 10
147.3918812259023
 20
-276.8880155399136
 30
0.0
  0
VERTEX
  5
13F
  8
LAYER_1
 62
   250
 10
148.7474360850667
 20
-278.5397639149334
 30
0.0
  0
VERTEX
  5
140
  8
LAYER_1
 62
   250
 10
150.3991844600863
 20
-279.8953187740977
 30
0.0
  0
VERTEX
  5
141
  8
LAYER_1
 62
   250
 10
152.2836505872205
 20
-280.902586904373
 30
0.0
  0
VERTEX
  5
142
  8
LAYER_1
 62
   250
 10
154.3284154900242
 20
-281.5228595563952
 30
0.0
  0
VERTEX
  5
143
  8
LAYER_1
 62
   250
 10
156.4549
 20
-281.7323
 30
0.0
  0
VERTEX
  5
144
  8
LAYER_1
 62
   250
 10
158.5813845099758
 20
-281.5228595563952
 30
0.0
  0
VERTEX
  5
145
  8
LAYER_1
 62
   250
 10
160.6261494127795
 20
-280.902586904373
 30
0.0
  0
VERTEX
  5
146
  8
LAYER_1
 62
   250
 10
162.5106155399137
 20
-279.8953187740977
 30
0.0
  0
VERTEX
  5
147
  8
LAYER_1
 62
   250
 10
164.1623639149334
 20
-278.5397639149333
 30
0.0
  0
VERTEX
  5
148
  8
LAYER_1
 62
   250
 10
165.5179187740978
 20
-276.8880155399136
 30
0.0
  0
VERTEX
  5
149
  8
LAYER_1
 62
   250
 10
166.525186904373
 20
-275.0035494127794
 30
0.0
  0
VERTEX
  5
14A
  8
LAYER_1
 62
   250
 10
167.1454595563952
 20
-272.9587845099758
 30
0.0
  0
VERTEX
  5
14B
  8
LAYER_1
 62
   250
 10
167.3549
 20
-270.8323
 30
0.0
  0
VERTEX
  5
14C
  8
LAYER_1
 62
   250
 10
167.1454595563952
 20
-268.7058154900241
 30
0.0
  0
VERTEX
  5
14D
  8
LAYER_1
 62
   250
 10
166.525186904373
 20
-266.6610505872205
 30
0.0
  0
VERTEX
  5
14E
  8
LAYER_1
 62
   250
 10
165.5179187740977
 20
-264.7765844600863
 30
0.0
  0
VERTEX
  5
14F
  8
LAYER_1
 62
   250
 10
164.1623639149333
 20
-263.1248360850666
 30
0.0
  0
VERTEX
  5
150
  8
LAYER_1
 62
   250
 10
162.5106155399136
 20
-261.7692812259022
 30
0.0
  0
VERTEX
  5
151
  8
LAYER_1
 62
   250
 10
160.6261494127795
 20
-260.7620130956269
 30
0.0
  0
VERTEX
  5
152
  8
LAYER_1
 62
   250
 10
158.5813845099758
 20
-260.1417404436048
 30
0.0
  0
SEQEND
  5
235
  8
LAYER_1
 62
   250
  0
POLYLINE
  5
75
  8
LAYER_1
 62
   250
 66
     1
 10
0.0
 20
0.0
 30
0.0
 70
     1
  0
VERTEX
  5
153
  8
LAYER_1
 62
   250
 10
185.4484
 20
-261.3323
 30
0.0
  0
VERTEX
  5
154
  8
LAYER_1
 62
   250
 10
185.4484
 20
-255.3912
 30
0.0
  0
VERTEX
  5
155
  8
LAYER_1
 62
   250
 10
185.4076
 20
-254.9894
 30
0.0
  0
VERTEX
  5
156
  8
LAYER_1
 62
   250
 10
185.2906
 20
-254.6146
 30
0.0
  0
VERTEX
  5
157
  8
LAYER_1
 62
   250
 10
185.1056
 20
-254.275
 30
0.0
  0
VERTEX
  5
158
  8
LAYER_1
 62
   250
 10
184.8609
 20
-253.9787
 30
0.0
  0
VERTEX
  5
159
  8
LAYER_1
 62
   250
 10
184.5646
 20
-253.734
 30
0.0
  0
VERTEX
  5
15A
  8
LAYER_1
 62
   250
 10
184.225
 20
-253.549
 30
0.0
  0
VERTEX
  5
15B
  8
LAYER_1
 62
   250
 10
183.8502
 20
-253.432
 30
0.0
  0
VERTEX
  5
15C
  8
LAYER_1
 62
   250
 10
183.4484
 20
-253.3912
 30
0.0
  0
VERTEX
  5
15D
  8
LAYER_1
 62
   250
 10
180.4303
 20
-253.3912
 30
0.0
  0
VERTEX
  5
15E
  8
LAYER_1
 62
   250
 10
180.0285
 20
-253.432
 30
0.0
  0
VERTEX
  5
15F
  8
LAYER_1
 62
   250
 10
179.6537
 20
-253.549
 30
0.0
  0
VERTEX
  5
160
  8
LAYER_1
 62
   250
 10
179.3141
 20
-253.734
 30
0.0
  0
VERTEX
  5
161
  8
LAYER_1
 62
   250
 10
179.0178
 20
-253.9787
 30
0.0
  0
VERTEX
  5
162
  8
LAYER_1
 62
   250
 10
178.7731
 20
-254.275
 30
0.0
  0
VERTEX
  5
163
  8
LAYER_1
 62
   250
 10
178.5881
 20
-254.6146
 30
0.0
  0
VERTEX
  5
164
  8
LAYER_1
 62
   250
 10
178.4711
 20
-254.9894
 30
0.0
  0
VERTEX
  5
165
  8
LAYER_1
 62
   250
 10
178.4303
 20
-255.3912
 30
0.0
  0
VERTEX
  5
166
  8
LAYER_1
 62
   250
 10
178.4303
 20
-261.3323
 30
0.0
  0
VERTEX
  5
167
  8
LAYER_1
 62
   250
 10
177.4549
 20
-261.3323
 30
0.0
  0
VERTEX
  5
168
  8
LAYER_1
 62
   250
 10
177.4549
 20
-253.8323
 30
0.0
  0
VERTEX
  5
169
  8
LAYER_1
 62
   250
 10
173.4549
 20
-249.8323
 30
0.0
  0
VERTEX
  5
16A
  8
LAYER_1
 62
   250
 10
139.4549
 20
-249.8323
 30
0.0
  0
VERTEX
  5
16B
  8
LAYER_1
 62
   250
 10
135.4549
 20
-253.8323
 30
0.0
  0
VERTEX
  5
16C
  8
LAYER_1
 62
   250
 10
135.4549
 20
-261.3323
 30
0.0
  0
VERTEX
  5
16D
  8
LAYER_1
 62
   250
 10
134.473
 20
-261.3323
 30
0.0
  0
VERTEX
  5
16E
  8
LAYER_1
 62
   250
 10
134.473
 20
-255.3885
 30
0.0
  0
VERTEX
  5
16F
  8
LAYER_1
 62
   250
 10
134.4322
 20
-254.9867
 30
0.0
  0
VERTEX
  5
170
  8
LAYER_1
 62
   250
 10
134.3152
 20
-254.6119
 30
0.0
  0
VERTEX
  5
171
  8
LAYER_1
 62
   250
 10
134.1302
 20
-254.2723
 30
0.0
  0
VERTEX
  5
172
  8
LAYER_1
 62
   250
 10
133.8855
 20
-253.976
 30
0.0
  0
VERTEX
  5
173
  8
LAYER_1
 62
   250
 10
133.5892
 20
-253.7313
 30
0.0
  0
VERTEX
  5
174
  8
LAYER_1
 62
   250
 10
133.2496
 20
-253.5463
 30
0.0
  0
VERTEX
  5
175
  8
LAYER_1
 62
   250
 10
132.8748
 20
-253.4293
 30
0.0
  0
VERTEX
  5
176
  8
LAYER_1
 62
   250
 10
132.473
 20
-253.3885
 30
0.0
  0
VERTEX
  5
177
  8
LAYER_1
 62
   250
 10
129.4549
 20
-253.3885
 30
0.0
  0
VERTEX
  5
178
  8
LAYER_1
 62
   250
 10
129.0531
 20
-253.4293
 30
0.0
  0
VERTEX
  5
179
  8
LAYER_1
 62
   250
 10
128.6783
 20
-253.5463
 30
0.0
  0
VERTEX
  5
17A
  8
LAYER_1
 62
   250
 10
128.3387
 20
-253.7313
 30
0.0
  0
VERTEX
  5
17B
  8
LAYER_1
 62
   250
 10
128.0424
 20
-253.976
 30
0.0
  0
VERTEX
  5
17C
  8
LAYER_1
 62
   250
 10
127.7977
 20
-254.2723
 30
0.0
  0
VERTEX
  5
17D
  8
LAYER_1
 62
   250
 10
127.6127
 20
-254.6119
 30
0.0
  0
VERTEX
  5
17E
  8
LAYER_1
 62
   250
 10
127.4957
 20
-254.9867
 30
0.0
  0
VERTEX
  5
17F
  8
LAYER_1
 62
   250
 10
127.4549
 20
-255.3885
 30
0.0
  0
VERTEX
  5
180
  8
LAYER_1
 62
   250
 10
127.4549
 20
-261.3323
 30
0.0
  0
VERTEX
  5
181
  8
LAYER_1
 62
   250
 10
127.4549
 20
-279.8323
 30
0.0
  0
VERTEX
  5
182
  8
LAYER_1
 62
   250
 10
135.4549
 20
-287.8323
 30
0.0
  0
VERTEX
  5
183
  8
LAYER_1
 62
   250
 10
139.4549
 20
-291.8323
 30
0.0
  0
VERTEX
  5
184
  8
LAYER_1
 62
   250
 10
173.4549
 20
-291.8323
 30
0.0
  0
VERTEX
  5
185
  8
LAYER_1
 62
   250
 10
177.4549
 20
-287.8323
 30
0.0
  0
VERTEX
  5
186
  8
LAYER_1
 62
   250
 10
185.4549
 20
-279.8323
 30
0.0
  0
VERTEX
  5
187
  8
LAYER_1
 62
   250
 10
185.4549
 20
-261.3323
 30
0.0
  0
VERTEX
  5
188
  8
LAYER_1
 62
   250
 10
185.4484
 20
-261.3323
 30
0.0
  0
SEQEND
  5
236
  8
LAYER_1
 62
   250
  0
POLYLINE
  5
76
  8
LAYER_1
 62
   250
 66
     1
 10
0.0
 20
0.0
 30
0.0
 70
     1
  0
VERTEX
  5
189
  8
LAYER_1
 62
   250
 10
130.9639
 20
-255.8224
 30
0.0
  0
VERTEX
  5
18A
  8
LAYER_1
 62
   250
 10
130.6638510847392
 20
-255.8519522387399
 30
0.0
  0
VERTEX
  5
18B
  8
LAYER_1
 62
   250
 10
130.3753328810225
 20
-255.9394732789977
 30
0.0
  0
VERTEX
  5
18C
  8
LAYER_1
 62
   250
 10
130.1094329816158
 20
-256.0815997362787
 30
0.0
  0
VERTEX
  5
18D
  8
LAYER_1
 62
   250
 10
129.8763697705351
 20
-256.2728697705351
 30
0.0
  0
VERTEX
  5
18E
  8
LAYER_1
 62
   250
 10
129.6850997362787
 20
-256.5059329816159
 30
0.0
  0
VERTEX
  5
18F
  8
LAYER_1
 62
   250
 10
129.5429732789976
 20
-256.7718328810225
 30
0.0
  0
VERTEX
  5
190
  8
LAYER_1
 62
   250
 10
129.4554522387398
 20
-257.0603510847392
 30
0.0
  0
VERTEX
  5
191
  8
LAYER_1
 62
   250
 10
129.4259
 20
-257.3604
 30
0.0
  0
VERTEX
  5
192
  8
LAYER_1
 62
   250
 10
129.4554522387398
 20
-257.6604489152608
 30
0.0
  0
VERTEX
  5
193
  8
LAYER_1
 62
   250
 10
129.5429732789976
 20
-257.9489671189775
 30
0.0
  0
VERTEX
  5
194
  8
LAYER_1
 62
   250
 10
129.6850997362787
 20
-258.2148670183842
 30
0.0
  0
VERTEX
  5
195
  8
LAYER_1
 62
   250
 10
129.8763697705351
 20
-258.4479302294649
 30
0.0
  0
VERTEX
  5
196
  8
LAYER_1
 62
   250
 10
130.1094329816158
 20
-258.6392002637214
 30
0.0
  0
VERTEX
  5
197
  8
LAYER_1
 62
   250
 10
130.3753328810225
 20
-258.7813267210024
 30
0.0
  0
VERTEX
  5
198
  8
LAYER_1
 62
   250
 10
130.6638510847392
 20
-258.8688477612602
 30
0.0
  0
VERTEX
  5
199
  8
LAYER_1
 62
   250
 10
130.9639
 20
-258.8984
 30
0.0
  0
VERTEX
  5
19A
  8
LAYER_1
 62
   250
 10
131.2639489152608
 20
-258.8688477612602
 30
0.0
  0
VERTEX
  5
19B
  8
LAYER_1
 62
   250
 10
131.5524671189775
 20
-258.7813267210024
 30
0.0
  0
VERTEX
  5
19C
  8
LAYER_1
 62
   250
 10
131.8183670183842
 20
-258.6392002637214
 30
0.0
  0
VERTEX
  5
19D
  8
LAYER_1
 62
   250
 10
132.0514302294649
 20
-258.4479302294649
 30
0.0
  0
VERTEX
  5
19E
  8
LAYER_1
 62
   250
 10
132.2427002637213
 20
-258.2148670183842
 30
0.0
  0
VERTEX
  5
19F
  8
LAYER_1
 62
   250
 10
132.3848267210024
 20
-257.9489671189775
 30
0.0
  0
VERTEX
  5
1A0
  8
LAYER_1
 62
   250
 10
132.4723477612602
 20
-257.6604489152608
 30
0.0
  0
VERTEX
  5
1A1
  8
LAYER_1
 62
   250
 10
132.5019
 20
-257.3604
 30
0.0
  0
VERTEX
  5
1A2
  8
LAYER_1
 62
   250
 10
132.4723477612602
 20
-257.0603510847392
 30
0.0
  0
VERTEX
  5
1A3
  8
LAYER_1
 62
   250
 10
132.3848267210024
 20
-256.7718328810225
 30
0.0
  0
VERTEX
  5
1A4
  8
LAYER_1
 62
   250
 10
132.2427002637213
 20
-256.5059329816159
 30
0.0
  0
VERTEX
  5
1A5
  8
LAYER_1
 62
   250
 10
132.0514302294649
 20
-256.2728697705351
 30
0.0
  0
VERTEX
  5
1A6
  8
LAYER_1
 62
   250
 10
131.8183670183842
 20
-256.0815997362787
 30
0.0
  0
VERTEX
  5
1A7
  8
LAYER_1
 62
   250
 10
131.5524671189775
 20
-255.9394732789977
 30
0.0
  0
VERTEX
  5
1A8
  8
LAYER_1
 62
   250
 10
131.2639489152608
 20
-255.8519522387399
 30
0.0
  0
SEQEND
  5
237
  8
LAYER_1
 62
   250
  0
POLYLINE
  5
77
  8
LAYER_1
 62
   250
 66
     1
 10
0.0
 20
0.0
 30
0.0
 70
     1
  0
VERTEX
  5
1A9
  8
LAYER_1
 62
   250
 10
181.9393
 20
-255.8251
 30
0.0
  0
VERTEX
  5
1AA
  8
LAYER_1
 62
   250
 10
181.6392510847392
 20
-255.8546522387398
 30
0.0
  0
VERTEX
  5
1AB
  8
LAYER_1
 62
   250
 10
181.3507328810225
 20
-255.9421732789976
 30
0.0
  0
VERTEX
  5
1AC
  8
LAYER_1
 62
   250
 10
181.0848329816158
 20
-256.0842997362786
 30
0.0
  0
VERTEX
  5
1AD
  8
LAYER_1
 62
   250
 10
180.8517697705351
 20
-256.2755697705351
 30
0.0
  0
VERTEX
  5
1AE
  8
LAYER_1
 62
   250
 10
180.6604997362787
 20
-256.5086329816158
 30
0.0
  0
VERTEX
  5
1AF
  8
LAYER_1
 62
   250
 10
180.5183732789976
 20
-256.7745328810225
 30
0.0
  0
VERTEX
  5
1B0
  8
LAYER_1
 62
   250
 10
180.4308522387398
 20
-257.0630510847392
 30
0.0
  0
VERTEX
  5
1B1
  8
LAYER_1
 62
   250
 10
180.4013
 20
-257.3631
 30
0.0
  0
VERTEX
  5
1B2
  8
LAYER_1
 62
   250
 10
180.4308522387398
 20
-257.6631489152608
 30
0.0
  0
VERTEX
  5
1B3
  8
LAYER_1
 62
   250
 10
180.5183732789976
 20
-257.9516671189775
 30
0.0
  0
VERTEX
  5
1B4
  8
LAYER_1
 62
   250
 10
180.6604997362787
 20
-258.2175670183841
 30
0.0
  0
VERTEX
  5
1B5
  8
LAYER_1
 62
   250
 10
180.8517697705351
 20
-258.4506302294649
 30
0.0
  0
VERTEX
  5
1B6
  8
LAYER_1
 62
   250
 10
181.0848329816158
 20
-258.6419002637213
 30
0.0
  0
VERTEX
  5
1B7
  8
LAYER_1
 62
   250
 10
181.3507328810225
 20
-258.7840267210023
 30
0.0
  0
VERTEX
  5
1B8
  8
LAYER_1
 62
   250
 10
181.6392510847392
 20
-258.8715477612602
 30
0.0
  0
VERTEX
  5
1B9
  8
LAYER_1
 62
   250
 10
181.9393
 20
-258.9011
 30
0.0
  0
VERTEX
  5
1BA
  8
LAYER_1
 62
   250
 10
182.2393489152608
 20
-258.8715477612602
 30
0.0
  0
VERTEX
  5
1BB
  8
LAYER_1
 62
   250
 10
182.5278671189775
 20
-258.7840267210023
 30
0.0
  0
VERTEX
  5
1BC
  8
LAYER_1
 62
   250
 10
182.7937670183842
 20
-258.6419002637213
 30
0.0
  0
VERTEX
  5
1BD
  8
LAYER_1
 62
   250
 10
183.0268302294649
 20
-258.4506302294649
 30
0.0
  0
VERTEX
  5
1BE
  8
LAYER_1
 62
   250
 10
183.2181002637213
 20
-258.2175670183841
 30
0.0
  0
VERTEX
  5
1BF
  8
LAYER_1
 62
   250
 10
183.3602267210024
 20
-257.9516671189775
 30
0.0
  0
VERTEX
  5
1C0
  8
LAYER_1
 62
   250
 10
183.4477477612602
 20
-257.6631489152608
 30
0.0
  0
VERTEX
  5
1C1
  8
LAYER_1
 62
   250
 10
183.4773
 20
-257.3631
 30
0.0
  0
VERTEX
  5
1C2
  8
LAYER_1
 62
   250
 10
183.4477477612602
 20
-257.0630510847392
 30
0.0
  0
VERTEX
  5
1C3
  8
LAYER_1
 62
   250
 10
183.3602267210024
 20
-256.7745328810225
 30
0.0
  0
VERTEX
  5
1C4
  8
LAYER_1
 62
   250
 10
183.2181002637213
 20
-256.5086329816158
 30
0.0
  0
VERTEX
  5
1C5
  8
LAYER_1
 62
   250
 10
183.0268302294649
 20
-256.2755697705351
 30
0.0
  0
VERTEX
  5
1C6
  8
LAYER_1
 62
   250
 10
182.7937670183842
 20
-256.0842997362786
 30
0.0
  0
VERTEX
  5
1C7
  8
LAYER_1
 62
   250
 10
182.5278671189775
 20
-255.9421732789976
 30
0.0
  0
VERTEX
  5
1C8
  8
LAYER_1
 62
   250
 10
182.2393489152608
 20
-255.8546522387398
 30
0.0
  0
SEQEND
  5
238
  8
LAYER_1
 62
   250
  0
POLYLINE
  5
78
  8
LAYER_1
 62
   250
 66
     1
 10
0.0
 20
0.0
 30
0.0
  0
VERTEX
  5
1C9
  8
LAYER_1
 62
   250
 10
180.49
 20
-261.3237
 30
0.0
  0
VERTEX
  5
1CA
  8
LAYER_1
 62
   250
 10
181.4822
 20
-261.3237
 30
0.0
  0
SEQEND
  5
239
  8
LAYER_1
 62
   250
  0
POLYLINE
  5
79
  8
LAYER_1
 62
   250
 66
     1
 10
0.0
 20
0.0
 30
0.0
  0
VERTEX
  5
1CB
  8
LAYER_1
 62
   250
 10
182.4899
 20
-261.3237
 30
0.0
  0
VERTEX
  5
1CC
  8
LAYER_1
 62
   250
 10
183.4821
 20
-261.3237
 30
0.0
  0
SEQEND
  5
23A
  8
LAYER_1
 62
   250
  0
POLYLINE
  5
7A
  8
LAYER_1
 62
   250
 66
     1
 10
0.0
 20
0.0
 30
0.0
  0
VERTEX
  5
1CD
  8
LAYER_1
 62
   250
 10
129.5974
 20
-261.2898
 30
0.0
  0
VERTEX
  5
1CE
  8
LAYER_1
 62
   250
 10
130.5896
 20
-261.2898
 30
0.0
  0
SEQEND
  5
23B
  8
LAYER_1
 62
   250
  0
POLYLINE
  5
7B
  8
LAYER_1
 62
   250
 66
     1
 10
0.0
 20
0.0
 30
0.0
  0
VERTEX
  5
1CF
  8
LAYER_1
 62
   250
 10
131.5973
 20
-261.2898
 30
0.0
  0
VERTEX
  5
1D0
  8
LAYER_1
 62
   250
 10
132.5895
 20
-261.2898
 30
0.0
  0
SEQEND
  5
23C
  8
LAYER_1
 62
   250
  0
POLYLINE
  5
7C
  8
LAYER_1
 62
   250
 66
     1
 10
0.0
 20
0.0
 30
0.0
  0
VERTEX
  5
1D1
  8
LAYER_1
 62
   250
 10
180.49
 20
-261.3237
 30
0.0
  0
VERTEX
  5
1D2
  8
LAYER_1
 62
   250
 10
181.4822
 20
-261.3237
 30
0.0
  0
SEQEND
  5
23D
  8
LAYER_1
 62
   250
  0
POLYLINE
  5
7D
  8
LAYER_1
 62
   250
 66
     1
 10
0.0
 20
0.0
 30
0.0
  0
VERTEX
  5
1D3
  8
LAYER_1
 62
   250
 10
182.4899
 20
-261.3237
 30
0.0
  0
VERTEX
  5
1D4
  8
LAYER_1
 62
   250
 10
183.4821
 20
-261.3237
 30
0.0
  0
SEQEND
  5
23E
  8
LAYER_1
 62
   250
  0
POLYLINE
  5
7E
  8
LAYER_1
 62
   250
 66
     1
 10
0.0
 20
0.0
 30
0.0
  0
VERTEX
  5
1D5
  8
LAYER_1
 62
   250
 10
177.9164
 20
-266.2185
 30
0.0
  0
VERTEX
  5
1D6
  8
LAYER_1
 62
   250
 10
177.9164
 20
-265.2263
 30
0.0
  0
SEQEND
  5
23F
  8
LAYER_1
 62
   250
  0
POLYLINE
  5
7F
  8
LAYER_1
 62
   250
 66
     1
 10
0.0
 20
0.0
 30
0.0
  0
VERTEX
  5
1D7
  8
LAYER_1
 62
   250
 10
177.9164
 20
-264.2186
 30
0.0
  0
VERTEX
  5
1D8
  8
LAYER_1
 62
   250
 10
177.9164
 20
-263.2264
 30
0.0
  0
SEQEND
  5
240
  8
LAYER_1
 62
   250
  0
POLYLINE
  5
80
  8
LAYER_1
 62
   250
 66
     1
 10
0.0
 20
0.0
 30
0.0
  0
VERTEX
  5
1D9
  8
LAYER_1
 62
   250
 10
177.9164
 20
-266.2185
 30
0.0
  0
VERTEX
  5
1DA
  8
LAYER_1
 62
   250
 10
177.9164
 20
-265.2263
 30
0.0
  0
SEQEND
  5
241
  8
LAYER_1
 62
   250
  0
POLYLINE
  5
81
  8
LAYER_1
 62
   250
 66
     1
 10
0.0
 20
0.0
 30
0.0
  0
VERTEX
  5
1DB
  8
LAYER_1
 62
   250
 10
177.9164
 20
-264.2186
 30
0.0
  0
VERTEX
  5
1DC
  8
LAYER_1
 62
   250
 10
177.9164
 20
-263.2264
 30
0.0
  0
SEQEND
  5
242
  8
LAYER_1
 62
   250
  0
POLYLINE
  5
82
  8
LAYER_1
 62
   250
 66
     1
 10
0.0
 20
0.0
 30
0.0
  0
VERTEX
  5
1DD
  8
LAYER_1
 62
   250
 10
177.9164
 20
-270.0181
 30
0.0
  0
VERTEX
  5
1DE
  8
LAYER_1
 62
   250
 10
177.9164
 20
-269.0259
 30
0.0
  0
SEQEND
  5
243
  8
LAYER_1
 62
   250
  0
POLYLINE
  5
83
  8
LAYER_1
 62
   250
 66
     1
 10
0.0
 20
0.0
 30
0.0
  0
VERTEX
  5
1DF
  8
LAYER_1
 62
   250
 10
177.9164
 20
-268.0182
 30
0.0
  0
VERTEX
  5
1E0
  8
LAYER_1
 62
   250
 10
177.9164
 20
-267.026
 30
0.0
  0
SEQEND
  5
244
  8
LAYER_1
 62
   250
  0
POLYLINE
  5
84
  8
LAYER_1
 62
   250
 66
     1
 10
0.0
 20
0.0
 30
0.0
  0
VERTEX
  5
1E1
  8
LAYER_1
 62
   250
 10
177.9164
 20
-270.0181
 30
0.0
  0
VERTEX
  5
1E2
  8
LAYER_1
 62
   250
 10
177.9164
 20
-269.0259
 30
0.0
  0
SEQEND
  5
245
  8
LAYER_1
 62
   250
  0
POLYLINE
  5
85
  8
LAYER_1
 62
   250
 66
     1
 10
0.0
 20
0.0
 30
0.0
  0
VERTEX
  5
1E3
  8
LAYER_1
 62
   250
 10
177.9164
 20
-268.0182
 30
0.0
  0
VERTEX
  5
1E4
  8
LAYER_1
 62
   250
 10
177.9164
 20
-267.026
 30
0.0
  0
SEQEND
  5
246
  8
LAYER_1
 62
   250
  0
POLYLINE
  5
86
  8
LAYER_1
 62
   250
 66
     1
 10
0.0
 20
0.0
 30
0.0
  0
VERTEX
  5
1E5
  8
LAYER_1
 62
   250
 10
177.9164
 20
-273.8183
 30
0.0
  0
VERTEX
  5
1E6
  8
LAYER_1
 62
   250
 10
177.9164
 20
-272.8261
 30
0.0
  0
SEQEND
  5
247
  8
LAYER_1
 62
   250
  0
POLYLINE
  5
87
  8
LAYER_1
 62
   250
 66
     1
 10
0.0
 20
0.0
 30
0.0
  0
VERTEX
  5
1E7
  8
LAYER_1
 62
   250
 10
177.9164
 20
-271.8184
 30
0.0
  0
VERTEX
  5
1E8
  8
LAYER_1
 62
   250
 10
177.9164
 20
-270.8262
 30
0.0
  0
SEQEND
  5
248
  8
LAYER_1
 62
   250
  0
POLYLINE
  5
88
  8
LAYER_1
 62
   250
 66
     1
 10
0.0
 20
0.0
 30
0.0
  0
VERTEX
  5
1E9
  8
LAYER_1
 62
   250
 10
177.9164
 20
-273.8183
 30
0.0
  0
VERTEX
  5
1EA
  8
LAYER_1
 62
   250
 10
177.9164
 20
-272.8261
 30
0.0
  0
SEQEND
  5
249
  8
LAYER_1
 62
   250
  0
POLYLINE
  5
89
  8
LAYER_1
 62
   250
 66
     1
 10
0.0
 20
0.0
 30
0.0
  0
VERTEX
  5
1EB
  8
LAYER_1
 62
   250
 10
177.9164
 20
-271.8184
 30
0.0
  0
VERTEX
  5
1EC
  8
LAYER_1
 62
   250
 10
177.9164
 20
-270.8262
 30
0.0
  0
SEQEND
  5
24A
  8
LAYER_1
 62
   250
  0
POLYLINE
  5
8A
  8
LAYER_1
 62
   250
 66
     1
 10
0.0
 20
0.0
 30
0.0
  0
VERTEX
  5
1ED
  8
LAYER_1
 62
   250
 10
177.9164
 20
-277.6179
 30
0.0
  0
VERTEX
  5
1EE
  8
LAYER_1
 62
   250
 10
177.9164
 20
-276.6257
 30
0.0
  0
SEQEND
  5
24B
  8
LAYER_1
 62
   250
  0
POLYLINE
  5
8B
  8
LAYER_1
 62
   250
 66
     1
 10
0.0
 20
0.0
 30
0.0
  0
VERTEX
  5
1EF
  8
LAYER_1
 62
   250
 10
177.9164
 20
-275.618
 30
0.0
  0
VERTEX
  5
1F0
  8
LAYER_1
 62
   250
 10
177.9164
 20
-274.6258
 30
0.0
  0
SEQEND
  5
24C
  8
LAYER_1
 62
   250
  0
POLYLINE
  5
8C
  8
LAYER_1
 62
   250
 66
     1
 10
0.0
 20
0.0
 30
0.0
  0
VERTEX
  5
1F1
  8
LAYER_1
 62
   250
 10
177.9164
 20
-277.6179
 30
0.0
  0
VERTEX
  5
1F2
  8
LAYER_1
 62
   250
 10
177.9164
 20
-276.6257
 30
0.0
  0
SEQEND
  5
24D
  8
LAYER_1
 62
   250
  0
POLYLINE
  5
8D
  8
LAYER_1
 62
   250
 66
     1
 10
0.0
 20
0.0
 30
0.0
  0
VERTEX
  5
1F3
  8
LAYER_1
 62
   250
 10
177.9164
 20
-275.618
 30
0.0
  0
VERTEX
  5
1F4
  8
LAYER_1
 62
   250
 10
177.9164
 20
-274.6258
 30
0.0
  0
SEQEND
  5
24E
  8
LAYER_1
 62
   250
  0
POLYLINE
  5
8E
  8
LAYER_1
 62
   250
 66
     1
 10
0.0
 20
0.0
 30
0.0
  0
VERTEX
  5
1F5
  8
LAYER_1
 62
   250
 10
177.9164
 20
-281.4183
 30
0.0
  0
VERTEX
  5
1F6
  8
LAYER_1
 62
   250
 10
177.9164
 20
-280.4261
 30
0.0
  0
SEQEND
  5
24F
  8
LAYER_1
 62
   250
  0
POLYLINE
  5
8F
  8
LAYER_1
 62
   250
 66
     1
 10
0.0
 20
0.0
 30
0.0
  0
VERTEX
  5
1F7
  8
LAYER_1
 62
   250
 10
177.9164
 20
-279.4184
 30
0.0
  0
VERTEX
  5
1F8
  8
LAYER_1
 62
   250
 10
177.9164
 20
-278.4262
 30
0.0
  0
SEQEND
  5
250
  8
LAYER_1
 62
   250
  0
POLYLINE
  5
90
  8
LAYER_1
 62
   250
 66
     1
 10
0.0
 20
0.0
 30
0.0
  0
VERTEX
  5
1F9
  8
LAYER_1
 62
   250
 10
177.9164
 20
-281.4183
 30
0.0
  0
VERTEX
  5
1FA
  8
LAYER_1
 62
   250
 10
177.9164
 20
-280.4261
 30
0.0
  0
SEQEND
  5
251
  8
LAYER_1
 62
   250
  0
POLYLINE
  5
91
  8
LAYER_1
 62
   250
 66
     1
 10
0.0
 20
0.0
 30
0.0
  0
VERTEX
  5
1FB
  8
LAYER_1
 62
   250
 10
177.9164
 20
-279.4184
 30
0.0
  0
VERTEX
  5
1FC
  8
LAYER_1
 62
   250
 10
177.9164
 20
-278.4262
 30
0.0
  0
SEQEND
  5
252
  8
LAYER_1
 62
   250
  0
POLYLINE
  5
92
  8
LAYER_1
 62
   250
 66
     1
 10
0.0
 20
0.0
 30
0.0
  0
VERTEX
  5
1FD
  8
LAYER_1
 62
   250
 10
177.9164
 20
-284.9179
 30
0.0
  0
VERTEX
  5
1FE
  8
LAYER_1
 62
   250
 10
177.9164
 20
-283.9257
 30
0.0
  0
SEQEND
  5
253
  8
LAYER_1
 62
   250
  0
POLYLINE
  5
93
  8
LAYER_1
 62
   250
 66
     1
 10
0.0
 20
0.0
 30
0.0
  0
VERTEX
  5
1FF
  8
LAYER_1
 62
   250
 10
177.9164
 20
-283.218
 30
0.0
  0
VERTEX
  5
200
  8
LAYER_1
 62
   250
 10
177.9164
 20
-282.2258
 30
0.0
  0
SEQEND
  5
254
  8
LAYER_1
 62
   250
  0
POLYLINE
  5
94
  8
LAYER_1
 62
   250
 66
     1
 10
0.0
 20
0.0
 30
0.0
  0
VERTEX
  5
201
  8
LAYER_1
 62
   250
 10
177.9164
 20
-283.218
 30
0.0
  0
VERTEX
  5
202
  8
LAYER_1
 62
   250
 10
177.9164
 20
-282.2258
 30
0.0
  0
SEQEND
  5
255
  8
LAYER_1
 62
   250
  0
POLYLINE
  5
95
  8
LAYER_1
 62
   250
 66
     1
 10
0.0
 20
0.0
 30
0.0
  0
VERTEX
  5
203
  8
LAYER_1
 62
   250
 10
135.016
 20
-266.2185
 30
0.0
  0
VERTEX
  5
204
  8
LAYER_1
 62
   250
 10
135.016
 20
-265.2263
 30
0.0
  0
SEQEND
  5
256
  8
LAYER_1
 62
   250
  0
POLYLINE
  5
96
  8
LAYER_1
 62
   250
 66
     1
 10
0.0
 20
0.0
 30
0.0
  0
VERTEX
  5
205
  8
LAYER_1
 62
   250
 10
135.016
 20
-264.2186
 30
0.0
  0
VERTEX
  5
206
  8
LAYER_1
 62
   250
 10
135.016
 20
-263.2264
 30
0.0
  0
SEQEND
  5
257
  8
LAYER_1
 62
   250
  0
POLYLINE
  5
97
  8
LAYER_1
 62
   250
 66
     1
 10
0.0
 20
0.0
 30
0.0
  0
VERTEX
  5
207
  8
LAYER_1
 62
   250
 10
135.016
 20
-266.2185
 30
0.0
  0
VERTEX
  5
208
  8
LAYER_1
 62
   250
 10
135.016
 20
-265.2263
 30
0.0
  0
SEQEND
  5
258
  8
LAYER_1
 62
   250
  0
POLYLINE
  5
98
  8
LAYER_1
 62
   250
 66
     1
 10
0.0
 20
0.0
 30
0.0
  0
VERTEX
  5
209
  8
LAYER_1
 62
   250
 10
135.016
 20
-264.2186
 30
0.0
  0
VERTEX
  5
20A
  8
LAYER_1
 62
   250
 10
135.016
 20
-263.2264
 30
0.0
  0
SEQEND
  5
259
  8
LAYER_1
 62
   250
  0
POLYLINE
  5
99
  8
LAYER_1
 62
   250
 66
     1
 10
0.0
 20
0.0
 30
0.0
  0
VERTEX
  5
20B
  8
LAYER_1
 62
   250
 10
135.016
 20
-270.0181
 30
0.0
  0
VERTEX
  5
20C
  8
LAYER_1
 62
   250
 10
135.016
 20
-269.0259
 30
0.0
  0
SEQEND
  5
25A
  8
LAYER_1
 62
   250
  0
POLYLINE
  5
9A
  8
LAYER_1
 62
   250
 66
     1
 10
0.0
 20
0.0
 30
0.0
  0
VERTEX
  5
20D
  8
LAYER_1
 62
   250
 10
135.016
 20
-268.0182
 30
0.0
  0
VERTEX
  5
20E
  8
LAYER_1
 62
   250
 10
135.016
 20
-267.026
 30
0.0
  0
SEQEND
  5
25B
  8
LAYER_1
 62
   250
  0
POLYLINE
  5
9B
  8
LAYER_1
 62
   250
 66
     1
 10
0.0
 20
0.0
 30
0.0
  0
VERTEX
  5
20F
  8
LAYER_1
 62
   250
 10
135.016
 20
-270.0181
 30
0.0
  0
VERTEX
  5
210
  8
LAYER_1
 62
   250
 10
135.016
 20
-269.0259
 30
0.0
  0
SEQEND
  5
25C
  8
LAYER_1
 62
   250
  0
POLYLINE
  5
9C
  8
LAYER_1
 62
   250
 66
     1
 10
0.0
 20
0.0
 30
0.0
  0
VERTEX
  5
211
  8
LAYER_1
 62
   250
 10
135.016
 20
-268.0182
 30
0.0
  0
VERTEX
  5
212
  8
LAYER_1
 62
   250
 10
135.016
 20
-267.026
 30
0.0
  0
SEQEND
  5
25D
  8
LAYER_1
 62
   250
  0
POLYLINE
  5
9D
  8
LAYER_1
 62
   250
 66
     1
 10
0.0
 20
0.0
 30
0.0
  0
VERTEX
  5
213
  8
LAYER_1
 62
   250
 10
135.016
 20
-273.8183
 30
0.0
  0
VERTEX
  5
214
  8
LAYER_1
 62
   250
 10
135.016
 20
-272.8261
 30
0.0
  0
SEQEND
  5
25E
  8
LAYER_1
 62
   250
  0
POLYLINE
  5
9E
  8
LAYER_1
 62
   250
 66
     1
 10
0.0
 20
0.0
 30
0.0
  0
VERTEX
  5
215
  8
LAYER_1
 62
   250
 10
135.016
 20
-271.8184
 30
0.0
  0
VERTEX
  5
216
  8
LAYER_1
 62
   250
 10
135.016
 20
-270.8262
 30
0.0
  0
SEQEND
  5
25F
  8
LAYER_1
 62
   250
  0
POLYLINE
  5
9F
  8
LAYER_1
 62
   250
 66
     1
 10
0.0
 20
0.0
 30
0.0
  0
VERTEX
  5
217
  8
LAYER_1
 62
   250
 10
135.016
 20
-273.8183
 30
0.0
  0
VERTEX
  5
218
  8
LAYER_1
 62
   250
 10
135.016
 20
-272.8261
 30
0.0
  0
SEQEND
  5
260
  8
LAYER_1
 62
   250
  0
POLYLINE
  5
A0
  8
LAYER_1
 62
   250
 66
     1
 10
0.0
 20
0.0
 30
0.0
  0
VERTEX
  5
219
  8
LAYER_1
 62
   250
 10
135.016
 20
-271.8184
 30
0.0
  0
VERTEX
  5
21A
  8
LAYER_1
 62
   250
 10
135.016
 20
-270.8262
 30
0.0
  0
SEQEND
  5
261
  8
LAYER_1
 62
   250
  0
POLYLINE
  5
A1
  8
LAYER_1
 62
   250
 66
     1
 10
0.0
 20
0.0
 30
0.0
  0
VERTEX
  5
21B
  8
LAYER_1
 62
   250
 10
135.016
 20
-277.6179
 30
0.0
  0
VERTEX
  5
21C
  8
LAYER_1
 62
   250
 10
135.016
 20
-276.6257
 30
0.0
  0
SEQEND
  5
262
  8
LAYER_1
 62
   250
  0
POLYLINE
  5
A2
  8
LAYER_1
 62
   250
 66
     1
 10
0.0
 20
0.0
 30
0.0
  0
VERTEX
  5
21D
  8
LAYER_1
 62
   250
 10
135.016
 20
-275.618
 30
0.0
  0
VERTEX
  5
21E
  8
LAYER_1
 62
   250
 10
135.016
 20
-274.6258
 30
0.0
  0
SEQEND
  5
263
  8
LAYER_1
 62
   250
  0
POLYLINE
  5
A3
  8
LAYER_1
 62
   250
 66
     1
 10
0.0
 20
0.0
 30
0.0
  0
VERTEX
  5
21F
  8
LAYER_1
 62
   250
 10
135.016
 20
-277.6179
 30
0.0
  0
VERTEX
  5
220
  8
LAYER_1
 62
   250
 10
135.016
 20
-276.6257
 30
0.0
  0
SEQEND
  5
264
  8
LAYER_1
 62
   250
  0
POLYLINE
  5
A4
  8
LAYER_1
 62
   250
 66
     1
 10
0.0
 20
0.0
 30
0.0
  0
VERTEX
  5
221
  8
LAYER_1
 62
   250
 10
135.016
 20
-275.618
 30
0.0
  0
VERTEX
  5
222
  8
LAYER_1
 62
   250
 10
135.016
 20
-274.6258
 30
0.0
  0
SEQEND
  5
265
  8
LAYER_1
 62
   250
  0
POLYLINE
  5
A5
  8
LAYER_1
 62
   250
 66
     1
 10
0.0
 20
0.0
 30
0.0
  0
VERTEX
  5
223
  8
LAYER_1
 62
   250
 10
135.016
 20
-281.4183
 30
0.0
  0
VERTEX
  5
224
  8
LAYER_1
 62
   250
 10
135.016
 20
-280.4261
 30
0.0
  0
SEQEND
  5
266
  8
LAYER_1
 62
   250
  0
POLYLINE
  5
A6
  8
LAYER_1
 62
   250
 66
     1
 10
0.0
 20
0.0
 30
0.0
  0
VERTEX
  5
225
  8
LAYER_1
 62
   250
 10
135.016
 20
-279.4184
 30
0.0
  0
VERTEX
  5
226
  8
LAYER_1
 62
   250
 10
135.016
 20
-278.4262
 30
0.0
  0
SEQEND
  5
267
  8
LAYER_1
 62
   250
  0
POLYLINE
  5
A7
  8
LAYER_1
 62
   250
 66
     1
 10
0.0
 20
0.0
 30
0.0
  0
VERTEX
  5
227
  8
LAYER_1
 62
   250
 10
135.016
 20
-281.4183
 30
0.0
  0
VERTEX
  5
228
  8
LAYER_1
 62
   250
 10
135.016
 20
-280.4261
 30
0.0
  0
SEQEND
  5
268
  8
LAYER_1
 62
   250
  0
POLYLINE
  5
A8
  8
LAYER_1
 62
   250
 66
     1
 10
0.0
 20
0.0
 30
0.0
  0
VERTEX
  5
229
  8
LAYER_1
 62
   250
 10
135.016
 20
-279.4184
 30
0.0
  0
VERTEX
  5
22A
  8
LAYER_1
 62
   250
 10
135.016
 20
-278.4262
 30
0.0
  0
SEQEND
  5
269
  8
LAYER_1
 62
   250
  0
POLYLINE
  5
A9
  8
LAYER_1
 62
   250
 66
     1
 10
0.0
 20
0.0
 30
0.0
  0
VERTEX
  5
22B
  8
LAYER_1
 62
   250
 10
135.016
 20
-284.9179
 30
0.0
  0
VERTEX
  5
22C
  8
LAYER_1
 62
   250
 10
135.016
 20
-283.9257
 30
0.0
  0
SEQEND
  5
26A
  8
LAYER_1
 62
   250
  0
POLYLINE
  5
AA
  8
LAYER_1
 62
   250
 66
     1
 10
0.0
 20
0.0
 30
0.0
  0
VERTEX
  5
22D
  8
LAYER_1
 62
   250
 10
135.016
 20
-283.218
 30
0.0
  0
VERTEX
  5
22E
  8
LAYER_1
 62
   250
 10
135.016
 20
-282.2258
 30
0.0
  0
SEQEND
  5
26B
  8
LAYER_1
 62
   250
  0
POLYLINE
  5
AB
  8
LAYER_1
 62
   250
 66
     1
 10
0.0
 20
0.0
 30
0.0
  0
VERTEX
  5
22F
  8
LAYER_1
 62
   250
 10
135.016
 20
-283.218
 30
0.0
  0
VERTEX
  5
230
  8
LAYER_1
 62
   250
 10
135.016
 20
-282.2258
 30
0.0
  0
SEQEND
  5
26C
  8
LAYER_1
 62
   250
  0
ENDSEC
  0
EOF
