  0
SECTION
  2
HEADER
  9
$ACADVER
  1
AC1006
  9
$DWGCODEPAGE
  3
ansi_1251
  9
$INSBASE
 10
0.0
 20
0.0
 30
0.0
  9
$EXTMIN
 10
-81.0948
 20
-631.5061
  9
$EXTMAX
 10
93.9814
 20
-492.4299
  9
$LIMMIN
 10
0.0
 20
0.0
  9
$LIMMAX
 10
12.0
 20
9.0
  9
$ORTHOMODE
 70
     0
  9
$REGENMODE
 70
     1
  9
$FILLMODE
 70
     1
  9
$QTEXTMODE
 70
     0
  9
$MIRRTEXT
 70
     1
  9
$DRAGMODE
 70
     2
  9
$LTSCALE
 40
1.0
  9
$OSMODE
 70
    37
  9
$ATTMODE
 70
     1
  9
$TEXTSIZE
 40
0.2
  9
$TRACEWID
 40
0.05
  9
$TEXTSTYLE
  7
STANDARD
  9
$CLAYER
  8
0
  9
$CELTYPE
  6
BYLAYER
  9
$CECOLOR
 62
   256
  9
$DIMSCALE
 40
1.0
  9
$DIMASZ
 40
0.18
  9
$DIMEXO
 40
0.0625
  9
$DIMDLI
 40
0.38
  9
$DIMRND
 40
0.0
  9
$DIMDLE
 40
0.0
  9
$DIMEXE
 40
0.18
  9
$DIMTP
 40
0.0
  9
$DIMTM
 40
0.0
  9
$DIMTXT
 40
0.18
  9
$DIMCEN
 40
0.09
  9
$DIMTSZ
 40
0.0
  9
$DIMTOL
 70
     0
  9
$DIMLIM
 70
     0
  9
$DIMTIH
 70
     1
  9
$DIMTOH
 70
     1
  9
$DIMSE1
 70
     0
  9
$DIMSE2
 70
     0
  9
$DIMTAD
 70
     0
  9
$DIMZIN
 70
     0
  9
$DIMBLK
  1

  9
$DIMASO
 70
     1
  9
$DIMSHO
 70
     1
  9
$DIMPOST
  1

  9
$DIMAPOST
  1

  9
$DIMALT
 70
     0
  9
$DIMALTD
 70
     2
  9
$DIMALTF
 40
25.4
  9
$DIMLFAC
 40
1.0
  9
$DIMTOFL
 70
     0
  9
$DIMTVP
 40
0.0
  9
$DIMTIX
 70
     0
  9
$DIMSOXD
 70
     0
  9
$DIMSAH
 70
     0
  9
$DIMBLK1
  1

  9
$DIMBLK2
  1

  9
$LUNITS
 70
     2
  9
$LUPREC
 70
     4
  9
$SKETCHINC
 40
0.1
  9
$FILLETRAD
 40
0.5
  9
$AUNITS
 70
     0
  9
$AUPREC
 70
     0
  9
$MENU
  1
.
  9
$ELEVATION
 40
0.0
  9
$THICKNESS
 40
0.0
  9
$LIMCHECK
 70
     0
  9
$CHAMFERA
 40
0.0
  9
$CHAMFERB
 40
0.0
  9
$SKPOLY
 70
     0
  9
$TDCREATE
 40
2458823.551809364
  9
$TDUPDATE
 40
2458823.551809364
  9
$TDINDWG
 40
0.0000000116
  9
$TDUSRTIMER
 40
0.0000000116
  9
$USRTIMER
 70
     1
  9
$ANGBASE
 50
0.0
  9
$ANGDIR
 70
     0
  9
$PDMODE
 70
     0
  9
$PDSIZE
 40
0.0
  9
$PLINEWID
 40
0.0
  9
$COORDS
 70
     1
  9
$SPLFRAME
 70
     0
  9
$SPLINETYPE
 70
     6
  9
$SPLINESEGS
 70
     8
  9
$ATTDIA
 70
     0
  9
$ATTREQ
 70
     1
  9
$HANDLING
 70
     1
  9
$HANDSEED
  5
3DD
  9
$SURFTAB1
 70
     6
  9
$SURFTAB2
 70
     6
  9
$SURFTYPE
 70
     6
  9
$SURFU
 70
     6
  9
$SURFV
 70
     6
  9
$UCSNAME
  2

  9
$UCSORG
 10
0.0
 20
0.0
 30
0.0
  9
$UCSXDIR
 10
1.0
 20
0.0
 30
0.0
  9
$UCSYDIR
 10
0.0
 20
1.0
 30
0.0
  9
$USERI1
 70
     0
  9
$USERI2
 70
     0
  9
$USERI3
 70
     0
  9
$USERI4
 70
     0
  9
$USERI5
 70
     0
  9
$USERR1
 40
0.0
  9
$USERR2
 40
0.0
  9
$USERR3
 40
0.0
  9
$USERR4
 40
0.0
  9
$USERR5
 40
0.0
  9
$WORLDVIEW
 70
     1
  0
ENDSEC
  0
SECTION
  2
TABLES
  0
TABLE
  2
VPORT
 70
     1
  0
VPORT
  2
*ACTIVE
 70
     0
 10
0.0
 20
0.0
 11
1.0
 21
1.0
 12
10.42990654205607
 22
4.5
 13
0.0
 23
0.0
 14
0.5
 24
0.5
 15
0.5
 25
0.5
 16
0.0
 26
0.0
 36
1.0
 17
0.0
 27
0.0
 37
0.0
 40
9.0
 41
1.972972972850329
 42
50.0
 43
0.0
 44
0.0
 50
0.0
 51
0.0
 71
     0
 72
   100
 73
     1
 74
     3
 75
     0
 76
     0
 77
     0
 78
     0
  0
ENDTAB
  0
TABLE
  2
LTYPE
 70
     2
  0
LTYPE
  2
CONTINUOUS
 70
     0
  3
Solid line
 72
    65
 73
     0
 40
0.0
  0
LTYPE
  2
NEW_LINE1
 70
     0
  3

 72
    65
 73
     2
 40
0.7
 49
0.2
 49
-0.5
  0
ENDTAB
  0
TABLE
  2
LAYER
 70
     2
  0
LAYER
  2
0
 70
     0
 62
     7
  6
CONTINUOUS
  0
LAYER
  2
LAYER_1
 70
     0
 62
     7
  6
CONTINUOUS
  0
ENDTAB
  0
TABLE
  2
STYLE
 70
     1
  0
STYLE
  2
STANDARD
 70
     0
 40
0.0
 41
1.0
 50
0.0
 71
     0
 42
0.2
  3
txt
  4

  0
ENDTAB
  0
TABLE
  2
VIEW
 70
     0
  0
ENDTAB
  0
TABLE
  2
UCS
 70
     0
  0
ENDTAB
  0
ENDSEC
  0
SECTION
  2
BLOCKS
  0
ENDSEC
  0
SECTION
  2
ENTITIES
  0
POLYLINE
  5
70
  8
LAYER_1
 62
   250
 66
     1
 10
0.0
 20
0.0
 30
0.0
 70
     1
  0
VERTEX
  5
93
  8
LAYER_1
 62
   250
 10
93.9433
 20
-591.693
 30
0.0
  0
VERTEX
  5
94
  8
LAYER_1
 62
   250
 10
85.5637
 20
-600.3895
 30
0.0
  0
VERTEX
  5
95
  8
LAYER_1
 62
   250
 10
76.2965
 20
-608.1751
 30
0.0
  0
VERTEX
  5
96
  8
LAYER_1
 62
   250
 10
66.2195
 20
-614.9731
 30
0.0
  0
VERTEX
  5
97
  8
LAYER_1
 62
   250
 10
55.4101
 20
-620.707
 30
0.0
  0
VERTEX
  5
98
  8
LAYER_1
 62
   250
 10
43.9462
 20
-625.3
 30
0.0
  0
VERTEX
  5
99
  8
LAYER_1
 62
   250
 10
31.9053
 20
-628.6756
 30
0.0
  0
VERTEX
  5
9A
  8
LAYER_1
 62
   250
 10
19.3651
 20
-630.7571
 30
0.0
  0
VERTEX
  5
9B
  8
LAYER_1
 62
   250
 10
6.4032
 20
-631.468
 30
0.0
  0
VERTEX
  5
9C
  8
LAYER_1
 62
   250
 10
-6.5424
 20
-630.7589
 30
0.0
  0
VERTEX
  5
9D
  8
LAYER_1
 62
   250
 10
-19.0676
 20
-628.6826
 30
0.0
  0
VERTEX
  5
9E
  8
LAYER_1
 62
   250
 10
-31.0949
 20
-625.3153
 30
0.0
  0
VERTEX
  5
9F
  8
LAYER_1
 62
   250
 10
-42.5471
 20
-620.7335
 30
0.0
  0
VERTEX
  5
A0
  8
LAYER_1
 62
   250
 10
-53.3467
 20
-615.0133
 30
0.0
  0
VERTEX
  5
A1
  8
LAYER_1
 62
   250
 10
-63.4164
 20
-608.2312
 30
0.0
  0
VERTEX
  5
A2
  8
LAYER_1
 62
   250
 10
-72.6789
 20
-600.4634
 30
0.0
  0
VERTEX
  5
A3
  8
LAYER_1
 62
   250
 10
-81.0567
 20
-591.7863
 30
0.0
  0
VERTEX
  5
A4
  8
LAYER_1
 62
   250
 10
-81.0567
 20
-543.4194
 30
0.0
  0
VERTEX
  5
A5
  8
LAYER_1
 62
   250
 10
-80.9955
 20
-542.8265
 30
0.0
  0
VERTEX
  5
A6
  8
LAYER_1
 62
   250
 10
-80.82
 20
-542.2734
 30
0.0
  0
VERTEX
  5
A7
  8
LAYER_1
 62
   250
 10
-80.5425
 20
-541.7722
 30
0.0
  0
VERTEX
  5
A8
  8
LAYER_1
 62
   250
 10
-80.1755
 20
-541.335
 30
0.0
  0
VERTEX
  5
A9
  8
LAYER_1
 62
   250
 10
-79.731
 20
-540.9738
 30
0.0
  0
VERTEX
  5
AA
  8
LAYER_1
 62
   250
 10
-79.2215
 20
-540.7009
 30
0.0
  0
VERTEX
  5
AB
  8
LAYER_1
 62
   250
 10
-78.6593
 20
-540.5282
 30
0.0
  0
VERTEX
  5
AC
  8
LAYER_1
 62
   250
 10
-78.0567
 20
-540.468
 30
0.0
  0
VERTEX
  5
AD
  8
LAYER_1
 62
   250
 10
-34.7051
 20
-540.468
 30
0.0
  0
VERTEX
  5
AE
  8
LAYER_1
 62
   250
 10
-33.9317
 20
-540.2792
 30
0.0
  0
VERTEX
  5
AF
  8
LAYER_1
 62
   250
 10
-33.2097
 20
-539.9748
 30
0.0
  0
VERTEX
  5
B0
  8
LAYER_1
 62
   250
 10
-32.5498
 20
-539.5655
 30
0.0
  0
VERTEX
  5
B1
  8
LAYER_1
 62
   250
 10
-31.9628
 20
-539.0619
 30
0.0
  0
VERTEX
  5
B2
  8
LAYER_1
 62
   250
 10
-31.4592
 20
-538.4749
 30
0.0
  0
VERTEX
  5
B3
  8
LAYER_1
 62
   250
 10
-31.0499
 20
-537.815
 30
0.0
  0
VERTEX
  5
B4
  8
LAYER_1
 62
   250
 10
-30.7455
 20
-537.093
 30
0.0
  0
VERTEX
  5
B5
  8
LAYER_1
 62
   250
 10
-30.5567
 20
-536.3196
 30
0.0
  0
VERTEX
  5
B6
  8
LAYER_1
 62
   250
 10
-30.5567
 20
-497.468
 30
0.0
  0
VERTEX
  5
B7
  8
LAYER_1
 62
   250
 10
-30.4546
 20
-496.4636
 30
0.0
  0
VERTEX
  5
B8
  8
LAYER_1
 62
   250
 10
-30.1622
 20
-495.5266
 30
0.0
  0
VERTEX
  5
B9
  8
LAYER_1
 62
   250
 10
-29.6998
 20
-494.6775
 30
0.0
  0
VERTEX
  5
BA
  8
LAYER_1
 62
   250
 10
-29.088
 20
-493.9368
 30
0.0
  0
VERTEX
  5
BB
  8
LAYER_1
 62
   250
 10
-28.3472
 20
-493.3249
 30
0.0
  0
VERTEX
  5
BC
  8
LAYER_1
 62
   250
 10
-27.4981
 20
-492.8625
 30
0.0
  0
VERTEX
  5
BD
  8
LAYER_1
 62
   250
 10
-26.5611
 20
-492.5701
 30
0.0
  0
VERTEX
  5
BE
  8
LAYER_1
 62
   250
 10
-25.5567
 20
-492.468
 30
0.0
  0
VERTEX
  5
BF
  8
LAYER_1
 62
   250
 10
38.4433
 20
-492.468
 30
0.0
  0
VERTEX
  5
C0
  8
LAYER_1
 62
   250
 10
39.4477
 20
-492.5701
 30
0.0
  0
VERTEX
  5
C1
  8
LAYER_1
 62
   250
 10
40.3847
 20
-492.8625
 30
0.0
  0
VERTEX
  5
C2
  8
LAYER_1
 62
   250
 10
41.2338
 20
-493.3249
 30
0.0
  0
VERTEX
  5
C3
  8
LAYER_1
 62
   250
 10
41.9746
 20
-493.9368
 30
0.0
  0
VERTEX
  5
C4
  8
LAYER_1
 62
   250
 10
42.5864
 20
-494.6775
 30
0.0
  0
VERTEX
  5
C5
  8
LAYER_1
 62
   250
 10
43.0488
 20
-495.5266
 30
0.0
  0
VERTEX
  5
C6
  8
LAYER_1
 62
   250
 10
43.3412
 20
-496.4636
 30
0.0
  0
VERTEX
  5
C7
  8
LAYER_1
 62
   250
 10
43.4433
 20
-497.468
 30
0.0
  0
VERTEX
  5
C8
  8
LAYER_1
 62
   250
 10
43.4433
 20
-536.1929
 30
0.0
  0
VERTEX
  5
C9
  8
LAYER_1
 62
   250
 10
43.6125
 20
-536.9806
 30
0.0
  0
VERTEX
  5
CA
  8
LAYER_1
 62
   250
 10
43.9009
 20
-537.7179
 30
0.0
  0
VERTEX
  5
CB
  8
LAYER_1
 62
   250
 10
44.2978
 20
-538.3937
 30
0.0
  0
VERTEX
  5
CC
  8
LAYER_1
 62
   250
 10
44.7921
 20
-538.9972
 30
0.0
  0
VERTEX
  5
CD
  8
LAYER_1
 62
   250
 10
45.3729
 20
-539.5173
 30
0.0
  0
VERTEX
  5
CE
  8
LAYER_1
 62
   250
 10
46.0292
 20
-539.9431
 30
0.0
  0
VERTEX
  5
CF
  8
LAYER_1
 62
   250
 10
46.75
 20
-540.2637
 30
0.0
  0
VERTEX
  5
D0
  8
LAYER_1
 62
   250
 10
47.5244
 20
-540.468
 30
0.0
  0
VERTEX
  5
D1
  8
LAYER_1
 62
   250
 10
90.9433
 20
-540.468
 30
0.0
  0
VERTEX
  5
D2
  8
LAYER_1
 62
   250
 10
91.5459
 20
-540.5282
 30
0.0
  0
VERTEX
  5
D3
  8
LAYER_1
 62
   250
 10
92.1081
 20
-540.7009
 30
0.0
  0
VERTEX
  5
D4
  8
LAYER_1
 62
   250
 10
92.6176
 20
-540.9738
 30
0.0
  0
VERTEX
  5
D5
  8
LAYER_1
 62
   250
 10
93.0621
 20
-541.335
 30
0.0
  0
VERTEX
  5
D6
  8
LAYER_1
 62
   250
 10
93.4291
 20
-541.7722
 30
0.0
  0
VERTEX
  5
D7
  8
LAYER_1
 62
   250
 10
93.7066
 20
-542.2734
 30
0.0
  0
VERTEX
  5
D8
  8
LAYER_1
 62
   250
 10
93.8821
 20
-542.8265
 30
0.0
  0
VERTEX
  5
D9
  8
LAYER_1
 62
   250
 10
93.9433
 20
-543.4194
 30
0.0
  0
VERTEX
  5
DA
  8
LAYER_1
 62
   250
 10
93.9433
 20
-591.693
 30
0.0
  0
SEQEND
  5
3C2
  8
LAYER_1
 62
   250
  0
POLYLINE
  5
71
  8
LAYER_1
 62
   250
 66
     1
 10
0.0
 20
0.0
 30
0.0
 70
     1
  0
VERTEX
  5
DB
  8
LAYER_1
 62
   250
 10
-63.5567
 20
-544.618
 30
0.0
  0
VERTEX
  5
DC
  8
LAYER_1
 62
   250
 10
-64.04442580504032
 20
-544.666036798992
 30
0.0
  0
VERTEX
  5
DD
  8
LAYER_1
 62
   250
 10
-64.51340858091272
 20
-544.8083011687219
 30
0.0
  0
VERTEX
  5
DE
  8
LAYER_1
 62
   250
 10
-64.945625582549
 20
-545.0393259692437
 30
0.0
  0
VERTEX
  5
DF
  8
LAYER_1
 62
   250
 10
-65.32446695296636
 20
-545.3502330470337
 30
0.0
  0
VERTEX
  5
E0
  8
LAYER_1
 62
   250
 10
-65.63537403075637
 20
-545.7290744174511
 30
0.0
  0
VERTEX
  5
E1
  8
LAYER_1
 62
   250
 10
-65.86639883127822
 20
-546.1612914190873
 30
0.0
  0
VERTEX
  5
E2
  8
LAYER_1
 62
   250
 10
-66.00866320100808
 20
-546.6302741949597
 30
0.0
  0
VERTEX
  5
E3
  8
LAYER_1
 62
   250
 10
-66.0567
 20
-547.118
 30
0.0
  0
VERTEX
  5
E4
  8
LAYER_1
 62
   250
 10
-66.00866320100808
 20
-547.6057258050404
 30
0.0
  0
VERTEX
  5
E5
  8
LAYER_1
 62
   250
 10
-65.86639883127822
 20
-548.0747085809128
 30
0.0
  0
VERTEX
  5
E6
  8
LAYER_1
 62
   250
 10
-65.63537403075637
 20
-548.506925582549
 30
0.0
  0
VERTEX
  5
E7
  8
LAYER_1
 62
   250
 10
-65.32446695296636
 20
-548.8857669529664
 30
0.0
  0
VERTEX
  5
E8
  8
LAYER_1
 62
   250
 10
-64.945625582549
 20
-549.1966740307564
 30
0.0
  0
VERTEX
  5
E9
  8
LAYER_1
 62
   250
 10
-64.51340858091272
 20
-549.4276988312782
 30
0.0
  0
VERTEX
  5
EA
  8
LAYER_1
 62
   250
 10
-64.04442580504032
 20
-549.5699632010081
 30
0.0
  0
VERTEX
  5
EB
  8
LAYER_1
 62
   250
 10
-63.5567
 20
-549.618
 30
0.0
  0
VERTEX
  5
EC
  8
LAYER_1
 62
   250
 10
-63.06897419495968
 20
-549.5699632010081
 30
0.0
  0
VERTEX
  5
ED
  8
LAYER_1
 62
   250
 10
-62.59999141908727
 20
-549.4276988312782
 30
0.0
  0
VERTEX
  5
EE
  8
LAYER_1
 62
   250
 10
-62.16777441745099
 20
-549.1966740307564
 30
0.0
  0
VERTEX
  5
EF
  8
LAYER_1
 62
   250
 10
-61.78893304703363
 20
-548.8857669529664
 30
0.0
  0
VERTEX
  5
F0
  8
LAYER_1
 62
   250
 10
-61.47802596924363
 20
-548.506925582549
 30
0.0
  0
VERTEX
  5
F1
  8
LAYER_1
 62
   250
 10
-61.24700116872178
 20
-548.0747085809128
 30
0.0
  0
VERTEX
  5
F2
  8
LAYER_1
 62
   250
 10
-61.10473679899192
 20
-547.6057258050404
 30
0.0
  0
VERTEX
  5
F3
  8
LAYER_1
 62
   250
 10
-61.0567
 20
-547.118
 30
0.0
  0
VERTEX
  5
F4
  8
LAYER_1
 62
   250
 10
-61.10473679899192
 20
-546.6302741949597
 30
0.0
  0
VERTEX
  5
F5
  8
LAYER_1
 62
   250
 10
-61.24700116872179
 20
-546.1612914190873
 30
0.0
  0
VERTEX
  5
F6
  8
LAYER_1
 62
   250
 10
-61.47802596924364
 20
-545.729074417451
 30
0.0
  0
VERTEX
  5
F7
  8
LAYER_1
 62
   250
 10
-61.78893304703364
 20
-545.3502330470337
 30
0.0
  0
VERTEX
  5
F8
  8
LAYER_1
 62
   250
 10
-62.167774417451
 20
-545.0393259692437
 30
0.0
  0
VERTEX
  5
F9
  8
LAYER_1
 62
   250
 10
-62.59999141908728
 20
-544.8083011687219
 30
0.0
  0
VERTEX
  5
FA
  8
LAYER_1
 62
   250
 10
-63.06897419495969
 20
-544.666036798992
 30
0.0
  0
SEQEND
  5
3C3
  8
LAYER_1
 62
   250
  0
POLYLINE
  5
72
  8
LAYER_1
 62
   250
 66
     1
 10
0.0
 20
0.0
 30
0.0
 70
     1
  0
VERTEX
  5
FB
  8
LAYER_1
 62
   250
 10
76.4433
 20
-544.618
 30
0.0
  0
VERTEX
  5
FC
  8
LAYER_1
 62
   250
 10
75.95557419495967
 20
-544.666036798992
 30
0.0
  0
VERTEX
  5
FD
  8
LAYER_1
 62
   250
 10
75.48659141908728
 20
-544.8083011687219
 30
0.0
  0
VERTEX
  5
FE
  8
LAYER_1
 62
   250
 10
75.05437441745099
 20
-545.0393259692437
 30
0.0
  0
VERTEX
  5
FF
  8
LAYER_1
 62
   250
 10
74.67553304703362
 20
-545.3502330470337
 30
0.0
  0
VERTEX
  5
100
  8
LAYER_1
 62
   250
 10
74.36462596924363
 20
-545.7290744174511
 30
0.0
  0
VERTEX
  5
101
  8
LAYER_1
 62
   250
 10
74.13360116872178
 20
-546.1612914190873
 30
0.0
  0
VERTEX
  5
102
  8
LAYER_1
 62
   250
 10
73.99133679899192
 20
-546.6302741949597
 30
0.0
  0
VERTEX
  5
103
  8
LAYER_1
 62
   250
 10
73.9433
 20
-547.118
 30
0.0
  0
VERTEX
  5
104
  8
LAYER_1
 62
   250
 10
73.99133679899192
 20
-547.6057258050404
 30
0.0
  0
VERTEX
  5
105
  8
LAYER_1
 62
   250
 10
74.13360116872178
 20
-548.0747085809128
 30
0.0
  0
VERTEX
  5
106
  8
LAYER_1
 62
   250
 10
74.36462596924363
 20
-548.506925582549
 30
0.0
  0
VERTEX
  5
107
  8
LAYER_1
 62
   250
 10
74.67553304703362
 20
-548.8857669529664
 30
0.0
  0
VERTEX
  5
108
  8
LAYER_1
 62
   250
 10
75.05437441745099
 20
-549.1966740307564
 30
0.0
  0
VERTEX
  5
109
  8
LAYER_1
 62
   250
 10
75.48659141908728
 20
-549.4276988312782
 30
0.0
  0
VERTEX
  5
10A
  8
LAYER_1
 62
   250
 10
75.95557419495968
 20
-549.5699632010081
 30
0.0
  0
VERTEX
  5
10B
  8
LAYER_1
 62
   250
 10
76.4433
 20
-549.618
 30
0.0
  0
VERTEX
  5
10C
  8
LAYER_1
 62
   250
 10
76.93102580504032
 20
-549.5699632010081
 30
0.0
  0
VERTEX
  5
10D
  8
LAYER_1
 62
   250
 10
77.40000858091273
 20
-549.4276988312782
 30
0.0
  0
VERTEX
  5
10E
  8
LAYER_1
 62
   250
 10
77.832225582549
 20
-549.1966740307564
 30
0.0
  0
VERTEX
  5
10F
  8
LAYER_1
 62
   250
 10
78.21106695296636
 20
-548.8857669529664
 30
0.0
  0
VERTEX
  5
110
  8
LAYER_1
 62
   250
 10
78.52197403075635
 20
-548.506925582549
 30
0.0
  0
VERTEX
  5
111
  8
LAYER_1
 62
   250
 10
78.7529988312782
 20
-548.0747085809128
 30
0.0
  0
VERTEX
  5
112
  8
LAYER_1
 62
   250
 10
78.89526320100808
 20
-547.6057258050404
 30
0.0
  0
VERTEX
  5
113
  8
LAYER_1
 62
   250
 10
78.9433
 20
-547.118
 30
0.0
  0
VERTEX
  5
114
  8
LAYER_1
 62
   250
 10
78.89526320100806
 20
-546.6302741949597
 30
0.0
  0
VERTEX
  5
115
  8
LAYER_1
 62
   250
 10
78.7529988312782
 20
-546.1612914190873
 30
0.0
  0
VERTEX
  5
116
  8
LAYER_1
 62
   250
 10
78.52197403075635
 20
-545.729074417451
 30
0.0
  0
VERTEX
  5
117
  8
LAYER_1
 62
   250
 10
78.21106695296636
 20
-545.3502330470337
 30
0.0
  0
VERTEX
  5
118
  8
LAYER_1
 62
   250
 10
77.83222558254899
 20
-545.0393259692437
 30
0.0
  0
VERTEX
  5
119
  8
LAYER_1
 62
   250
 10
77.40000858091271
 20
-544.8083011687219
 30
0.0
  0
VERTEX
  5
11A
  8
LAYER_1
 62
   250
 10
76.9310258050403
 20
-544.666036798992
 30
0.0
  0
SEQEND
  5
3C4
  8
LAYER_1
 62
   250
  0
POLYLINE
  5
73
  8
LAYER_1
 62
   250
 66
     1
 10
0.0
 20
0.0
 30
0.0
 70
     1
  0
VERTEX
  5
11B
  8
LAYER_1
 62
   250
 10
-24.5858
 20
-596.293
 30
0.0
  0
VERTEX
  5
11C
  8
LAYER_1
 62
   250
 10
-25.07352580504032
 20
-596.3410367989919
 30
0.0
  0
VERTEX
  5
11D
  8
LAYER_1
 62
   250
 10
-25.54250858091272
 20
-596.4833011687218
 30
0.0
  0
VERTEX
  5
11E
  8
LAYER_1
 62
   250
 10
-25.97472558254901
 20
-596.7143259692436
 30
0.0
  0
VERTEX
  5
11F
  8
LAYER_1
 62
   250
 10
-26.35356695296637
 20
-597.0252330470337
 30
0.0
  0
VERTEX
  5
120
  8
LAYER_1
 62
   250
 10
-26.66447403075636
 20
-597.404074417451
 30
0.0
  0
VERTEX
  5
121
  8
LAYER_1
 62
   250
 10
-26.89549883127822
 20
-597.8362914190873
 30
0.0
  0
VERTEX
  5
122
  8
LAYER_1
 62
   250
 10
-27.03776320100808
 20
-598.3052741949597
 30
0.0
  0
VERTEX
  5
123
  8
LAYER_1
 62
   250
 10
-27.0858
 20
-598.793
 30
0.0
  0
VERTEX
  5
124
  8
LAYER_1
 62
   250
 10
-27.03776320100808
 20
-599.2807258050403
 30
0.0
  0
VERTEX
  5
125
  8
LAYER_1
 62
   250
 10
-26.89549883127822
 20
-599.7497085809127
 30
0.0
  0
VERTEX
  5
126
  8
LAYER_1
 62
   250
 10
-26.66447403075636
 20
-600.181925582549
 30
0.0
  0
VERTEX
  5
127
  8
LAYER_1
 62
   250
 10
-26.35356695296637
 20
-600.5607669529663
 30
0.0
  0
VERTEX
  5
128
  8
LAYER_1
 62
   250
 10
-25.97472558254901
 20
-600.8716740307564
 30
0.0
  0
VERTEX
  5
129
  8
LAYER_1
 62
   250
 10
-25.54250858091272
 20
-601.1026988312782
 30
0.0
  0
VERTEX
  5
12A
  8
LAYER_1
 62
   250
 10
-25.07352580504032
 20
-601.2449632010081
 30
0.0
  0
VERTEX
  5
12B
  8
LAYER_1
 62
   250
 10
-24.5858
 20
-601.293
 30
0.0
  0
VERTEX
  5
12C
  8
LAYER_1
 62
   250
 10
-24.09807419495968
 20
-601.2449632010081
 30
0.0
  0
VERTEX
  5
12D
  8
LAYER_1
 62
   250
 10
-23.62909141908727
 20
-601.1026988312782
 30
0.0
  0
VERTEX
  5
12E
  8
LAYER_1
 62
   250
 10
-23.19687441745099
 20
-600.8716740307564
 30
0.0
  0
VERTEX
  5
12F
  8
LAYER_1
 62
   250
 10
-22.81803304703363
 20
-600.5607669529663
 30
0.0
  0
VERTEX
  5
130
  8
LAYER_1
 62
   250
 10
-22.50712596924363
 20
-600.181925582549
 30
0.0
  0
VERTEX
  5
131
  8
LAYER_1
 62
   250
 10
-22.27610116872178
 20
-599.7497085809127
 30
0.0
  0
VERTEX
  5
132
  8
LAYER_1
 62
   250
 10
-22.13383679899192
 20
-599.2807258050403
 30
0.0
  0
VERTEX
  5
133
  8
LAYER_1
 62
   250
 10
-22.0858
 20
-598.793
 30
0.0
  0
VERTEX
  5
134
  8
LAYER_1
 62
   250
 10
-22.13383679899193
 20
-598.3052741949597
 30
0.0
  0
VERTEX
  5
135
  8
LAYER_1
 62
   250
 10
-22.27610116872178
 20
-597.8362914190873
 30
0.0
  0
VERTEX
  5
136
  8
LAYER_1
 62
   250
 10
-22.50712596924364
 20
-597.4040744174509
 30
0.0
  0
VERTEX
  5
137
  8
LAYER_1
 62
   250
 10
-22.81803304703364
 20
-597.0252330470337
 30
0.0
  0
VERTEX
  5
138
  8
LAYER_1
 62
   250
 10
-23.196874417451
 20
-596.7143259692436
 30
0.0
  0
VERTEX
  5
139
  8
LAYER_1
 62
   250
 10
-23.62909141908728
 20
-596.4833011687218
 30
0.0
  0
VERTEX
  5
13A
  8
LAYER_1
 62
   250
 10
-24.09807419495969
 20
-596.3410367989919
 30
0.0
  0
SEQEND
  5
3C5
  8
LAYER_1
 62
   250
  0
POLYLINE
  5
74
  8
LAYER_1
 62
   250
 66
     1
 10
0.0
 20
0.0
 30
0.0
 70
     1
  0
VERTEX
  5
13B
  8
LAYER_1
 62
   250
 10
37.4724
 20
-596.293
 30
0.0
  0
VERTEX
  5
13C
  8
LAYER_1
 62
   250
 10
36.98467419495968
 20
-596.3410367989919
 30
0.0
  0
VERTEX
  5
13D
  8
LAYER_1
 62
   250
 10
36.51569141908728
 20
-596.4833011687218
 30
0.0
  0
VERTEX
  5
13E
  8
LAYER_1
 62
   250
 10
36.08347441745099
 20
-596.7143259692436
 30
0.0
  0
VERTEX
  5
13F
  8
LAYER_1
 62
   250
 10
35.70463304703363
 20
-597.0252330470337
 30
0.0
  0
VERTEX
  5
140
  8
LAYER_1
 62
   250
 10
35.39372596924364
 20
-597.404074417451
 30
0.0
  0
VERTEX
  5
141
  8
LAYER_1
 62
   250
 10
35.16270116872178
 20
-597.8362914190873
 30
0.0
  0
VERTEX
  5
142
  8
LAYER_1
 62
   250
 10
35.02043679899192
 20
-598.3052741949597
 30
0.0
  0
VERTEX
  5
143
  8
LAYER_1
 62
   250
 10
34.9724
 20
-598.793
 30
0.0
  0
VERTEX
  5
144
  8
LAYER_1
 62
   250
 10
35.02043679899192
 20
-599.2807258050403
 30
0.0
  0
VERTEX
  5
145
  8
LAYER_1
 62
   250
 10
35.16270116872178
 20
-599.7497085809127
 30
0.0
  0
VERTEX
  5
146
  8
LAYER_1
 62
   250
 10
35.39372596924364
 20
-600.181925582549
 30
0.0
  0
VERTEX
  5
147
  8
LAYER_1
 62
   250
 10
35.70463304703363
 20
-600.5607669529663
 30
0.0
  0
VERTEX
  5
148
  8
LAYER_1
 62
   250
 10
36.08347441745099
 20
-600.8716740307564
 30
0.0
  0
VERTEX
  5
149
  8
LAYER_1
 62
   250
 10
36.51569141908728
 20
-601.1026988312782
 30
0.0
  0
VERTEX
  5
14A
  8
LAYER_1
 62
   250
 10
36.98467419495968
 20
-601.2449632010081
 30
0.0
  0
VERTEX
  5
14B
  8
LAYER_1
 62
   250
 10
37.4724
 20
-601.293
 30
0.0
  0
VERTEX
  5
14C
  8
LAYER_1
 62
   250
 10
37.96012580504032
 20
-601.2449632010081
 30
0.0
  0
VERTEX
  5
14D
  8
LAYER_1
 62
   250
 10
38.42910858091273
 20
-601.1026988312782
 30
0.0
  0
VERTEX
  5
14E
  8
LAYER_1
 62
   250
 10
38.86132558254901
 20
-600.8716740307564
 30
0.0
  0
VERTEX
  5
14F
  8
LAYER_1
 62
   250
 10
39.24016695296637
 20
-600.5607669529663
 30
0.0
  0
VERTEX
  5
150
  8
LAYER_1
 62
   250
 10
39.55107403075637
 20
-600.181925582549
 30
0.0
  0
VERTEX
  5
151
  8
LAYER_1
 62
   250
 10
39.78209883127822
 20
-599.7497085809127
 30
0.0
  0
VERTEX
  5
152
  8
LAYER_1
 62
   250
 10
39.92436320100808
 20
-599.2807258050403
 30
0.0
  0
VERTEX
  5
153
  8
LAYER_1
 62
   250
 10
39.9724
 20
-598.793
 30
0.0
  0
VERTEX
  5
154
  8
LAYER_1
 62
   250
 10
39.92436320100808
 20
-598.3052741949597
 30
0.0
  0
VERTEX
  5
155
  8
LAYER_1
 62
   250
 10
39.78209883127821
 20
-597.8362914190873
 30
0.0
  0
VERTEX
  5
156
  8
LAYER_1
 62
   250
 10
39.55107403075636
 20
-597.4040744174509
 30
0.0
  0
VERTEX
  5
157
  8
LAYER_1
 62
   250
 10
39.24016695296636
 20
-597.0252330470337
 30
0.0
  0
VERTEX
  5
158
  8
LAYER_1
 62
   250
 10
38.861325582549
 20
-596.7143259692436
 30
0.0
  0
VERTEX
  5
159
  8
LAYER_1
 62
   250
 10
38.42910858091272
 20
-596.4833011687218
 30
0.0
  0
VERTEX
  5
15A
  8
LAYER_1
 62
   250
 10
37.96012580504031
 20
-596.3410367989919
 30
0.0
  0
SEQEND
  5
3C6
  8
LAYER_1
 62
   250
  0
POLYLINE
  5
75
  8
LAYER_1
 62
     2
 66
     1
 10
0.0
 20
0.0
 30
0.0
 70
     1
  0
VERTEX
  5
15B
  8
LAYER_1
 62
     2
 10
-69.268
 20
-580.539
 30
0.0
  0
VERTEX
  5
15C
  8
LAYER_1
 62
     2
 10
-43.268
 20
-580.539
 30
0.0
  0
VERTEX
  5
15D
  8
LAYER_1
 62
     2
 10
-43.268
 20
-554.539
 30
0.0
  0
VERTEX
  5
15E
  8
LAYER_1
 62
     2
 10
-69.268
 20
-554.539
 30
0.0
  0
VERTEX
  5
15F
  8
LAYER_1
 62
     2
 10
-69.268
 20
-580.539
 30
0.0
  0
SEQEND
  5
3C7
  8
LAYER_1
 62
     2
  0
POLYLINE
  5
76
  8
LAYER_1
 66
     1
 10
0.0
 20
0.0
 30
0.0
 70
     1
  0
VERTEX
  5
160
  8
LAYER_1
 10
-64.018
 20
-556.789
 30
0.0
  0
VERTEX
  5
161
  8
LAYER_1
 10
-48.518
 20
-556.789
 30
0.0
  0
VERTEX
  5
162
  8
LAYER_1
 10
-47.9154
 20
-556.8502
 30
0.0
  0
VERTEX
  5
163
  8
LAYER_1
 10
-47.3532
 20
-557.0257
 30
0.0
  0
VERTEX
  5
164
  8
LAYER_1
 10
-46.8437
 20
-557.3032
 30
0.0
  0
VERTEX
  5
165
  8
LAYER_1
 10
-46.3993
 20
-557.6703
 30
0.0
  0
VERTEX
  5
166
  8
LAYER_1
 10
-46.0322
 20
-558.1147
 30
0.0
  0
VERTEX
  5
167
  8
LAYER_1
 10
-45.7547
 20
-558.6242
 30
0.0
  0
VERTEX
  5
168
  8
LAYER_1
 10
-45.5792
 20
-559.1864
 30
0.0
  0
VERTEX
  5
169
  8
LAYER_1
 10
-45.518
 20
-559.789
 30
0.0
  0
VERTEX
  5
16A
  8
LAYER_1
 10
-45.518
 20
-575.289
 30
0.0
  0
VERTEX
  5
16B
  8
LAYER_1
 10
-45.5792
 20
-575.8916
 30
0.0
  0
VERTEX
  5
16C
  8
LAYER_1
 10
-45.7547
 20
-576.4538
 30
0.0
  0
VERTEX
  5
16D
  8
LAYER_1
 10
-46.0322
 20
-576.9633
 30
0.0
  0
VERTEX
  5
16E
  8
LAYER_1
 10
-46.3993
 20
-577.4078
 30
0.0
  0
VERTEX
  5
16F
  8
LAYER_1
 10
-46.8437
 20
-577.7748
 30
0.0
  0
VERTEX
  5
170
  8
LAYER_1
 10
-47.3532
 20
-578.0523
 30
0.0
  0
VERTEX
  5
171
  8
LAYER_1
 10
-47.9154
 20
-578.2278
 30
0.0
  0
VERTEX
  5
172
  8
LAYER_1
 10
-48.518
 20
-578.289
 30
0.0
  0
VERTEX
  5
173
  8
LAYER_1
 10
-64.018
 20
-578.289
 30
0.0
  0
VERTEX
  5
174
  8
LAYER_1
 10
-64.6206
 20
-578.2278
 30
0.0
  0
VERTEX
  5
175
  8
LAYER_1
 10
-65.1828
 20
-578.0523
 30
0.0
  0
VERTEX
  5
176
  8
LAYER_1
 10
-65.6923
 20
-577.7748
 30
0.0
  0
VERTEX
  5
177
  8
LAYER_1
 10
-66.1368
 20
-577.4078
 30
0.0
  0
VERTEX
  5
178
  8
LAYER_1
 10
-66.5038
 20
-576.9633
 30
0.0
  0
VERTEX
  5
179
  8
LAYER_1
 10
-66.7813
 20
-576.4538
 30
0.0
  0
VERTEX
  5
17A
  8
LAYER_1
 10
-66.9568
 20
-575.8916
 30
0.0
  0
VERTEX
  5
17B
  8
LAYER_1
 10
-67.018
 20
-575.289
 30
0.0
  0
VERTEX
  5
17C
  8
LAYER_1
 10
-67.018
 20
-559.789
 30
0.0
  0
VERTEX
  5
17D
  8
LAYER_1
 10
-66.9568
 20
-559.1864
 30
0.0
  0
VERTEX
  5
17E
  8
LAYER_1
 10
-66.7813
 20
-558.6242
 30
0.0
  0
VERTEX
  5
17F
  8
LAYER_1
 10
-66.5038
 20
-558.1147
 30
0.0
  0
VERTEX
  5
180
  8
LAYER_1
 10
-66.1368
 20
-557.6703
 30
0.0
  0
VERTEX
  5
181
  8
LAYER_1
 10
-65.6923
 20
-557.3032
 30
0.0
  0
VERTEX
  5
182
  8
LAYER_1
 10
-65.1828
 20
-557.0257
 30
0.0
  0
VERTEX
  5
183
  8
LAYER_1
 10
-64.6206
 20
-556.8502
 30
0.0
  0
VERTEX
  5
184
  8
LAYER_1
 10
-64.018
 20
-556.789
 30
0.0
  0
SEQEND
  5
3C8
  8
LAYER_1
  0
POLYLINE
  5
77
  8
LAYER_1
 66
     1
 10
0.0
 20
0.0
 30
0.0
 70
     1
  0
VERTEX
  5
185
  8
LAYER_1
 10
-43.518
 20
-553.4925
 30
0.0
  0
VERTEX
  5
186
  8
LAYER_1
 10
-43.77093460249391
 20
-553.5174118839572
 30
0.0
  0
VERTEX
  5
187
  8
LAYER_1
 10
-44.01414907006134
 20
-553.5911901860991
 30
0.0
  0
VERTEX
  5
188
  8
LAYER_1
 10
-44.23829680710991
 20
-553.7109996476497
 30
0.0
  0
VERTEX
  5
189
  8
LAYER_1
 10
-44.43476394180836
 20
-553.8722360581917
 30
0.0
  0
VERTEX
  5
18A
  8
LAYER_1
 10
-44.59600035235025
 20
-554.0687031928901
 30
0.0
  0
VERTEX
  5
18B
  8
LAYER_1
 10
-44.71580981390088
 20
-554.2928509299386
 30
0.0
  0
VERTEX
  5
18C
  8
LAYER_1
 10
-44.78958811604279
 20
-554.536065397506
 30
0.0
  0
VERTEX
  5
18D
  8
LAYER_1
 10
-44.8145
 20
-554.789
 30
0.0
  0
VERTEX
  5
18E
  8
LAYER_1
 10
-44.78958811604279
 20
-555.0419346024939
 30
0.0
  0
VERTEX
  5
18F
  8
LAYER_1
 10
-44.71580981390088
 20
-555.2851490700614
 30
0.0
  0
VERTEX
  5
190
  8
LAYER_1
 10
-44.59600035235025
 20
-555.5092968071099
 30
0.0
  0
VERTEX
  5
191
  8
LAYER_1
 10
-44.43476394180836
 20
-555.7057639418083
 30
0.0
  0
VERTEX
  5
192
  8
LAYER_1
 10
-44.23829680710991
 20
-555.8670003523503
 30
0.0
  0
VERTEX
  5
193
  8
LAYER_1
 10
-44.01414907006134
 20
-555.9868098139009
 30
0.0
  0
VERTEX
  5
194
  8
LAYER_1
 10
-43.77093460249391
 20
-556.0605881160428
 30
0.0
  0
VERTEX
  5
195
  8
LAYER_1
 10
-43.518
 20
-556.0855
 30
0.0
  0
VERTEX
  5
196
  8
LAYER_1
 10
-43.26506539750609
 20
-556.0605881160428
 30
0.0
  0
VERTEX
  5
197
  8
LAYER_1
 10
-43.02185092993866
 20
-555.9868098139009
 30
0.0
  0
VERTEX
  5
198
  8
LAYER_1
 10
-42.79770319289008
 20
-555.8670003523503
 30
0.0
  0
VERTEX
  5
199
  8
LAYER_1
 10
-42.60123605819164
 20
-555.7057639418083
 30
0.0
  0
VERTEX
  5
19A
  8
LAYER_1
 10
-42.43999964764975
 20
-555.5092968071099
 30
0.0
  0
VERTEX
  5
19B
  8
LAYER_1
 10
-42.32019018609912
 20
-555.2851490700614
 30
0.0
  0
VERTEX
  5
19C
  8
LAYER_1
 10
-42.24641188395722
 20
-555.0419346024939
 30
0.0
  0
VERTEX
  5
19D
  8
LAYER_1
 10
-42.2215
 20
-554.789
 30
0.0
  0
VERTEX
  5
19E
  8
LAYER_1
 10
-42.24641188395722
 20
-554.536065397506
 30
0.0
  0
VERTEX
  5
19F
  8
LAYER_1
 10
-42.32019018609912
 20
-554.2928509299386
 30
0.0
  0
VERTEX
  5
1A0
  8
LAYER_1
 10
-42.43999964764976
 20
-554.0687031928901
 30
0.0
  0
VERTEX
  5
1A1
  8
LAYER_1
 10
-42.60123605819165
 20
-553.8722360581917
 30
0.0
  0
VERTEX
  5
1A2
  8
LAYER_1
 10
-42.79770319289009
 20
-553.7109996476497
 30
0.0
  0
VERTEX
  5
1A3
  8
LAYER_1
 10
-43.02185092993867
 20
-553.5911901860991
 30
0.0
  0
VERTEX
  5
1A4
  8
LAYER_1
 10
-43.26506539750609
 20
-553.5174118839572
 30
0.0
  0
SEQEND
  5
3C9
  8
LAYER_1
  0
POLYLINE
  5
78
  8
LAYER_1
 66
     1
 10
0.0
 20
0.0
 30
0.0
 70
     1
  0
VERTEX
  5
1A5
  8
LAYER_1
 10
-69.018
 20
-553.4925
 30
0.0
  0
VERTEX
  5
1A6
  8
LAYER_1
 10
-69.27093460249391
 20
-553.5174118839572
 30
0.0
  0
VERTEX
  5
1A7
  8
LAYER_1
 10
-69.51414907006134
 20
-553.5911901860991
 30
0.0
  0
VERTEX
  5
1A8
  8
LAYER_1
 10
-69.73829680710992
 20
-553.7109996476497
 30
0.0
  0
VERTEX
  5
1A9
  8
LAYER_1
 10
-69.93476394180836
 20
-553.8722360581917
 30
0.0
  0
VERTEX
  5
1AA
  8
LAYER_1
 10
-70.09600035235025
 20
-554.0687031928901
 30
0.0
  0
VERTEX
  5
1AB
  8
LAYER_1
 10
-70.21580981390089
 20
-554.2928509299386
 30
0.0
  0
VERTEX
  5
1AC
  8
LAYER_1
 10
-70.2895881160428
 20
-554.536065397506
 30
0.0
  0
VERTEX
  5
1AD
  8
LAYER_1
 10
-70.3145
 20
-554.789
 30
0.0
  0
VERTEX
  5
1AE
  8
LAYER_1
 10
-70.2895881160428
 20
-555.0419346024939
 30
0.0
  0
VERTEX
  5
1AF
  8
LAYER_1
 10
-70.21580981390089
 20
-555.2851490700614
 30
0.0
  0
VERTEX
  5
1B0
  8
LAYER_1
 10
-70.09600035235025
 20
-555.5092968071099
 30
0.0
  0
VERTEX
  5
1B1
  8
LAYER_1
 10
-69.93476394180836
 20
-555.7057639418083
 30
0.0
  0
VERTEX
  5
1B2
  8
LAYER_1
 10
-69.73829680710992
 20
-555.8670003523503
 30
0.0
  0
VERTEX
  5
1B3
  8
LAYER_1
 10
-69.51414907006134
 20
-555.9868098139009
 30
0.0
  0
VERTEX
  5
1B4
  8
LAYER_1
 10
-69.27093460249391
 20
-556.0605881160428
 30
0.0
  0
VERTEX
  5
1B5
  8
LAYER_1
 10
-69.018
 20
-556.0855
 30
0.0
  0
VERTEX
  5
1B6
  8
LAYER_1
 10
-68.76506539750609
 20
-556.0605881160428
 30
0.0
  0
VERTEX
  5
1B7
  8
LAYER_1
 10
-68.52185092993867
 20
-555.9868098139009
 30
0.0
  0
VERTEX
  5
1B8
  8
LAYER_1
 10
-68.29770319289008
 20
-555.8670003523503
 30
0.0
  0
VERTEX
  5
1B9
  8
LAYER_1
 10
-68.10123605819165
 20
-555.7057639418083
 30
0.0
  0
VERTEX
  5
1BA
  8
LAYER_1
 10
-67.93999964764976
 20
-555.5092968071099
 30
0.0
  0
VERTEX
  5
1BB
  8
LAYER_1
 10
-67.82019018609911
 20
-555.2851490700614
 30
0.0
  0
VERTEX
  5
1BC
  8
LAYER_1
 10
-67.74641188395721
 20
-555.0419346024939
 30
0.0
  0
VERTEX
  5
1BD
  8
LAYER_1
 10
-67.7215
 20
-554.789
 30
0.0
  0
VERTEX
  5
1BE
  8
LAYER_1
 10
-67.74641188395721
 20
-554.536065397506
 30
0.0
  0
VERTEX
  5
1BF
  8
LAYER_1
 10
-67.82019018609913
 20
-554.2928509299386
 30
0.0
  0
VERTEX
  5
1C0
  8
LAYER_1
 10
-67.93999964764976
 20
-554.0687031928901
 30
0.0
  0
VERTEX
  5
1C1
  8
LAYER_1
 10
-68.10123605819165
 20
-553.8722360581917
 30
0.0
  0
VERTEX
  5
1C2
  8
LAYER_1
 10
-68.2977031928901
 20
-553.7109996476497
 30
0.0
  0
VERTEX
  5
1C3
  8
LAYER_1
 10
-68.52185092993867
 20
-553.5911901860991
 30
0.0
  0
VERTEX
  5
1C4
  8
LAYER_1
 10
-68.76506539750609
 20
-553.5174118839572
 30
0.0
  0
SEQEND
  5
3CA
  8
LAYER_1
  0
POLYLINE
  5
79
  8
LAYER_1
 66
     1
 10
0.0
 20
0.0
 30
0.0
 70
     1
  0
VERTEX
  5
1C5
  8
LAYER_1
 10
-43.518
 20
-578.9925
 30
0.0
  0
VERTEX
  5
1C6
  8
LAYER_1
 10
-43.77093460249391
 20
-579.0174118839572
 30
0.0
  0
VERTEX
  5
1C7
  8
LAYER_1
 10
-44.01414907006134
 20
-579.0911901860991
 30
0.0
  0
VERTEX
  5
1C8
  8
LAYER_1
 10
-44.23829680710991
 20
-579.2109996476497
 30
0.0
  0
VERTEX
  5
1C9
  8
LAYER_1
 10
-44.43476394180836
 20
-579.3722360581917
 30
0.0
  0
VERTEX
  5
1CA
  8
LAYER_1
 10
-44.59600035235025
 20
-579.5687031928901
 30
0.0
  0
VERTEX
  5
1CB
  8
LAYER_1
 10
-44.71580981390088
 20
-579.7928509299386
 30
0.0
  0
VERTEX
  5
1CC
  8
LAYER_1
 10
-44.78958811604279
 20
-580.036065397506
 30
0.0
  0
VERTEX
  5
1CD
  8
LAYER_1
 10
-44.8145
 20
-580.289
 30
0.0
  0
VERTEX
  5
1CE
  8
LAYER_1
 10
-44.78958811604279
 20
-580.5419346024939
 30
0.0
  0
VERTEX
  5
1CF
  8
LAYER_1
 10
-44.71580981390088
 20
-580.7851490700614
 30
0.0
  0
VERTEX
  5
1D0
  8
LAYER_1
 10
-44.59600035235025
 20
-581.0092968071099
 30
0.0
  0
VERTEX
  5
1D1
  8
LAYER_1
 10
-44.43476394180836
 20
-581.2057639418083
 30
0.0
  0
VERTEX
  5
1D2
  8
LAYER_1
 10
-44.23829680710991
 20
-581.3670003523503
 30
0.0
  0
VERTEX
  5
1D3
  8
LAYER_1
 10
-44.01414907006134
 20
-581.4868098139009
 30
0.0
  0
VERTEX
  5
1D4
  8
LAYER_1
 10
-43.77093460249391
 20
-581.5605881160428
 30
0.0
  0
VERTEX
  5
1D5
  8
LAYER_1
 10
-43.518
 20
-581.5855
 30
0.0
  0
VERTEX
  5
1D6
  8
LAYER_1
 10
-43.26506539750609
 20
-581.5605881160428
 30
0.0
  0
VERTEX
  5
1D7
  8
LAYER_1
 10
-43.02185092993866
 20
-581.4868098139009
 30
0.0
  0
VERTEX
  5
1D8
  8
LAYER_1
 10
-42.79770319289008
 20
-581.3670003523503
 30
0.0
  0
VERTEX
  5
1D9
  8
LAYER_1
 10
-42.60123605819164
 20
-581.2057639418083
 30
0.0
  0
VERTEX
  5
1DA
  8
LAYER_1
 10
-42.43999964764975
 20
-581.0092968071099
 30
0.0
  0
VERTEX
  5
1DB
  8
LAYER_1
 10
-42.32019018609912
 20
-580.7851490700614
 30
0.0
  0
VERTEX
  5
1DC
  8
LAYER_1
 10
-42.24641188395722
 20
-580.5419346024939
 30
0.0
  0
VERTEX
  5
1DD
  8
LAYER_1
 10
-42.2215
 20
-580.289
 30
0.0
  0
VERTEX
  5
1DE
  8
LAYER_1
 10
-42.24641188395722
 20
-580.036065397506
 30
0.0
  0
VERTEX
  5
1DF
  8
LAYER_1
 10
-42.32019018609912
 20
-579.7928509299386
 30
0.0
  0
VERTEX
  5
1E0
  8
LAYER_1
 10
-42.43999964764976
 20
-579.5687031928901
 30
0.0
  0
VERTEX
  5
1E1
  8
LAYER_1
 10
-42.60123605819165
 20
-579.3722360581917
 30
0.0
  0
VERTEX
  5
1E2
  8
LAYER_1
 10
-42.79770319289009
 20
-579.2109996476497
 30
0.0
  0
VERTEX
  5
1E3
  8
LAYER_1
 10
-43.02185092993867
 20
-579.0911901860991
 30
0.0
  0
VERTEX
  5
1E4
  8
LAYER_1
 10
-43.26506539750609
 20
-579.0174118839572
 30
0.0
  0
SEQEND
  5
3CB
  8
LAYER_1
  0
POLYLINE
  5
7A
  8
LAYER_1
 66
     1
 10
0.0
 20
0.0
 30
0.0
 70
     1
  0
VERTEX
  5
1E5
  8
LAYER_1
 10
-69.018
 20
-578.9925
 30
0.0
  0
VERTEX
  5
1E6
  8
LAYER_1
 10
-69.27093460249391
 20
-579.0174118839572
 30
0.0
  0
VERTEX
  5
1E7
  8
LAYER_1
 10
-69.51414907006134
 20
-579.0911901860991
 30
0.0
  0
VERTEX
  5
1E8
  8
LAYER_1
 10
-69.73829680710992
 20
-579.2109996476497
 30
0.0
  0
VERTEX
  5
1E9
  8
LAYER_1
 10
-69.93476394180836
 20
-579.3722360581917
 30
0.0
  0
VERTEX
  5
1EA
  8
LAYER_1
 10
-70.09600035235025
 20
-579.5687031928901
 30
0.0
  0
VERTEX
  5
1EB
  8
LAYER_1
 10
-70.21580981390089
 20
-579.7928509299386
 30
0.0
  0
VERTEX
  5
1EC
  8
LAYER_1
 10
-70.2895881160428
 20
-580.036065397506
 30
0.0
  0
VERTEX
  5
1ED
  8
LAYER_1
 10
-70.3145
 20
-580.289
 30
0.0
  0
VERTEX
  5
1EE
  8
LAYER_1
 10
-70.2895881160428
 20
-580.5419346024939
 30
0.0
  0
VERTEX
  5
1EF
  8
LAYER_1
 10
-70.21580981390089
 20
-580.7851490700614
 30
0.0
  0
VERTEX
  5
1F0
  8
LAYER_1
 10
-70.09600035235025
 20
-581.0092968071099
 30
0.0
  0
VERTEX
  5
1F1
  8
LAYER_1
 10
-69.93476394180836
 20
-581.2057639418083
 30
0.0
  0
VERTEX
  5
1F2
  8
LAYER_1
 10
-69.73829680710992
 20
-581.3670003523503
 30
0.0
  0
VERTEX
  5
1F3
  8
LAYER_1
 10
-69.51414907006134
 20
-581.4868098139009
 30
0.0
  0
VERTEX
  5
1F4
  8
LAYER_1
 10
-69.27093460249391
 20
-581.5605881160428
 30
0.0
  0
VERTEX
  5
1F5
  8
LAYER_1
 10
-69.018
 20
-581.5855
 30
0.0
  0
VERTEX
  5
1F6
  8
LAYER_1
 10
-68.76506539750609
 20
-581.5605881160428
 30
0.0
  0
VERTEX
  5
1F7
  8
LAYER_1
 10
-68.52185092993867
 20
-581.4868098139009
 30
0.0
  0
VERTEX
  5
1F8
  8
LAYER_1
 10
-68.29770319289008
 20
-581.3670003523503
 30
0.0
  0
VERTEX
  5
1F9
  8
LAYER_1
 10
-68.10123605819165
 20
-581.2057639418083
 30
0.0
  0
VERTEX
  5
1FA
  8
LAYER_1
 10
-67.93999964764976
 20
-581.0092968071099
 30
0.0
  0
VERTEX
  5
1FB
  8
LAYER_1
 10
-67.82019018609911
 20
-580.7851490700614
 30
0.0
  0
VERTEX
  5
1FC
  8
LAYER_1
 10
-67.74641188395721
 20
-580.5419346024939
 30
0.0
  0
VERTEX
  5
1FD
  8
LAYER_1
 10
-67.7215
 20
-580.289
 30
0.0
  0
VERTEX
  5
1FE
  8
LAYER_1
 10
-67.74641188395721
 20
-580.036065397506
 30
0.0
  0
VERTEX
  5
1FF
  8
LAYER_1
 10
-67.82019018609913
 20
-579.7928509299386
 30
0.0
  0
VERTEX
  5
200
  8
LAYER_1
 10
-67.93999964764976
 20
-579.5687031928901
 30
0.0
  0
VERTEX
  5
201
  8
LAYER_1
 10
-68.10123605819165
 20
-579.3722360581917
 30
0.0
  0
VERTEX
  5
202
  8
LAYER_1
 10
-68.2977031928901
 20
-579.2109996476497
 30
0.0
  0
VERTEX
  5
203
  8
LAYER_1
 10
-68.52185092993867
 20
-579.0911901860991
 30
0.0
  0
VERTEX
  5
204
  8
LAYER_1
 10
-68.76506539750609
 20
-579.0174118839572
 30
0.0
  0
SEQEND
  5
3CC
  8
LAYER_1
  0
POLYLINE
  5
7B
  8
LAYER_1
 62
     2
 66
     1
 10
0.0
 20
0.0
 30
0.0
 70
     1
  0
VERTEX
  5
205
  8
LAYER_1
 62
     2
 10
56.9383
 20
-579.4807
 30
0.0
  0
VERTEX
  5
206
  8
LAYER_1
 62
     2
 10
82.9383
 20
-579.4807
 30
0.0
  0
VERTEX
  5
207
  8
LAYER_1
 62
     2
 10
82.9383
 20
-553.4807
 30
0.0
  0
VERTEX
  5
208
  8
LAYER_1
 62
     2
 10
56.9383
 20
-553.4807
 30
0.0
  0
VERTEX
  5
209
  8
LAYER_1
 62
     2
 10
56.9383
 20
-579.4807
 30
0.0
  0
SEQEND
  5
3CD
  8
LAYER_1
 62
     2
  0
POLYLINE
  5
7C
  8
LAYER_1
 66
     1
 10
0.0
 20
0.0
 30
0.0
 70
     1
  0
VERTEX
  5
20A
  8
LAYER_1
 10
62.1883
 20
-555.7307
 30
0.0
  0
VERTEX
  5
20B
  8
LAYER_1
 10
77.6883
 20
-555.7307
 30
0.0
  0
VERTEX
  5
20C
  8
LAYER_1
 10
78.2909
 20
-555.7919
 30
0.0
  0
VERTEX
  5
20D
  8
LAYER_1
 10
78.8531
 20
-555.9674
 30
0.0
  0
VERTEX
  5
20E
  8
LAYER_1
 10
79.3626
 20
-556.2449
 30
0.0
  0
VERTEX
  5
20F
  8
LAYER_1
 10
79.8071
 20
-556.612
 30
0.0
  0
VERTEX
  5
210
  8
LAYER_1
 10
80.1741
 20
-557.0564
 30
0.0
  0
VERTEX
  5
211
  8
LAYER_1
 10
80.4516
 20
-557.5659
 30
0.0
  0
VERTEX
  5
212
  8
LAYER_1
 10
80.6271
 20
-558.1281
 30
0.0
  0
VERTEX
  5
213
  8
LAYER_1
 10
80.6883
 20
-558.7307
 30
0.0
  0
VERTEX
  5
214
  8
LAYER_1
 10
80.6883
 20
-574.2307
 30
0.0
  0
VERTEX
  5
215
  8
LAYER_1
 10
80.6271
 20
-574.8333
 30
0.0
  0
VERTEX
  5
216
  8
LAYER_1
 10
80.4516
 20
-575.3955
 30
0.0
  0
VERTEX
  5
217
  8
LAYER_1
 10
80.1741
 20
-575.905
 30
0.0
  0
VERTEX
  5
218
  8
LAYER_1
 10
79.8071
 20
-576.3495
 30
0.0
  0
VERTEX
  5
219
  8
LAYER_1
 10
79.3626
 20
-576.7165
 30
0.0
  0
VERTEX
  5
21A
  8
LAYER_1
 10
78.8531
 20
-576.994
 30
0.0
  0
VERTEX
  5
21B
  8
LAYER_1
 10
78.2909
 20
-577.1695
 30
0.0
  0
VERTEX
  5
21C
  8
LAYER_1
 10
77.6883
 20
-577.2307
 30
0.0
  0
VERTEX
  5
21D
  8
LAYER_1
 10
62.1883
 20
-577.2307
 30
0.0
  0
VERTEX
  5
21E
  8
LAYER_1
 10
61.5857
 20
-577.1695
 30
0.0
  0
VERTEX
  5
21F
  8
LAYER_1
 10
61.0235
 20
-576.994
 30
0.0
  0
VERTEX
  5
220
  8
LAYER_1
 10
60.514
 20
-576.7165
 30
0.0
  0
VERTEX
  5
221
  8
LAYER_1
 10
60.0696
 20
-576.3495
 30
0.0
  0
VERTEX
  5
222
  8
LAYER_1
 10
59.7025
 20
-575.905
 30
0.0
  0
VERTEX
  5
223
  8
LAYER_1
 10
59.425
 20
-575.3955
 30
0.0
  0
VERTEX
  5
224
  8
LAYER_1
 10
59.2495
 20
-574.8333
 30
0.0
  0
VERTEX
  5
225
  8
LAYER_1
 10
59.1883
 20
-574.2307
 30
0.0
  0
VERTEX
  5
226
  8
LAYER_1
 10
59.1883
 20
-558.7307
 30
0.0
  0
VERTEX
  5
227
  8
LAYER_1
 10
59.2495
 20
-558.1281
 30
0.0
  0
VERTEX
  5
228
  8
LAYER_1
 10
59.425
 20
-557.5659
 30
0.0
  0
VERTEX
  5
229
  8
LAYER_1
 10
59.7025
 20
-557.0564
 30
0.0
  0
VERTEX
  5
22A
  8
LAYER_1
 10
60.0696
 20
-556.612
 30
0.0
  0
VERTEX
  5
22B
  8
LAYER_1
 10
60.514
 20
-556.2449
 30
0.0
  0
VERTEX
  5
22C
  8
LAYER_1
 10
61.0235
 20
-555.9674
 30
0.0
  0
VERTEX
  5
22D
  8
LAYER_1
 10
61.5857
 20
-555.7919
 30
0.0
  0
VERTEX
  5
22E
  8
LAYER_1
 10
62.1883
 20
-555.7307
 30
0.0
  0
SEQEND
  5
3CE
  8
LAYER_1
  0
POLYLINE
  5
7D
  8
LAYER_1
 66
     1
 10
0.0
 20
0.0
 30
0.0
 70
     1
  0
VERTEX
  5
22F
  8
LAYER_1
 10
82.6883
 20
-552.4341999999999
 30
0.0
  0
VERTEX
  5
230
  8
LAYER_1
 10
82.43536539750609
 20
-552.4591118839571
 30
0.0
  0
VERTEX
  5
231
  8
LAYER_1
 10
82.19215092993866
 20
-552.532890186099
 30
0.0
  0
VERTEX
  5
232
  8
LAYER_1
 10
81.96800319289008
 20
-552.6526996476497
 30
0.0
  0
VERTEX
  5
233
  8
LAYER_1
 10
81.77153605819164
 20
-552.8139360581916
 30
0.0
  0
VERTEX
  5
234
  8
LAYER_1
 10
81.61029964764975
 20
-553.0104031928901
 30
0.0
  0
VERTEX
  5
235
  8
LAYER_1
 10
81.49049018609911
 20
-553.2345509299386
 30
0.0
  0
VERTEX
  5
236
  8
LAYER_1
 10
81.4167118839572
 20
-553.477765397506
 30
0.0
  0
VERTEX
  5
237
  8
LAYER_1
 10
81.3918
 20
-553.7307
 30
0.0
  0
VERTEX
  5
238
  8
LAYER_1
 10
81.4167118839572
 20
-553.9836346024939
 30
0.0
  0
VERTEX
  5
239
  8
LAYER_1
 10
81.49049018609911
 20
-554.2268490700613
 30
0.0
  0
VERTEX
  5
23A
  8
LAYER_1
 10
81.61029964764975
 20
-554.4509968071098
 30
0.0
  0
VERTEX
  5
23B
  8
LAYER_1
 10
81.77153605819164
 20
-554.6474639418083
 30
0.0
  0
VERTEX
  5
23C
  8
LAYER_1
 10
81.96800319289008
 20
-554.8087003523502
 30
0.0
  0
VERTEX
  5
23D
  8
LAYER_1
 10
82.19215092993866
 20
-554.9285098139009
 30
0.0
  0
VERTEX
  5
23E
  8
LAYER_1
 10
82.43536539750609
 20
-555.0022881160428
 30
0.0
  0
VERTEX
  5
23F
  8
LAYER_1
 10
82.6883
 20
-555.0272
 30
0.0
  0
VERTEX
  5
240
  8
LAYER_1
 10
82.9412346024939
 20
-555.0022881160428
 30
0.0
  0
VERTEX
  5
241
  8
LAYER_1
 10
83.18444907006133
 20
-554.9285098139009
 30
0.0
  0
VERTEX
  5
242
  8
LAYER_1
 10
83.40859680710992
 20
-554.8087003523502
 30
0.0
  0
VERTEX
  5
243
  8
LAYER_1
 10
83.60506394180835
 20
-554.6474639418083
 30
0.0
  0
VERTEX
  5
244
  8
LAYER_1
 10
83.76630035235024
 20
-554.4509968071098
 30
0.0
  0
VERTEX
  5
245
  8
LAYER_1
 10
83.88610981390089
 20
-554.2268490700613
 30
0.0
  0
VERTEX
  5
246
  8
LAYER_1
 10
83.95988811604279
 20
-553.9836346024939
 30
0.0
  0
VERTEX
  5
247
  8
LAYER_1
 10
83.98479999999999
 20
-553.7307
 30
0.0
  0
VERTEX
  5
248
  8
LAYER_1
 10
83.95988811604279
 20
-553.477765397506
 30
0.0
  0
VERTEX
  5
249
  8
LAYER_1
 10
83.88610981390087
 20
-553.2345509299386
 30
0.0
  0
VERTEX
  5
24A
  8
LAYER_1
 10
83.76630035235024
 20
-553.0104031928901
 30
0.0
  0
VERTEX
  5
24B
  8
LAYER_1
 10
83.60506394180835
 20
-552.8139360581916
 30
0.0
  0
VERTEX
  5
24C
  8
LAYER_1
 10
83.4085968071099
 20
-552.6526996476497
 30
0.0
  0
VERTEX
  5
24D
  8
LAYER_1
 10
83.18444907006133
 20
-552.532890186099
 30
0.0
  0
VERTEX
  5
24E
  8
LAYER_1
 10
82.9412346024939
 20
-552.4591118839571
 30
0.0
  0
SEQEND
  5
3CF
  8
LAYER_1
  0
POLYLINE
  5
7E
  8
LAYER_1
 66
     1
 10
0.0
 20
0.0
 30
0.0
 70
     1
  0
VERTEX
  5
24F
  8
LAYER_1
 10
57.1883
 20
-552.4341999999999
 30
0.0
  0
VERTEX
  5
250
  8
LAYER_1
 10
56.93536539750609
 20
-552.4591118839571
 30
0.0
  0
VERTEX
  5
251
  8
LAYER_1
 10
56.69215092993866
 20
-552.532890186099
 30
0.0
  0
VERTEX
  5
252
  8
LAYER_1
 10
56.46800319289009
 20
-552.6526996476497
 30
0.0
  0
VERTEX
  5
253
  8
LAYER_1
 10
56.27153605819164
 20
-552.8139360581916
 30
0.0
  0
VERTEX
  5
254
  8
LAYER_1
 10
56.11029964764975
 20
-553.0104031928901
 30
0.0
  0
VERTEX
  5
255
  8
LAYER_1
 10
55.99049018609912
 20
-553.2345509299386
 30
0.0
  0
VERTEX
  5
256
  8
LAYER_1
 10
55.91671188395721
 20
-553.477765397506
 30
0.0
  0
VERTEX
  5
257
  8
LAYER_1
 10
55.8918
 20
-553.7307
 30
0.0
  0
VERTEX
  5
258
  8
LAYER_1
 10
55.91671188395721
 20
-553.9836346024939
 30
0.0
  0
VERTEX
  5
259
  8
LAYER_1
 10
55.99049018609912
 20
-554.2268490700613
 30
0.0
  0
VERTEX
  5
25A
  8
LAYER_1
 10
56.11029964764975
 20
-554.4509968071098
 30
0.0
  0
VERTEX
  5
25B
  8
LAYER_1
 10
56.27153605819164
 20
-554.6474639418083
 30
0.0
  0
VERTEX
  5
25C
  8
LAYER_1
 10
56.46800319289009
 20
-554.8087003523502
 30
0.0
  0
VERTEX
  5
25D
  8
LAYER_1
 10
56.69215092993866
 20
-554.9285098139009
 30
0.0
  0
VERTEX
  5
25E
  8
LAYER_1
 10
56.93536539750609
 20
-555.0022881160428
 30
0.0
  0
VERTEX
  5
25F
  8
LAYER_1
 10
57.1883
 20
-555.0272
 30
0.0
  0
VERTEX
  5
260
  8
LAYER_1
 10
57.44123460249391
 20
-555.0022881160428
 30
0.0
  0
VERTEX
  5
261
  8
LAYER_1
 10
57.68444907006134
 20
-554.9285098139009
 30
0.0
  0
VERTEX
  5
262
  8
LAYER_1
 10
57.90859680710992
 20
-554.8087003523502
 30
0.0
  0
VERTEX
  5
263
  8
LAYER_1
 10
58.10506394180836
 20
-554.6474639418083
 30
0.0
  0
VERTEX
  5
264
  8
LAYER_1
 10
58.26630035235025
 20
-554.4509968071098
 30
0.0
  0
VERTEX
  5
265
  8
LAYER_1
 10
58.38610981390088
 20
-554.2268490700613
 30
0.0
  0
VERTEX
  5
266
  8
LAYER_1
 10
58.45988811604278
 20
-553.9836346024939
 30
0.0
  0
VERTEX
  5
267
  8
LAYER_1
 10
58.4848
 20
-553.7307
 30
0.0
  0
VERTEX
  5
268
  8
LAYER_1
 10
58.45988811604278
 20
-553.477765397506
 30
0.0
  0
VERTEX
  5
269
  8
LAYER_1
 10
58.38610981390088
 20
-553.2345509299386
 30
0.0
  0
VERTEX
  5
26A
  8
LAYER_1
 10
58.26630035235024
 20
-553.0104031928901
 30
0.0
  0
VERTEX
  5
26B
  8
LAYER_1
 10
58.10506394180835
 20
-552.8139360581916
 30
0.0
  0
VERTEX
  5
26C
  8
LAYER_1
 10
57.90859680710991
 20
-552.6526996476497
 30
0.0
  0
VERTEX
  5
26D
  8
LAYER_1
 10
57.68444907006133
 20
-552.532890186099
 30
0.0
  0
VERTEX
  5
26E
  8
LAYER_1
 10
57.44123460249391
 20
-552.4591118839571
 30
0.0
  0
SEQEND
  5
3D0
  8
LAYER_1
  0
POLYLINE
  5
7F
  8
LAYER_1
 66
     1
 10
0.0
 20
0.0
 30
0.0
 70
     1
  0
VERTEX
  5
26F
  8
LAYER_1
 10
82.6883
 20
-577.9341999999999
 30
0.0
  0
VERTEX
  5
270
  8
LAYER_1
 10
82.43536539750609
 20
-577.9591118839571
 30
0.0
  0
VERTEX
  5
271
  8
LAYER_1
 10
82.19215092993866
 20
-578.032890186099
 30
0.0
  0
VERTEX
  5
272
  8
LAYER_1
 10
81.96800319289008
 20
-578.1526996476497
 30
0.0
  0
VERTEX
  5
273
  8
LAYER_1
 10
81.77153605819164
 20
-578.3139360581916
 30
0.0
  0
VERTEX
  5
274
  8
LAYER_1
 10
81.61029964764975
 20
-578.5104031928901
 30
0.0
  0
VERTEX
  5
275
  8
LAYER_1
 10
81.49049018609911
 20
-578.7345509299386
 30
0.0
  0
VERTEX
  5
276
  8
LAYER_1
 10
81.4167118839572
 20
-578.977765397506
 30
0.0
  0
VERTEX
  5
277
  8
LAYER_1
 10
81.3918
 20
-579.2307
 30
0.0
  0
VERTEX
  5
278
  8
LAYER_1
 10
81.4167118839572
 20
-579.4836346024939
 30
0.0
  0
VERTEX
  5
279
  8
LAYER_1
 10
81.49049018609911
 20
-579.7268490700613
 30
0.0
  0
VERTEX
  5
27A
  8
LAYER_1
 10
81.61029964764975
 20
-579.9509968071098
 30
0.0
  0
VERTEX
  5
27B
  8
LAYER_1
 10
81.77153605819164
 20
-580.1474639418083
 30
0.0
  0
VERTEX
  5
27C
  8
LAYER_1
 10
81.96800319289008
 20
-580.3087003523502
 30
0.0
  0
VERTEX
  5
27D
  8
LAYER_1
 10
82.19215092993866
 20
-580.4285098139009
 30
0.0
  0
VERTEX
  5
27E
  8
LAYER_1
 10
82.43536539750609
 20
-580.5022881160428
 30
0.0
  0
VERTEX
  5
27F
  8
LAYER_1
 10
82.6883
 20
-580.5272
 30
0.0
  0
VERTEX
  5
280
  8
LAYER_1
 10
82.9412346024939
 20
-580.5022881160428
 30
0.0
  0
VERTEX
  5
281
  8
LAYER_1
 10
83.18444907006133
 20
-580.4285098139009
 30
0.0
  0
VERTEX
  5
282
  8
LAYER_1
 10
83.40859680710992
 20
-580.3087003523502
 30
0.0
  0
VERTEX
  5
283
  8
LAYER_1
 10
83.60506394180835
 20
-580.1474639418083
 30
0.0
  0
VERTEX
  5
284
  8
LAYER_1
 10
83.76630035235024
 20
-579.9509968071098
 30
0.0
  0
VERTEX
  5
285
  8
LAYER_1
 10
83.88610981390089
 20
-579.7268490700613
 30
0.0
  0
VERTEX
  5
286
  8
LAYER_1
 10
83.95988811604279
 20
-579.4836346024939
 30
0.0
  0
VERTEX
  5
287
  8
LAYER_1
 10
83.98479999999999
 20
-579.2307
 30
0.0
  0
VERTEX
  5
288
  8
LAYER_1
 10
83.95988811604279
 20
-578.977765397506
 30
0.0
  0
VERTEX
  5
289
  8
LAYER_1
 10
83.88610981390087
 20
-578.7345509299386
 30
0.0
  0
VERTEX
  5
28A
  8
LAYER_1
 10
83.76630035235024
 20
-578.5104031928901
 30
0.0
  0
VERTEX
  5
28B
  8
LAYER_1
 10
83.60506394180835
 20
-578.3139360581916
 30
0.0
  0
VERTEX
  5
28C
  8
LAYER_1
 10
83.4085968071099
 20
-578.1526996476497
 30
0.0
  0
VERTEX
  5
28D
  8
LAYER_1
 10
83.18444907006133
 20
-578.032890186099
 30
0.0
  0
VERTEX
  5
28E
  8
LAYER_1
 10
82.9412346024939
 20
-577.9591118839571
 30
0.0
  0
SEQEND
  5
3D1
  8
LAYER_1
  0
POLYLINE
  5
80
  8
LAYER_1
 66
     1
 10
0.0
 20
0.0
 30
0.0
 70
     1
  0
VERTEX
  5
28F
  8
LAYER_1
 10
57.1883
 20
-577.9341999999999
 30
0.0
  0
VERTEX
  5
290
  8
LAYER_1
 10
56.93536539750609
 20
-577.9591118839571
 30
0.0
  0
VERTEX
  5
291
  8
LAYER_1
 10
56.69215092993866
 20
-578.032890186099
 30
0.0
  0
VERTEX
  5
292
  8
LAYER_1
 10
56.46800319289009
 20
-578.1526996476497
 30
0.0
  0
VERTEX
  5
293
  8
LAYER_1
 10
56.27153605819164
 20
-578.3139360581916
 30
0.0
  0
VERTEX
  5
294
  8
LAYER_1
 10
56.11029964764975
 20
-578.5104031928901
 30
0.0
  0
VERTEX
  5
295
  8
LAYER_1
 10
55.99049018609912
 20
-578.7345509299386
 30
0.0
  0
VERTEX
  5
296
  8
LAYER_1
 10
55.91671188395721
 20
-578.977765397506
 30
0.0
  0
VERTEX
  5
297
  8
LAYER_1
 10
55.8918
 20
-579.2307
 30
0.0
  0
VERTEX
  5
298
  8
LAYER_1
 10
55.91671188395721
 20
-579.4836346024939
 30
0.0
  0
VERTEX
  5
299
  8
LAYER_1
 10
55.99049018609912
 20
-579.7268490700613
 30
0.0
  0
VERTEX
  5
29A
  8
LAYER_1
 10
56.11029964764975
 20
-579.9509968071098
 30
0.0
  0
VERTEX
  5
29B
  8
LAYER_1
 10
56.27153605819164
 20
-580.1474639418083
 30
0.0
  0
VERTEX
  5
29C
  8
LAYER_1
 10
56.46800319289009
 20
-580.3087003523502
 30
0.0
  0
VERTEX
  5
29D
  8
LAYER_1
 10
56.69215092993866
 20
-580.4285098139009
 30
0.0
  0
VERTEX
  5
29E
  8
LAYER_1
 10
56.93536539750609
 20
-580.5022881160428
 30
0.0
  0
VERTEX
  5
29F
  8
LAYER_1
 10
57.1883
 20
-580.5272
 30
0.0
  0
VERTEX
  5
2A0
  8
LAYER_1
 10
57.44123460249391
 20
-580.5022881160428
 30
0.0
  0
VERTEX
  5
2A1
  8
LAYER_1
 10
57.68444907006134
 20
-580.4285098139009
 30
0.0
  0
VERTEX
  5
2A2
  8
LAYER_1
 10
57.90859680710992
 20
-580.3087003523502
 30
0.0
  0
VERTEX
  5
2A3
  8
LAYER_1
 10
58.10506394180836
 20
-580.1474639418083
 30
0.0
  0
VERTEX
  5
2A4
  8
LAYER_1
 10
58.26630035235025
 20
-579.9509968071098
 30
0.0
  0
VERTEX
  5
2A5
  8
LAYER_1
 10
58.38610981390088
 20
-579.7268490700613
 30
0.0
  0
VERTEX
  5
2A6
  8
LAYER_1
 10
58.45988811604278
 20
-579.4836346024939
 30
0.0
  0
VERTEX
  5
2A7
  8
LAYER_1
 10
58.4848
 20
-579.2307
 30
0.0
  0
VERTEX
  5
2A8
  8
LAYER_1
 10
58.45988811604278
 20
-578.977765397506
 30
0.0
  0
VERTEX
  5
2A9
  8
LAYER_1
 10
58.38610981390088
 20
-578.7345509299386
 30
0.0
  0
VERTEX
  5
2AA
  8
LAYER_1
 10
58.26630035235024
 20
-578.5104031928901
 30
0.0
  0
VERTEX
  5
2AB
  8
LAYER_1
 10
58.10506394180835
 20
-578.3139360581916
 30
0.0
  0
VERTEX
  5
2AC
  8
LAYER_1
 10
57.90859680710991
 20
-578.1526996476497
 30
0.0
  0
VERTEX
  5
2AD
  8
LAYER_1
 10
57.68444907006133
 20
-578.032890186099
 30
0.0
  0
VERTEX
  5
2AE
  8
LAYER_1
 10
57.44123460249391
 20
-577.9591118839571
 30
0.0
  0
SEQEND
  5
3D2
  8
LAYER_1
  0
POLYLINE
  5
81
  8
LAYER_1
 66
     1
 10
0.0
 20
0.0
 30
0.0
 70
     1
  0
VERTEX
  5
2AF
  8
LAYER_1
 10
18.5866
 20
-533.2323
 30
0.0
  0
VERTEX
  5
2B0
  8
LAYER_1
 10
18.33366539750609
 20
-533.2572118839572
 30
0.0
  0
VERTEX
  5
2B1
  8
LAYER_1
 10
18.09045092993866
 20
-533.3309901860991
 30
0.0
  0
VERTEX
  5
2B2
  8
LAYER_1
 10
17.86630319289009
 20
-533.4507996476498
 30
0.0
  0
VERTEX
  5
2B3
  8
LAYER_1
 10
17.66983605819164
 20
-533.6120360581917
 30
0.0
  0
VERTEX
  5
2B4
  8
LAYER_1
 10
17.50859964764975
 20
-533.8085031928902
 30
0.0
  0
VERTEX
  5
2B5
  8
LAYER_1
 10
17.38879018609912
 20
-534.0326509299387
 30
0.0
  0
VERTEX
  5
2B6
  8
LAYER_1
 10
17.31501188395721
 20
-534.2758653975061
 30
0.0
  0
VERTEX
  5
2B7
  8
LAYER_1
 10
17.2901
 20
-534.5288
 30
0.0
  0
VERTEX
  5
2B8
  8
LAYER_1
 10
17.31501188395721
 20
-534.781734602494
 30
0.0
  0
VERTEX
  5
2B9
  8
LAYER_1
 10
17.38879018609912
 20
-535.0249490700614
 30
0.0
  0
VERTEX
  5
2BA
  8
LAYER_1
 10
17.50859964764975
 20
-535.2490968071099
 30
0.0
  0
VERTEX
  5
2BB
  8
LAYER_1
 10
17.66983605819164
 20
-535.4455639418084
 30
0.0
  0
VERTEX
  5
2BC
  8
LAYER_1
 10
17.86630319289009
 20
-535.6068003523503
 30
0.0
  0
VERTEX
  5
2BD
  8
LAYER_1
 10
18.09045092993866
 20
-535.726609813901
 30
0.0
  0
VERTEX
  5
2BE
  8
LAYER_1
 10
18.33366539750609
 20
-535.8003881160429
 30
0.0
  0
VERTEX
  5
2BF
  8
LAYER_1
 10
18.5866
 20
-535.8253000000001
 30
0.0
  0
VERTEX
  5
2C0
  8
LAYER_1
 10
18.83953460249391
 20
-535.8003881160429
 30
0.0
  0
VERTEX
  5
2C1
  8
LAYER_1
 10
19.08274907006134
 20
-535.726609813901
 30
0.0
  0
VERTEX
  5
2C2
  8
LAYER_1
 10
19.30689680710991
 20
-535.6068003523503
 30
0.0
  0
VERTEX
  5
2C3
  8
LAYER_1
 10
19.50336394180836
 20
-535.4455639418084
 30
0.0
  0
VERTEX
  5
2C4
  8
LAYER_1
 10
19.66460035235025
 20
-535.2490968071099
 30
0.0
  0
VERTEX
  5
2C5
  8
LAYER_1
 10
19.78440981390089
 20
-535.0249490700614
 30
0.0
  0
VERTEX
  5
2C6
  8
LAYER_1
 10
19.85818811604279
 20
-534.781734602494
 30
0.0
  0
VERTEX
  5
2C7
  8
LAYER_1
 10
19.8831
 20
-534.5288
 30
0.0
  0
VERTEX
  5
2C8
  8
LAYER_1
 10
19.85818811604279
 20
-534.2758653975061
 30
0.0
  0
VERTEX
  5
2C9
  8
LAYER_1
 10
19.78440981390088
 20
-534.0326509299387
 30
0.0
  0
VERTEX
  5
2CA
  8
LAYER_1
 10
19.66460035235025
 20
-533.8085031928902
 30
0.0
  0
VERTEX
  5
2CB
  8
LAYER_1
 10
19.50336394180836
 20
-533.6120360581917
 30
0.0
  0
VERTEX
  5
2CC
  8
LAYER_1
 10
19.30689680710991
 20
-533.4507996476498
 30
0.0
  0
VERTEX
  5
2CD
  8
LAYER_1
 10
19.08274907006134
 20
-533.3309901860991
 30
0.0
  0
VERTEX
  5
2CE
  8
LAYER_1
 10
18.83953460249391
 20
-533.2572118839572
 30
0.0
  0
SEQEND
  5
3D3
  8
LAYER_1
  0
POLYLINE
  5
82
  8
LAYER_1
 66
     1
 10
0.0
 20
0.0
 30
0.0
 70
     1
  0
VERTEX
  5
2CF
  8
LAYER_1
 10
34.3866
 20
-497.7323
 30
0.0
  0
VERTEX
  5
2D0
  8
LAYER_1
 10
34.13366539750609
 20
-497.7572118839572
 30
0.0
  0
VERTEX
  5
2D1
  8
LAYER_1
 10
33.89045092993867
 20
-497.8309901860991
 30
0.0
  0
VERTEX
  5
2D2
  8
LAYER_1
 10
33.66630319289009
 20
-497.9507996476497
 30
0.0
  0
VERTEX
  5
2D3
  8
LAYER_1
 10
33.46983605819164
 20
-498.1120360581916
 30
0.0
  0
VERTEX
  5
2D4
  8
LAYER_1
 10
33.30859964764975
 20
-498.3085031928901
 30
0.0
  0
VERTEX
  5
2D5
  8
LAYER_1
 10
33.18879018609912
 20
-498.5326509299387
 30
0.0
  0
VERTEX
  5
2D6
  8
LAYER_1
 10
33.11501188395722
 20
-498.7758653975061
 30
0.0
  0
VERTEX
  5
2D7
  8
LAYER_1
 10
33.0901
 20
-499.0288
 30
0.0
  0
VERTEX
  5
2D8
  8
LAYER_1
 10
33.11501188395722
 20
-499.2817346024939
 30
0.0
  0
VERTEX
  5
2D9
  8
LAYER_1
 10
33.18879018609912
 20
-499.5249490700613
 30
0.0
  0
VERTEX
  5
2DA
  8
LAYER_1
 10
33.30859964764975
 20
-499.7490968071099
 30
0.0
  0
VERTEX
  5
2DB
  8
LAYER_1
 10
33.46983605819164
 20
-499.9455639418084
 30
0.0
  0
VERTEX
  5
2DC
  8
LAYER_1
 10
33.66630319289009
 20
-500.1068003523503
 30
0.0
  0
VERTEX
  5
2DD
  8
LAYER_1
 10
33.89045092993867
 20
-500.2266098139009
 30
0.0
  0
VERTEX
  5
2DE
  8
LAYER_1
 10
34.13366539750609
 20
-500.3003881160428
 30
0.0
  0
VERTEX
  5
2DF
  8
LAYER_1
 10
34.3866
 20
-500.3253
 30
0.0
  0
VERTEX
  5
2E0
  8
LAYER_1
 10
34.63953460249391
 20
-500.3003881160428
 30
0.0
  0
VERTEX
  5
2E1
  8
LAYER_1
 10
34.88274907006134
 20
-500.2266098139009
 30
0.0
  0
VERTEX
  5
2E2
  8
LAYER_1
 10
35.10689680710992
 20
-500.1068003523503
 30
0.0
  0
VERTEX
  5
2E3
  8
LAYER_1
 10
35.30336394180836
 20
-499.9455639418084
 30
0.0
  0
VERTEX
  5
2E4
  8
LAYER_1
 10
35.46460035235025
 20
-499.7490968071099
 30
0.0
  0
VERTEX
  5
2E5
  8
LAYER_1
 10
35.58440981390088
 20
-499.5249490700613
 30
0.0
  0
VERTEX
  5
2E6
  8
LAYER_1
 10
35.65818811604279
 20
-499.2817346024939
 30
0.0
  0
VERTEX
  5
2E7
  8
LAYER_1
 10
35.6831
 20
-499.0288
 30
0.0
  0
VERTEX
  5
2E8
  8
LAYER_1
 10
35.65818811604279
 20
-498.7758653975061
 30
0.0
  0
VERTEX
  5
2E9
  8
LAYER_1
 10
35.58440981390088
 20
-498.5326509299387
 30
0.0
  0
VERTEX
  5
2EA
  8
LAYER_1
 10
35.46460035235025
 20
-498.3085031928901
 30
0.0
  0
VERTEX
  5
2EB
  8
LAYER_1
 10
35.30336394180836
 20
-498.1120360581916
 30
0.0
  0
VERTEX
  5
2EC
  8
LAYER_1
 10
35.10689680710991
 20
-497.9507996476497
 30
0.0
  0
VERTEX
  5
2ED
  8
LAYER_1
 10
34.88274907006134
 20
-497.8309901860991
 30
0.0
  0
VERTEX
  5
2EE
  8
LAYER_1
 10
34.63953460249391
 20
-497.7572118839572
 30
0.0
  0
SEQEND
  5
3D4
  8
LAYER_1
  0
POLYLINE
  5
83
  8
LAYER_1
 66
     1
 10
0.0
 20
0.0
 30
0.0
 70
     1
  0
VERTEX
  5
2EF
  8
LAYER_1
 10
6.4438
 20
-563.9014999999999
 30
0.0
  0
VERTEX
  5
2F0
  8
LAYER_1
 10
6.19086539750609
 20
-563.9264118839571
 30
0.0
  0
VERTEX
  5
2F1
  8
LAYER_1
 10
5.947650929938662
 20
-564.0001901860991
 30
0.0
  0
VERTEX
  5
2F2
  8
LAYER_1
 10
5.723503192890086
 20
-564.1199996476497
 30
0.0
  0
VERTEX
  5
2F3
  8
LAYER_1
 10
5.527036058191642
 20
-564.2812360581917
 30
0.0
  0
VERTEX
  5
2F4
  8
LAYER_1
 10
5.365799647649751
 20
-564.4777031928901
 30
0.0
  0
VERTEX
  5
2F5
  8
LAYER_1
 10
5.245990186099117
 20
-564.7018509299386
 30
0.0
  0
VERTEX
  5
2F6
  8
LAYER_1
 10
5.172211883957212
 20
-564.945065397506
 30
0.0
  0
VERTEX
  5
2F7
  8
LAYER_1
 10
5.1473
 20
-565.198
 30
0.0
  0
VERTEX
  5
2F8
  8
LAYER_1
 10
5.172211883957212
 20
-565.4509346024939
 30
0.0
  0
VERTEX
  5
2F9
  8
LAYER_1
 10
5.245990186099117
 20
-565.6941490700614
 30
0.0
  0
VERTEX
  5
2FA
  8
LAYER_1
 10
5.365799647649751
 20
-565.9182968071099
 30
0.0
  0
VERTEX
  5
2FB
  8
LAYER_1
 10
5.527036058191642
 20
-566.1147639418083
 30
0.0
  0
VERTEX
  5
2FC
  8
LAYER_1
 10
5.723503192890086
 20
-566.2760003523503
 30
0.0
  0
VERTEX
  5
2FD
  8
LAYER_1
 10
5.947650929938662
 20
-566.3958098139009
 30
0.0
  0
VERTEX
  5
2FE
  8
LAYER_1
 10
6.190865397506091
 20
-566.4695881160428
 30
0.0
  0
VERTEX
  5
2FF
  8
LAYER_1
 10
6.443800000000001
 20
-566.4945
 30
0.0
  0
VERTEX
  5
300
  8
LAYER_1
 10
6.696734602493912
 20
-566.4695881160428
 30
0.0
  0
VERTEX
  5
301
  8
LAYER_1
 10
6.939949070061341
 20
-566.3958098139009
 30
0.0
  0
VERTEX
  5
302
  8
LAYER_1
 10
7.164096807109916
 20
-566.2760003523503
 30
0.0
  0
VERTEX
  5
303
  8
LAYER_1
 10
7.360563941808361
 20
-566.1147639418083
 30
0.0
  0
VERTEX
  5
304
  8
LAYER_1
 10
7.521800352350252
 20
-565.9182968071099
 30
0.0
  0
VERTEX
  5
305
  8
LAYER_1
 10
7.641609813900884
 20
-565.6941490700614
 30
0.0
  0
VERTEX
  5
306
  8
LAYER_1
 10
7.71538811604279
 20
-565.4509346024939
 30
0.0
  0
VERTEX
  5
307
  8
LAYER_1
 10
7.7403
 20
-565.198
 30
0.0
  0
VERTEX
  5
308
  8
LAYER_1
 10
7.715388116042788
 20
-564.945065397506
 30
0.0
  0
VERTEX
  5
309
  8
LAYER_1
 10
7.641609813900882
 20
-564.7018509299386
 30
0.0
  0
VERTEX
  5
30A
  8
LAYER_1
 10
7.521800352350247
 20
-564.4777031928901
 30
0.0
  0
VERTEX
  5
30B
  8
LAYER_1
 10
7.360563941808357
 20
-564.2812360581917
 30
0.0
  0
VERTEX
  5
30C
  8
LAYER_1
 10
7.164096807109911
 20
-564.1199996476497
 30
0.0
  0
VERTEX
  5
30D
  8
LAYER_1
 10
6.939949070061335
 20
-564.0001901860991
 30
0.0
  0
VERTEX
  5
30E
  8
LAYER_1
 10
6.696734602493906
 20
-563.9264118839571
 30
0.0
  0
SEQEND
  5
3D5
  8
LAYER_1
  0
POLYLINE
  5
84
  8
LAYER_1
 62
     2
 66
     1
 10
0.0
 20
0.0
 30
0.0
 70
     1
  0
VERTEX
  5
30F
  8
LAYER_1
 62
     2
 10
-25.0562
 20
-584.698
 30
0.0
  0
VERTEX
  5
310
  8
LAYER_1
 62
     2
 10
-25.0562
 20
-545.698
 30
0.0
  0
VERTEX
  5
311
  8
LAYER_1
 62
     2
 10
37.9438
 20
-545.698
 30
0.0
  0
VERTEX
  5
312
  8
LAYER_1
 62
     2
 10
37.9438
 20
-584.698
 30
0.0
  0
VERTEX
  5
313
  8
LAYER_1
 62
     2
 10
-25.0562
 20
-584.698
 30
0.0
  0
SEQEND
  5
3D6
  8
LAYER_1
 62
     2
  0
POLYLINE
  5
85
  8
LAYER_1
 66
     1
 10
0.0
 20
0.0
 30
0.0
 70
     1
  0
VERTEX
  5
314
  8
LAYER_1
 10
-21.0562
 20
-575.075
 30
0.0
  0
VERTEX
  5
315
  8
LAYER_1
 10
-21.0562
 20
-548.925
 30
0.0
  0
VERTEX
  5
316
  8
LAYER_1
 10
-21.0358
 20
-548.7241
 30
0.0
  0
VERTEX
  5
317
  8
LAYER_1
 10
-20.9773
 20
-548.5367
 30
0.0
  0
VERTEX
  5
318
  8
LAYER_1
 10
-20.8848
 20
-548.3669
 30
0.0
  0
VERTEX
  5
319
  8
LAYER_1
 10
-20.7625
 20
-548.2188
 30
0.0
  0
VERTEX
  5
31A
  8
LAYER_1
 10
-20.6143
 20
-548.0964
 30
0.0
  0
VERTEX
  5
31B
  8
LAYER_1
 10
-20.4445
 20
-548.0039
 30
0.0
  0
VERTEX
  5
31C
  8
LAYER_1
 10
-20.2571
 20
-547.9454
 30
0.0
  0
VERTEX
  5
31D
  8
LAYER_1
 10
-20.0562
 20
-547.925
 30
0.0
  0
VERTEX
  5
31E
  8
LAYER_1
 10
32.9438
 20
-547.925
 30
0.0
  0
VERTEX
  5
31F
  8
LAYER_1
 10
33.1447
 20
-547.9454
 30
0.0
  0
VERTEX
  5
320
  8
LAYER_1
 10
33.3321
 20
-548.0039
 30
0.0
  0
VERTEX
  5
321
  8
LAYER_1
 10
33.5019
 20
-548.0964
 30
0.0
  0
VERTEX
  5
322
  8
LAYER_1
 10
33.6501
 20
-548.2188
 30
0.0
  0
VERTEX
  5
323
  8
LAYER_1
 10
33.7724
 20
-548.3669
 30
0.0
  0
VERTEX
  5
324
  8
LAYER_1
 10
33.8649
 20
-548.5367
 30
0.0
  0
VERTEX
  5
325
  8
LAYER_1
 10
33.9234
 20
-548.7241
 30
0.0
  0
VERTEX
  5
326
  8
LAYER_1
 10
33.9438
 20
-548.925
 30
0.0
  0
VERTEX
  5
327
  8
LAYER_1
 10
33.9438
 20
-575.075
 30
0.0
  0
VERTEX
  5
328
  8
LAYER_1
 10
33.9234
 20
-575.2759
 30
0.0
  0
VERTEX
  5
329
  8
LAYER_1
 10
33.8649
 20
-575.4633
 30
0.0
  0
VERTEX
  5
32A
  8
LAYER_1
 10
33.7724
 20
-575.6331
 30
0.0
  0
VERTEX
  5
32B
  8
LAYER_1
 10
33.6501
 20
-575.7813
 30
0.0
  0
VERTEX
  5
32C
  8
LAYER_1
 10
33.5019
 20
-575.9036
 30
0.0
  0
VERTEX
  5
32D
  8
LAYER_1
 10
33.3321
 20
-575.9961
 30
0.0
  0
VERTEX
  5
32E
  8
LAYER_1
 10
33.1447
 20
-576.0546
 30
0.0
  0
VERTEX
  5
32F
  8
LAYER_1
 10
32.9438
 20
-576.075
 30
0.0
  0
VERTEX
  5
330
  8
LAYER_1
 10
-20.0562
 20
-576.075
 30
0.0
  0
VERTEX
  5
331
  8
LAYER_1
 10
-20.2571
 20
-576.0546
 30
0.0
  0
VERTEX
  5
332
  8
LAYER_1
 10
-20.4445
 20
-575.9961
 30
0.0
  0
VERTEX
  5
333
  8
LAYER_1
 10
-20.6143
 20
-575.9036
 30
0.0
  0
VERTEX
  5
334
  8
LAYER_1
 10
-20.7625
 20
-575.7813
 30
0.0
  0
VERTEX
  5
335
  8
LAYER_1
 10
-20.8848
 20
-575.6331
 30
0.0
  0
VERTEX
  5
336
  8
LAYER_1
 10
-20.9773
 20
-575.4633
 30
0.0
  0
VERTEX
  5
337
  8
LAYER_1
 10
-21.0358
 20
-575.2759
 30
0.0
  0
VERTEX
  5
338
  8
LAYER_1
 10
-21.0562
 20
-575.075
 30
0.0
  0
SEQEND
  5
3D7
  8
LAYER_1
  0
POLYLINE
  5
86
  8
LAYER_1
 66
     1
 10
0.0
 20
0.0
 30
0.0
 70
     1
  0
VERTEX
  5
339
  8
LAYER_1
 10
39.3438
 20
-584.623
 30
0.0
  0
VERTEX
  5
33A
  8
LAYER_1
 10
39.3661
 20
-584.4013
 30
0.0
  0
VERTEX
  5
33B
  8
LAYER_1
 10
39.4302
 20
-584.1948
 30
0.0
  0
VERTEX
  5
33C
  8
LAYER_1
 10
39.5317
 20
-584.008
 30
0.0
  0
VERTEX
  5
33D
  8
LAYER_1
 10
39.666
 20
-583.8452
 30
0.0
  0
VERTEX
  5
33E
  8
LAYER_1
 10
39.8288
 20
-583.7109
 30
0.0
  0
VERTEX
  5
33F
  8
LAYER_1
 10
40.0156
 20
-583.6094
 30
0.0
  0
VERTEX
  5
340
  8
LAYER_1
 10
40.2221
 20
-583.5453
 30
0.0
  0
VERTEX
  5
341
  8
LAYER_1
 10
40.4438
 20
-583.523
 30
0.0
  0
VERTEX
  5
342
  8
LAYER_1
 10
40.6655
 20
-583.5453
 30
0.0
  0
VERTEX
  5
343
  8
LAYER_1
 10
40.872
 20
-583.6094
 30
0.0
  0
VERTEX
  5
344
  8
LAYER_1
 10
41.0588
 20
-583.7109
 30
0.0
  0
VERTEX
  5
345
  8
LAYER_1
 10
41.2216
 20
-583.8452
 30
0.0
  0
VERTEX
  5
346
  8
LAYER_1
 10
41.3559
 20
-584.008
 30
0.0
  0
VERTEX
  5
347
  8
LAYER_1
 10
41.4574
 20
-584.1948
 30
0.0
  0
VERTEX
  5
348
  8
LAYER_1
 10
41.5215
 20
-584.4013
 30
0.0
  0
VERTEX
  5
349
  8
LAYER_1
 10
41.5438
 20
-584.623
 30
0.0
  0
VERTEX
  5
34A
  8
LAYER_1
 10
41.5215
 20
-584.8447
 30
0.0
  0
VERTEX
  5
34B
  8
LAYER_1
 10
41.4574
 20
-585.0512
 30
0.0
  0
VERTEX
  5
34C
  8
LAYER_1
 10
41.3559
 20
-585.238
 30
0.0
  0
VERTEX
  5
34D
  8
LAYER_1
 10
41.2216
 20
-585.4008
 30
0.0
  0
VERTEX
  5
34E
  8
LAYER_1
 10
41.0588
 20
-585.5351
 30
0.0
  0
VERTEX
  5
34F
  8
LAYER_1
 10
40.872
 20
-585.6366
 30
0.0
  0
VERTEX
  5
350
  8
LAYER_1
 10
40.6655
 20
-585.7007
 30
0.0
  0
VERTEX
  5
351
  8
LAYER_1
 10
40.4438
 20
-585.723
 30
0.0
  0
VERTEX
  5
352
  8
LAYER_1
 10
40.2221
 20
-585.7007
 30
0.0
  0
VERTEX
  5
353
  8
LAYER_1
 10
40.0156
 20
-585.6366
 30
0.0
  0
VERTEX
  5
354
  8
LAYER_1
 10
39.8288
 20
-585.5351
 30
0.0
  0
VERTEX
  5
355
  8
LAYER_1
 10
39.666
 20
-585.4008
 30
0.0
  0
VERTEX
  5
356
  8
LAYER_1
 10
39.5317
 20
-585.238
 30
0.0
  0
VERTEX
  5
357
  8
LAYER_1
 10
39.4302
 20
-585.0512
 30
0.0
  0
VERTEX
  5
358
  8
LAYER_1
 10
39.3661
 20
-584.8447
 30
0.0
  0
VERTEX
  5
359
  8
LAYER_1
 10
39.3438
 20
-584.623
 30
0.0
  0
SEQEND
  5
3D8
  8
LAYER_1
  0
POLYLINE
  5
87
  8
LAYER_1
 66
     1
 10
0.0
 20
0.0
 30
0.0
 70
     1
  0
VERTEX
  5
35A
  8
LAYER_1
 10
-28.6562
 20
-584.623
 30
0.0
  0
VERTEX
  5
35B
  8
LAYER_1
 10
-28.6339
 20
-584.4013
 30
0.0
  0
VERTEX
  5
35C
  8
LAYER_1
 10
-28.5698
 20
-584.1948
 30
0.0
  0
VERTEX
  5
35D
  8
LAYER_1
 10
-28.4683
 20
-584.008
 30
0.0
  0
VERTEX
  5
35E
  8
LAYER_1
 10
-28.334
 20
-583.8452
 30
0.0
  0
VERTEX
  5
35F
  8
LAYER_1
 10
-28.1712
 20
-583.7109
 30
0.0
  0
VERTEX
  5
360
  8
LAYER_1
 10
-27.9844
 20
-583.6094
 30
0.0
  0
VERTEX
  5
361
  8
LAYER_1
 10
-27.7779
 20
-583.5453
 30
0.0
  0
VERTEX
  5
362
  8
LAYER_1
 10
-27.5562
 20
-583.523
 30
0.0
  0
VERTEX
  5
363
  8
LAYER_1
 10
-27.3345
 20
-583.5453
 30
0.0
  0
VERTEX
  5
364
  8
LAYER_1
 10
-27.128
 20
-583.6094
 30
0.0
  0
VERTEX
  5
365
  8
LAYER_1
 10
-26.9412
 20
-583.7109
 30
0.0
  0
VERTEX
  5
366
  8
LAYER_1
 10
-26.7784
 20
-583.8452
 30
0.0
  0
VERTEX
  5
367
  8
LAYER_1
 10
-26.6441
 20
-584.008
 30
0.0
  0
VERTEX
  5
368
  8
LAYER_1
 10
-26.5426
 20
-584.1948
 30
0.0
  0
VERTEX
  5
369
  8
LAYER_1
 10
-26.4785
 20
-584.4013
 30
0.0
  0
VERTEX
  5
36A
  8
LAYER_1
 10
-26.4562
 20
-584.623
 30
0.0
  0
VERTEX
  5
36B
  8
LAYER_1
 10
-26.4785
 20
-584.8447
 30
0.0
  0
VERTEX
  5
36C
  8
LAYER_1
 10
-26.5426
 20
-585.0512
 30
0.0
  0
VERTEX
  5
36D
  8
LAYER_1
 10
-26.6441
 20
-585.238
 30
0.0
  0
VERTEX
  5
36E
  8
LAYER_1
 10
-26.7784
 20
-585.4008
 30
0.0
  0
VERTEX
  5
36F
  8
LAYER_1
 10
-26.9412
 20
-585.5351
 30
0.0
  0
VERTEX
  5
370
  8
LAYER_1
 10
-27.128
 20
-585.6366
 30
0.0
  0
VERTEX
  5
371
  8
LAYER_1
 10
-27.3345
 20
-585.7007
 30
0.0
  0
VERTEX
  5
372
  8
LAYER_1
 10
-27.5562
 20
-585.723
 30
0.0
  0
VERTEX
  5
373
  8
LAYER_1
 10
-27.7779
 20
-585.7007
 30
0.0
  0
VERTEX
  5
374
  8
LAYER_1
 10
-27.9844
 20
-585.6366
 30
0.0
  0
VERTEX
  5
375
  8
LAYER_1
 10
-28.1712
 20
-585.5351
 30
0.0
  0
VERTEX
  5
376
  8
LAYER_1
 10
-28.334
 20
-585.4008
 30
0.0
  0
VERTEX
  5
377
  8
LAYER_1
 10
-28.4683
 20
-585.238
 30
0.0
  0
VERTEX
  5
378
  8
LAYER_1
 10
-28.5698
 20
-585.0512
 30
0.0
  0
VERTEX
  5
379
  8
LAYER_1
 10
-28.6339
 20
-584.8447
 30
0.0
  0
VERTEX
  5
37A
  8
LAYER_1
 10
-28.6562
 20
-584.623
 30
0.0
  0
SEQEND
  5
3D9
  8
LAYER_1
  0
POLYLINE
  5
88
  8
LAYER_1
 66
     1
 10
0.0
 20
0.0
 30
0.0
 70
     1
  0
VERTEX
  5
37B
  8
LAYER_1
 10
39.3438
 20
-545.773
 30
0.0
  0
VERTEX
  5
37C
  8
LAYER_1
 10
39.3661
 20
-545.5513
 30
0.0
  0
VERTEX
  5
37D
  8
LAYER_1
 10
39.4302
 20
-545.3448
 30
0.0
  0
VERTEX
  5
37E
  8
LAYER_1
 10
39.5317
 20
-545.158
 30
0.0
  0
VERTEX
  5
37F
  8
LAYER_1
 10
39.666
 20
-544.9952
 30
0.0
  0
VERTEX
  5
380
  8
LAYER_1
 10
39.8288
 20
-544.8609
 30
0.0
  0
VERTEX
  5
381
  8
LAYER_1
 10
40.0156
 20
-544.7594
 30
0.0
  0
VERTEX
  5
382
  8
LAYER_1
 10
40.2221
 20
-544.6953
 30
0.0
  0
VERTEX
  5
383
  8
LAYER_1
 10
40.4438
 20
-544.673
 30
0.0
  0
VERTEX
  5
384
  8
LAYER_1
 10
40.6655
 20
-544.6953
 30
0.0
  0
VERTEX
  5
385
  8
LAYER_1
 10
40.872
 20
-544.7594
 30
0.0
  0
VERTEX
  5
386
  8
LAYER_1
 10
41.0588
 20
-544.8609
 30
0.0
  0
VERTEX
  5
387
  8
LAYER_1
 10
41.2216
 20
-544.9952
 30
0.0
  0
VERTEX
  5
388
  8
LAYER_1
 10
41.3559
 20
-545.158
 30
0.0
  0
VERTEX
  5
389
  8
LAYER_1
 10
41.4574
 20
-545.3448
 30
0.0
  0
VERTEX
  5
38A
  8
LAYER_1
 10
41.5215
 20
-545.5513
 30
0.0
  0
VERTEX
  5
38B
  8
LAYER_1
 10
41.5438
 20
-545.773
 30
0.0
  0
VERTEX
  5
38C
  8
LAYER_1
 10
41.5215
 20
-545.9947
 30
0.0
  0
VERTEX
  5
38D
  8
LAYER_1
 10
41.4574
 20
-546.2012
 30
0.0
  0
VERTEX
  5
38E
  8
LAYER_1
 10
41.3559
 20
-546.388
 30
0.0
  0
VERTEX
  5
38F
  8
LAYER_1
 10
41.2216
 20
-546.5508
 30
0.0
  0
VERTEX
  5
390
  8
LAYER_1
 10
41.0588
 20
-546.6851
 30
0.0
  0
VERTEX
  5
391
  8
LAYER_1
 10
40.872
 20
-546.7866
 30
0.0
  0
VERTEX
  5
392
  8
LAYER_1
 10
40.6655
 20
-546.8507
 30
0.0
  0
VERTEX
  5
393
  8
LAYER_1
 10
40.4438
 20
-546.873
 30
0.0
  0
VERTEX
  5
394
  8
LAYER_1
 10
40.2221
 20
-546.8507
 30
0.0
  0
VERTEX
  5
395
  8
LAYER_1
 10
40.0156
 20
-546.7866
 30
0.0
  0
VERTEX
  5
396
  8
LAYER_1
 10
39.8288
 20
-546.6851
 30
0.0
  0
VERTEX
  5
397
  8
LAYER_1
 10
39.666
 20
-546.5508
 30
0.0
  0
VERTEX
  5
398
  8
LAYER_1
 10
39.5317
 20
-546.388
 30
0.0
  0
VERTEX
  5
399
  8
LAYER_1
 10
39.4302
 20
-546.2012
 30
0.0
  0
VERTEX
  5
39A
  8
LAYER_1
 10
39.3661
 20
-545.9947
 30
0.0
  0
VERTEX
  5
39B
  8
LAYER_1
 10
39.3438
 20
-545.773
 30
0.0
  0
SEQEND
  5
3DA
  8
LAYER_1
  0
POLYLINE
  5
89
  8
LAYER_1
 66
     1
 10
0.0
 20
0.0
 30
0.0
 70
     1
  0
VERTEX
  5
39C
  8
LAYER_1
 10
-28.6562
 20
-545.773
 30
0.0
  0
VERTEX
  5
39D
  8
LAYER_1
 10
-28.6339
 20
-545.5513
 30
0.0
  0
VERTEX
  5
39E
  8
LAYER_1
 10
-28.5698
 20
-545.3448
 30
0.0
  0
VERTEX
  5
39F
  8
LAYER_1
 10
-28.4683
 20
-545.158
 30
0.0
  0
VERTEX
  5
3A0
  8
LAYER_1
 10
-28.334
 20
-544.9952
 30
0.0
  0
VERTEX
  5
3A1
  8
LAYER_1
 10
-28.1712
 20
-544.8609
 30
0.0
  0
VERTEX
  5
3A2
  8
LAYER_1
 10
-27.9844
 20
-544.7594
 30
0.0
  0
VERTEX
  5
3A3
  8
LAYER_1
 10
-27.7779
 20
-544.6953
 30
0.0
  0
VERTEX
  5
3A4
  8
LAYER_1
 10
-27.5562
 20
-544.673
 30
0.0
  0
VERTEX
  5
3A5
  8
LAYER_1
 10
-27.3345
 20
-544.6953
 30
0.0
  0
VERTEX
  5
3A6
  8
LAYER_1
 10
-27.128
 20
-544.7594
 30
0.0
  0
VERTEX
  5
3A7
  8
LAYER_1
 10
-26.9412
 20
-544.8609
 30
0.0
  0
VERTEX
  5
3A8
  8
LAYER_1
 10
-26.7784
 20
-544.9952
 30
0.0
  0
VERTEX
  5
3A9
  8
LAYER_1
 10
-26.6441
 20
-545.158
 30
0.0
  0
VERTEX
  5
3AA
  8
LAYER_1
 10
-26.5426
 20
-545.3448
 30
0.0
  0
VERTEX
  5
3AB
  8
LAYER_1
 10
-26.4785
 20
-545.5513
 30
0.0
  0
VERTEX
  5
3AC
  8
LAYER_1
 10
-26.4562
 20
-545.773
 30
0.0
  0
VERTEX
  5
3AD
  8
LAYER_1
 10
-26.4785
 20
-545.9947
 30
0.0
  0
VERTEX
  5
3AE
  8
LAYER_1
 10
-26.5426
 20
-546.2012
 30
0.0
  0
VERTEX
  5
3AF
  8
LAYER_1
 10
-26.6441
 20
-546.388
 30
0.0
  0
VERTEX
  5
3B0
  8
LAYER_1
 10
-26.7784
 20
-546.5508
 30
0.0
  0
VERTEX
  5
3B1
  8
LAYER_1
 10
-26.9412
 20
-546.6851
 30
0.0
  0
VERTEX
  5
3B2
  8
LAYER_1
 10
-27.128
 20
-546.7866
 30
0.0
  0
VERTEX
  5
3B3
  8
LAYER_1
 10
-27.3345
 20
-546.8507
 30
0.0
  0
VERTEX
  5
3B4
  8
LAYER_1
 10
-27.5562
 20
-546.873
 30
0.0
  0
VERTEX
  5
3B5
  8
LAYER_1
 10
-27.7779
 20
-546.8507
 30
0.0
  0
VERTEX
  5
3B6
  8
LAYER_1
 10
-27.9844
 20
-546.7866
 30
0.0
  0
VERTEX
  5
3B7
  8
LAYER_1
 10
-28.1712
 20
-546.6851
 30
0.0
  0
VERTEX
  5
3B8
  8
LAYER_1
 10
-28.334
 20
-546.5508
 30
0.0
  0
VERTEX
  5
3B9
  8
LAYER_1
 10
-28.4683
 20
-546.388
 30
0.0
  0
VERTEX
  5
3BA
  8
LAYER_1
 10
-28.5698
 20
-546.2012
 30
0.0
  0
VERTEX
  5
3BB
  8
LAYER_1
 10
-28.6339
 20
-545.9947
 30
0.0
  0
VERTEX
  5
3BC
  8
LAYER_1
 10
-28.6562
 20
-545.773
 30
0.0
  0
SEQEND
  5
3DB
  8
LAYER_1
  0
POLYLINE
  5
8A
  8
LAYER_1
  6
NEW_LINE1
 62
     1
 66
     1
 10
0.0
 20
0.0
 30
0.0
 70
     1
  0
VERTEX
  5
3BD
  8
LAYER_1
  6
NEW_LINE1
 62
     1
 10
-30.0562
 20
-586.698
 30
0.0
  0
VERTEX
  5
3BE
  8
LAYER_1
  6
NEW_LINE1
 62
     1
 10
-30.0562
 20
-543.698
 30
0.0
  0
VERTEX
  5
3BF
  8
LAYER_1
  6
NEW_LINE1
 62
     1
 10
42.9438
 20
-543.698
 30
0.0
  0
VERTEX
  5
3C0
  8
LAYER_1
  6
NEW_LINE1
 62
     1
 10
42.9438
 20
-586.698
 30
0.0
  0
VERTEX
  5
3C1
  8
LAYER_1
  6
NEW_LINE1
 62
     1
 10
-30.0562
 20
-586.698
 30
0.0
  0
SEQEND
  5
3DC
  8
LAYER_1
  6
NEW_LINE1
 62
     1
  0
ENDSEC
  0
EOF
